<svg version="1.2" xmlns="http://www.w3.org/2000/svg" viewBox="0 0 419 423" width="419" height="423">
	<title>harms-icons-1-3-svg</title>
	<style>
		.s0 { fill: #ffffff } 
		.s1 { opacity: .4;fill: #000000 } 
		.s2 { fill: #930000 } 
		.s3 { opacity: .6;fill: #000000 } 
		.s4 { opacity: .9;fill: #000000 } 
	</style>
	<path id="Layer" class="s0" d="m206.8-555.9c-102.2 0-184.9-82.7-184.9-185.1 0-102.3 82.7-185 184.9-185 102.3 0 185 82.7 185 185 0 102.4-82.7 185.1-185 185.1z"/>
	<path id="Layer" class="s0" d="m802.8-543.9c-102.2 0-184.9-82.7-184.9-185.1 0-102.3 82.7-185 184.9-185 102.3 0 185 82.7 185 185 0 102.4-82.7 185.1-185 185.1z"/>
	<path id="Layer" class="s0" d="m206.8 393.1c-102.2 0-184.9-82.7-184.9-185.1 0-102.3 82.7-185 184.9-185 102.3 0 185 82.7 185 185 0 102.4-82.7 185.1-185 185.1z"/>
	<path id="Layer" class="s0" d="m809.8 391.1c-102.2 0-184.9-82.7-184.9-185.1 0-102.3 82.7-185 184.9-185 102.3 0 185 82.7 185 185 0 102.4-82.7 185.1-185 185.1z"/>
	<path id="Layer" class="s0" d="m215.8 867.1c-102.2 0-184.9-82.7-184.9-185.1 0-102.3 82.7-185 184.9-185 102.3 0 185 82.7 185 185 0 102.4-82.7 185.1-185 185.1z"/>
	<path id="Layer" class="s0" d="m805.8 862.1c-102.2 0-184.9-82.7-184.9-185.1 0-102.3 82.7-185 184.9-185 102.3 0 185 82.7 185 185 0 102.4-82.7 185.1-185 185.1z"/>
	<path id="Layer" class="s0" d="m204.8-54.9c-102.2 0-184.9-82.7-184.9-185.1 0-102.3 82.7-185 184.9-185 102.3 0 185 82.7 185 185 0 102.4-82.7 185.1-185 185.1z"/>
	<path id="Layer" class="s0" d="m814.6-49.9c-103.6 0-187.4-83.9-187.4-187.6 0-103.7 83.8-187.5 187.4-187.5 103.7 0 187.5 83.8 187.5 187.5 0 103.7-83.8 187.6-187.5 187.6z"/>
	<path id="Layer" fill-rule="evenodd" class="s1" d="m215.8-943.9c9.6 0.4 19.1 1.4 28.6 3.1 9.5 1.7 18.8 4 27.9 7 9.1 3 18.1 6.6 26.7 10.8 15.5 7.5 30 16.9 43.2 28 13.2 11 25 23.6 35.2 37.5 10.1 13.9 18.5 29 25.1 44.9 6.5 15.9 11 32.6 13.5 49.6q0.7 6.9 1.1 13.7 0.3 6.9 0.3 13.8 0 6.9-0.3 13.8-0.4 6.8-1.1 13.7c-2.5 17.4-7.1 34.3-13.8 50.5-6.6 16.3-15.3 31.6-25.7 45.7-10.4 14.1-22.6 26.8-36.2 37.9-13.5 11.1-28.4 20.5-44.3 27.9-17.1 8.1-35.2 13.8-53.8 17-18.7 3.1-37.6 3.7-56.4 1.7-18.8-2-37.3-6.6-54.8-13.7-17.5-7-34-16.5-49-28-10-8-31-29-39-40-15.7-20.5-27.5-43.8-34.6-68.6-7.2-24.8-9.6-50.8-7.2-76.5 2.3-25.7 9.5-50.8 21.1-73.9 11.6-23 27.5-43.7 46.7-61 8.1-7.4 16.8-14.2 26-20.3 9.1-6.1 18.7-11.4 28.7-16 10-4.6 20.4-8.4 31-11.3 10.6-3 21.4-5.1 32.3-6.4 9.6-1 19.2-1.3 28.8-0.9zm575.2 0.9c26-3 57 0 83 9 17.5 5.8 34.2 13.8 49.6 23.9 15.5 10 29.5 22.1 41.8 35.8 12.3 13.7 22.8 29 31.2 45.4 8.4 16.4 14.5 33.9 18.4 51.9 13 59-1 119-38 168q-4.4 5.5-9 10.7-4.6 5.2-9.5 10.3-4.9 5-10 9.7-5.2 4.8-10.5 9.3c-19.8 15.3-42.2 26.8-66.2 34.1-23.9 7.2-49 10-73.9 8.3-25-1.8-49.4-8-72.1-18.5-22.7-10.5-43.3-25-60.8-42.9-11.4-11.2-21.4-23.8-29.9-37.3-8.5-13.6-15.4-28-20.6-43.2-5.2-15.1-8.6-30.8-10.2-46.7-1.6-15.9-1.4-31.9 0.7-47.8 1.6-11.2 4.1-22.2 7.5-33 3.4-10.8 7.7-21.3 12.8-31.4 5.1-10.1 11-19.8 17.6-28.9 6.7-9.2 14.1-17.8 22.1-25.7 34-35 77-55 125-61zm-3 46q-5.1 0.6-10 2.1-5 1.5-9.6 3.8-4.6 2.3-8.7 5.3-4.1 3.1-7.7 6.8c-6 6-9 9-12 16q-1.7 3.2-2.9 6.6-1.3 3.4-2 7-0.8 3.5-1.1 7.2-0.2 3.6 0 7.2c0 6.8 1.1 13.5 3.3 20 2.1 6.4 5.4 12.4 9.5 17.8 4.1 5.4 9.1 10.1 14.8 13.9 5.6 3.7 11.8 6.5 18.4 8.3 7 1 23 2 27 0 2 0 2-1-3-3-14-8-26-27-30-46-1.1-6.5-1.3-13.2-0.4-19.7 0.9-6.6 2.8-12.9 5.7-18.9 2.8-6 6.6-11.5 11.1-16.3 4.6-4.8 9.8-8.9 15.6-12.1l8-4-5-1c-7-1-16-2-21-1zm32 15q-4.3 0.4-8.4 1.8-4.1 1.4-7.8 3.8-3.7 2.3-6.7 5.5-2.9 3.1-5.1 6.9c-13 19-9 50 8 68 6 7 12 10 20 13l6 1 6-4c4.9-3.5 9.3-7.7 13-12.5 3.7-4.8 6.7-10.2 8.8-15.8 2.1-5.7 3.4-11.7 3.8-17.7 0.3-6-0.2-12.1-1.6-18-3-9-8-20-15-27-6-7-5-6-21-5zm-714 45l-8 1-15 6c-8 3-11 6-17 12-7 7-9 10-13 18-7 15-8 16-8 58 1 40 1 42 7 56 2.8 5.6 6.3 10.7 10.5 15.3 4.2 4.7 9 8.7 14.2 12 5.3 3.3 11 5.9 16.9 7.8 6 1.8 12.2 2.8 18.4 2.9h7l-5-6q-4.6-5.8-8.7-12-4.1-6.2-7.6-12.8-3.5-6.5-6.4-13.3-3-6.8-5.3-13.9l-3-16c0-9 0-8-9-9-4-1-8-4-9-8-2-7 2-11 12-13h5v-5q0.7-4.9 2-9.8 1.2-4.8 3-9.5 1.8-4.6 4-9.1 2.3-4.4 5-8.6c7-10 23-31 29-37l6-7h-12l-14 1zm53 2q-2 0.7-3.9 1.6-2 0.9-3.9 1.9-1.8 1-3.7 2.1-1.8 1.2-3.5 2.4c-11 9-36 42-41 55q-0.7 2.2-1.4 4.4-0.6 2.2-1.1 4.5-0.5 2.2-0.9 4.5-0.3 2.3-0.6 4.6l-1 3h13l15 2c4 3 5 10 2 15-3 2-3 2-16 3h-15v3c0 23 27 67 48 77 5 2 6 2 30 3h24l1-2c2-5 6-10 8-10 2 0 4 2 5 7l1 5h19c16 0 20 0 21 2 1 1 2 1 8-3q4.2-2.9 8.2-6 4-3.1 7.9-6.3 3.9-3.3 7.6-6.7 3.7-3.4 7.3-7c8-10 18-40 18-53v-5h-10c-9 0-10 0-13-2-2-3-3-6-1-9 2-2 6-3 17-5l8-1-2-6c-4-19-15-41-26-54-8-9-14-13-30-22l-12-6h-23v8c-1 7-1 7-4 10-3 3-4 3-6 3-6-2-7-4-8-13v-8h-34l-9 3zm125-1c5 4 16 16 20 23q3.8 5.7 7.1 11.7 3.3 6.1 6 12.4 2.8 6.2 5 12.7 2.2 6.5 3.9 13.2l3 12h13c12 0 13 0 15 2 3 4 2 10-2 13-2 2-5 2-14 3h-11v7q-0.3 1.9-0.6 3.8-0.3 1.9-0.7 3.7-0.4 1.9-0.8 3.8-0.4 1.8-0.9 3.7-1.5 5.3-3.3 10.5-1.8 5.2-3.8 10.4-2 5.1-4.2 10.1-2.2 5.1-4.7 10c-4 8-21 25-36 35l-6 4 21 21 21 20v-58l7-1c5.9-1.5 11.5-3.7 16.8-6.6 5.3-3 10.2-6.6 14.6-10.8 4.3-4.2 8.1-8.9 11.3-14.1 3.1-5.1 5.6-10.7 7.3-16.5 2-7 3-8 3-45 0-42-1-43-8-58q-2.3-4.8-5.3-9.2-3-4.4-6.7-8.2-3.7-3.8-8-7-4.3-3.2-9-5.6c-13-6-17-7-36-8h-17zm489 70c-25 4-49 22-61 45-10 19-11 28-11 91l1 46 17 1h18v-8c2-10 2-23 3-58 0-30 2-45 6-60 5-22 16-37 33-47 6-4 18-9 23-10zm39 9c-28 6-50 24-56 47-5 14-5 21-5 64q0 5.8-0.2 11.5-0.1 5.8-0.3 11.5-0.3 5.8-0.7 11.5-0.3 5.8-0.8 11.5l-1 11v6h139v-54c0-58 0-61-5-74-6-17-18-32-33-42l-7-4-11-1zm-579 287.5c15.3 1.9 30.3 5.4 44.8 10.6 14.4 5.1 28.3 11.9 41.3 20.1 13 8.3 25 17.9 35.9 28.8 8.1 8 15.5 16.7 22.2 25.9 6.7 9.2 12.6 19 17.7 29.2 5.1 10.1 9.3 20.7 12.7 31.6 3.4 10.9 5.8 22 7.4 33.3q0.9 7.2 1.3 14.5 0.4 7.2 0.4 14.5 0 7.3-0.4 14.5-0.4 7.3-1.3 14.5c-3.4 22.8-10.5 44.8-21.1 65.2-10.6 20.5-24.5 39-41.1 54.9-16.7 16-35.8 29-56.7 38.7-20.9 9.7-43.2 15.8-66.1 18.2l-7 1-10-42c-10-43-11-47-15-55-2.1-3.8-4.6-7.4-7.4-10.7-2.8-3.3-6-6.3-9.4-8.9-3.4-2.7-7.1-5-11-6.9-3.9-1.9-8-3.4-12.2-4.5q-3.6-0.7-7.2-1.1-3.6-0.4-7.3-0.4-3.7 0-7.3 0.4-3.6 0.4-7.2 1.1c-5.6 1.5-10.9 3.7-15.9 6.6-5 2.9-9.6 6.4-13.6 10.5-4 4.2-7.5 8.8-10.3 13.8-2.8 5.1-4.9 10.5-6.2 16.1q-0.8 3.7-1.2 7.5-0.5 3.7-0.5 7.5 0 3.8 0.5 7.5 0.4 3.8 1.2 7.5l2 10c-19.1-13.9-35.8-31-49.1-50.5-13.3-19.6-23.2-41.3-29.2-64.2-6-22.9-7.9-46.6-5.8-70.2 2-23.6 8.2-46.6 18.1-68.1 31-67 96-114 168-122 15.3-1.5 30.7-1.4 46 0.5zm627.2 4.9c23 5.7 44.8 15.3 64.5 28.2 19.8 13 37.2 29.3 51.5 48.1 14.4 18.7 25.5 39.8 32.8 62.3 5.2 15.9 8.5 32.3 9.7 49 1.3 16.7 0.5 33.5-2.2 50-2.8 16.4-7.6 32.5-14.2 47.9-6.7 15.3-15.2 29.8-25.3 43.1-8 10-29 32-39 39l-7 5v-27l-1-28q-0.3 0.1-0.5 0.2-0.3 0.1-0.5 0.2-0.3 0.1-0.5 0.3-0.3 0.1-0.5 0.3c-4 1-7-3-11-11q-1.9-3.7-3.3-7.6-1.4-3.9-2.5-8-1-4-1.5-8.1-0.6-4.1-0.7-8.3c0-10 0-10-5-16-6-8-15-17-16-15q-1.7 3.1-3.4 6.2-1.6 3.1-3.3 6.2-1.6 3.1-3.2 6.3-1.6 3.1-3.1 6.3c-18 34-30 51-41 60-7 5-10 6-16 6-5 0-9-2-14-8-7-10-10-26-7-43q1.5-7.1 3.2-14.1 1.7-7.1 3.5-14.1 1.9-7 4-14 2-6.9 4.3-13.8c6-15 5-14 4-14q-1.5 1.6-3 3.3-1.4 1.7-2.8 3.5-1.4 1.7-2.7 3.5-1.3 1.8-2.5 3.7l-26 39c-30 41-37 48-50 47q-2.1-0.4-4-1.4-1.9-1-3.5-2.5-1.6-1.4-2.7-3.2-1.2-1.8-1.8-3.9c-3-8 0-22 10-49l2-7q-5.4 5-10.1 10.6-4.6 5.7-8.6 11.9-3.9 6.2-7 12.9-3.1 6.6-5.3 13.6c-5 15-6 24-6 51l-1 25c-1 0-18-14-27-23-8-7.9-15.4-16.5-22.1-25.7-6.6-9.1-12.5-18.8-17.6-28.9-5.1-10.1-9.4-20.6-12.8-31.4-3.4-10.8-5.9-21.8-7.5-33q-0.7-7-1.1-14-0.3-7-0.3-14 0-7 0.3-14 0.4-7 1.1-14c7-45 27-86 60-119q4.3-4.3 8.8-8.4 4.5-4 9.3-7.8 4.7-3.8 9.7-7.2 5-3.5 10.2-6.6 10-6.2 20.6-11.4 10.6-5.1 21.7-9 11.1-3.9 22.5-6.6 11.5-2.6 23.2-4c23.5-2.2 47.3-0.4 70.2 5.4zm-63.2 39.6c-10.2 1.8-20.1 5.5-29 10.9-8.8 5.4-16.7 12.4-23 20.7-6.3 8.3-11.1 17.6-14 27.6-2.9 10-3.9 20.4-3 30.8l4 18 3-4c18-29 69-90 79-97l10-5 4-1-4-1zm33 2c4 2 5 4 5 10 0 9-4 20-16 44l-26 54-19 39-3 7 5 2q2.5 1.2 5.1 2.3 2.5 1 5.2 1.9 2.6 0.9 5.3 1.6 2.7 0.7 5.4 1.2l3 1 27-41 33-50c7-10 20-25 25-26h3l-2-4q-3.5-6.6-8.1-12.6-4.5-5.9-10-11-5.5-5.2-11.8-9.3-6.2-4.1-13.1-7.1c-8-3-16-5-13-3zm-23 35l-12 15q-7.1 8.4-14 16.9-6.8 8.6-13.5 17.4-6.6 8.7-13 17.7-6.4 8.9-12.5 18c-2 3-2 3 0 7 2 5 14 17 15 16l24-48q3.8-8.1 7.7-16.3 3.8-8.1 7.7-16.2 3.9-8.2 7.8-16.3 3.9-8.1 7.8-16.2zm84 36l-9 15q-5.3 8.6-10.3 17.3-5 8.7-9.8 17.6-4.7 8.9-9.2 17.9-4.5 9-8.7 18.2c0 2 14-7 23-14q4.4-4.2 8.2-8.9 3.8-4.8 7-10 3.2-5.1 5.6-10.7 2.5-5.6 4.2-11.4c2-7 3-27 2-33l-1-4zm-792 50c-13.4 1.9-25.8 8.4-35 18.4-9.1 10-14.4 23-15 36.5-0.6 13.6 3.6 26.9 11.8 37.7 8.2 10.8 20 18.4 33.2 21.4 7 2 21 2 27 0 5.2-1.4 10.2-3.5 14.9-6.2 4.6-2.7 8.9-6 12.7-9.9 3.7-3.8 7-8.2 9.6-12.9 2.6-4.7 4.5-9.8 5.8-15q0.8-4 1.1-8 0.2-4.1 0-8.1-0.3-4.1-1.1-8.1-0.7-3.9-2-7.8c-2.3-6.2-5.6-12-9.9-17.1-4.2-5.1-9.3-9.5-15-12.9-5.6-3.4-11.9-5.9-18.3-7.3-6.5-1.3-13.2-1.6-19.8-0.7zm683 56l-17 6-9 3-4 9q-3.1 7-5.8 14.1-2.8 7.2-5.2 14.4-2.3 7.3-4.4 14.7-2 7.3-3.6 14.8 7.5-9.5 14.8-19.1 7.3-9.6 14.4-19.4 7.2-9.7 14.1-19.6 6.9-9.9 13.7-19.9l-9 2zm53 2q-2.7 7.4-5.2 14.9-2.5 7.4-4.9 14.9-2.3 7.5-4.6 15.1-2.2 7.5-4.3 15.1c-3 11-3 22 0 27 4 11 14 3 29-22l28-54-24-11c-12-4-13-4-14 0zm-600.2 247.9c15.2 1.9 30.2 5.6 44.5 10.9 14.4 5.2 28.2 12 41.1 20.3 12.9 8.3 24.8 18 35.6 28.9 8 7.9 15.4 16.5 22.1 25.7 6.6 9.1 12.5 18.8 17.6 28.9 5.1 10.1 9.4 20.6 12.8 31.4 3.4 10.8 5.9 21.8 7.5 33 2 15.9 2.3 31.9 0.6 47.8-1.6 15.9-5 31.6-10.2 46.7-5.2 15.1-12.1 29.6-20.6 43.2-8.4 13.5-18.5 26-29.8 37.3-19.2 19.4-42.1 34.8-67.4 45.3-25.2 10.5-52.3 16-79.6 16-27.3 0-54.4-5.5-79.6-16-25.3-10.5-48.2-25.9-67.4-45.3-81-81-82-209-2-292 8.5-8.8 17.7-16.9 27.6-24.1 9.9-7.1 20.3-13.5 31.3-18.8 11-5.4 22.4-9.8 34.2-13.1 11.7-3.4 23.7-5.7 35.9-7 15.3-1.4 30.6-1.1 45.8 0.9zm580.4-1.8q12.1 0.3 24 1.9 12 1.7 23.8 4.7 11.7 3 23 7.3 5.2 2.2 10.3 4.6 5.1 2.4 10.2 5 5 2.7 9.8 5.5 4.9 2.9 9.7 5.9c15.7 10.4 29.9 22.9 42.3 37.1 12.4 14.3 22.8 30.1 30.9 47.1 8.2 17 14 35 17.3 53.6 3.4 18.5 4.2 37.4 2.5 56.2-1.8 18.1-6 35.9-12.4 53-6.5 17-15.1 33.2-25.6 48-10.6 14.8-23 28.3-37 39.9-14 11.6-29.5 21.4-46 29.1-19.1 8.9-39.5 14.7-60.3 17.4-20.9 2.7-42.1 2.2-62.8-1.6-20.8-3.7-40.8-10.6-59.4-20.4-18.7-9.8-35.7-22.4-50.5-37.4-28-28-48-63-57-101q-2.6-11.6-3.8-23.4-1.3-11.7-1.3-23.6 0-11.9 1.3-23.6 1.2-11.8 3.8-23.4c5.1-21.1 13.4-41.2 24.6-59.8 11.2-18.6 25.2-35.3 41.4-49.6 16.3-14.4 34.7-26.1 54.5-34.8 19.9-8.8 40.9-14.4 62.5-16.8q12.1-1.1 24.2-0.9zm3.8 94.9c-2 5-6 7-9 3-2-2-3-2-5-1q-2.6 1.7-4.9 3.7-2.3 2-4.3 4.2-2 2.3-3.7 4.8-1.7 2.6-3.1 5.3l-2 6-2-4c-2-4-4-5-16-6-8-1-15 0-19 2l-3 2 2 4c3 6 0 13-6 10-3-1-3-1-4 2l-1 3-1 2h-5q-2.8-0.9-5.7-1.4-2.9-0.4-5.9-0.2-2.9 0.1-5.8 0.8-2.9 0.6-5.6 1.8-2.1 1.2-4 2.8-1.9 1.5-3.5 3.3-1.7 1.7-3 3.7-1.4 2-2.5 4.2c-5 13-9 77-6 96 2 12 5 17 11 20q1.7 0.8 3.6 1.3 1.9 0.5 3.8 0.6 1.9 0.1 3.8-0.1 2-0.2 3.8-0.8c5-1 6-9 7-60l1-33 3-2c6-2 7 3 5 36-1 30 0 47 3 53 3 6 5 7 16 7 10 0 10 0 13-3l4-9c2-6 2-11 2-49 1-47 1-49 6-49l2 1v53c-1 56-1 54 6 58 3 2 5 3 13 3 11 0 17-3 24-10l5-5v-12l1-24q0.2-4.1 0.4-8.2 0.2-4.2 0.3-8.3 0.1-4.1 0.2-8.2 0.1-4.2 0.1-8.3c1-26 3-33 8-31q0.3 6 0.5 12 0.2 6 0.2 12 0 6-0.2 12-0.2 6-0.5 12-0.3 7.1-0.4 14.2-0.2 7.2-0.2 14.3 0 7.1 0.2 14.3 0.1 7.1 0.4 14.2l7 6c5 2 7 3 16 3q1.9 0 3.8-0.1 1.9-0.2 3.8-0.4 1.8-0.3 3.7-0.6 1.9-0.4 3.7-0.9c9-3 14-10 18-24 2-7 2-10 2-36l1-31c2-4 4-1 6 8 3 11 3 47 1 58-4 15-8 23-17 30-5 4-9 5-19 6-7 0-8 0-26-6l-11-4-8 3c-8 3-9 4-20 4l-17-1c-5 0-6 0-9 2-4 3-7 8-7 12 0 5 3 7 15 11 13 3 27 8 38 14q4.7 2.8 9.8 4.6 5.2 1.8 10.6 2.6 5.4 0.8 10.9 0.5 5.4-0.3 10.7-1.7l19-9-2-4c-1-4-1-7 2-9 3-1 5 0 8 5 2 4 2 4 6 4 5-1 17-8 23-13 13-12 14-27 4-53l-5-16c-2-7-4-25-6-49-2-25-4-34-7-44q-1.5-3.9-3.5-7.6-2-3.6-4.4-7-2.4-3.4-5.2-6.5-2.8-3.2-5.9-5.9c-2-2-2-2-5 4q-0.8 1.2-1.6 2.4-0.8 1.2-1.7 2.3-0.8 1.1-1.8 2.2-0.9 1.1-1.9 2.1c-3 3-4 3-5 2-1-1 0-3 4-10 5-10 5-11-4-11-6 0-12 2-16 5l-3 2-5-5q-2-2-4.3-3.7-2.3-1.7-4.9-3-2.5-1.3-5.2-2.1-2.8-0.8-5.6-1.2c-4-1-5-1-6 1zm-720 15q-4.3 1.1-8.4 2.9-4.1 1.7-7.9 4-3.8 2.3-7.2 5.1-3.5 2.7-6.5 6-2 1.8-3.9 3.7-1.8 2-3.5 4.1-1.6 2.2-3 4.5-1.4 2.3-2.6 4.7c-7 14-7 17-8 50 0 31 1 46 4 56 1.7 5.1 4 10 6.9 14.6 2.8 4.5 6.1 8.8 9.9 12.6 3.8 3.8 8.1 7.1 12.6 9.9 4.6 2.9 9.5 5.2 14.6 6.9l8 3h153l29 29q3.5 3.6 7.1 7.1 3.6 3.6 7.2 7.1 3.6 3.5 7.3 6.9 3.7 3.5 7.4 6.9l1-29c0-28 0-29 2-29q3.2-0.6 6.2-1.5 3.1-0.9 6.2-2 3-1.2 5.9-2.5 2.9-1.4 5.7-3c8-4 18-15 23-23l7-14 2-8v-40c0-39 0-40-2-46-1.5-5.1-3.6-10-6.2-14.7-2.6-4.6-5.8-8.9-9.4-12.8-3.7-3.9-7.7-7.4-12.2-10.3-4.4-3-9.2-5.4-14.2-7.2l-9-4h-107c-103 0-108 0-115 2zm133 15q0.8 3.3 1.5 6.7 0.7 3.4 1.3 6.7 0.6 3.4 1.2 6.8 0.5 3.4 1 6.8l5 31c3 17-1 26-11 27-8 1-13-4-15-16-2-8-4-32-4-50-1-18 0-20 5-23 5-2 12-1 15 4zm74 16q0.7 1.6 1.3 3.2 0.6 1.5 1.1 3.2 0.5 1.6 0.9 3.3 0.4 1.6 0.7 3.3 0.3 1.6 0.7 3.3 0.4 1.6 0.7 3.2 0.4 1.6 0.8 3.3 0.4 1.6 0.8 3.2l11-7c13-10 15-12 19-10 2 1 5 7 4 10l-22 28c0 1 13 10 23 15l9 6c4 4 1 13-3 13-3 0-16-6-25-11l-7-4v13c0 12 0 13-2 15-4 4-8 5-12 1-3-2-4-4-5-11l-3-10-7 4c-12 9-18 11-25 7-4-3-5-6-5-12 0-4 0-5 3-7l5-2c4 0 13-6 19-13l3-3-5-3c-14-8-17-10-21-14-4-4-4-5-4-9 0-3 0-5 2-6l4-3q1.8 0.9 3.6 1.8 1.8 0.9 3.6 1.9 1.7 1 3.4 2.1 1.7 1.1 3.4 2.2l12 7v-13c0-11 0-13 2-15 3-2 7-3 9 0zm-170 4q3.1 0.1 6.1 0.5 3.1 0.4 6.1 1.1 3 0.6 6 1.4 2.9 0.9 5.8 2c3.5 2 6.8 4.4 9.9 7.1 3 2.7 5.7 5.7 8.1 8.9 2.4 3.3 4.5 6.8 6.2 10.5 1.6 3.7 2.9 7.5 3.8 11.5 6 24-3 52-21 60-4 2-5 2-9 1-5-1-9-5-12-10l-2-4-3 5c-3 5-9 10-14 11-10 2-22-9-26-24l-1-12c0-22 14-43 29-43 4 0 11 3 13 5 2 3 3 2 3-1 1-4 4-7 6-7l4 2c2 3 2 3 2 11l-2 11v17c-2 2-2 4-1 13 3 15 13 16 19 1 15-33-1-62-35-62q-5.8 0.3-11.4 1.6-5.7 1.2-11 3.4-5.4 2.2-10.3 5.2-4.9 3-9.3 6.8c-4.9 4.6-8.7 10.1-11.5 16.2-2.7 6.1-4.2 12.7-4.4 19.4-0.2 6.7 1 13.3 3.3 19.6 2.4 6.2 6 11.9 10.6 16.8q3.2 3.2 6.9 5.7 3.7 2.6 7.8 4.5 4.1 2 8.5 3.2 4.3 1.2 8.8 1.6c6 1 21-1 29-4 12-4 25-15 39-31l9-9c3 0 6 5 5 7-1 4-9 15-15 22-21 24-52 36-77 31-5.6-1.3-10.9-3.3-16-6-5-2.6-9.6-6-13.8-10-4.1-3.9-7.6-8.4-10.6-13.3-2.9-4.9-5.1-10.2-6.6-15.7q-1-4.9-1.4-10-0.5-5-0.4-10.1 0.2-5 0.9-10 0.7-5 1.9-9.9c8-28 28-45 58-51zm-11 45c-7 4-11 11-12 24-1 12 3 21 10 21 3 0 8-4 11-10 5-8 9-28 6-32-3-4-9-5-15-3zm124 57c0 10-6 17-15 17-8 0-13-6-13-15 0-8 3-14 9-17 10-4 19 3 19 15zm12 233q13.3 3.7 26 9 12.7 5.4 24.6 12.3 11.9 7 22.8 15.4 10.9 8.5 20.6 18.3c8.3 8.2 15.9 17 22.8 26.5 6.8 9.4 12.9 19.4 18 29.9 5.2 10.4 9.5 21.3 12.9 32.4 3.4 11.2 5.8 22.6 7.3 34.2 1.8 15.6 1.8 31.4 0 47-1.7 15.6-5.2 31-10.4 45.8-5.2 14.9-12 29.1-20.3 42.4-8.4 13.3-18.2 25.7-29.3 36.8-19.3 19.3-42.3 34.7-67.5 45.1-25.3 10.4-52.4 15.8-79.7 15.7-27.3-0.1-54.4-5.6-79.6-16.2-25.2-10.6-48-26.1-67.2-45.6-17.8-17.6-32.2-38.2-42.7-60.9-10.4-22.7-16.6-47.1-18.3-72-1.8-24.9 1-50 8.2-73.9 7.2-23.9 18.6-46.4 33.8-66.2q4.5-5.5 9.2-10.7 4.8-5.3 9.8-10.3 5-5 10.3-9.8 5.2-4.7 10.7-9.2c31-23 68-38 106-42 21-2 52 1 72 6zm561.7-6.4q13.4 0.7 26.5 3.1 13.2 2.4 25.9 6.5 12.8 4.1 24.9 9.8c24 12 39 23 58 42q6.2 6 11.8 12.6 5.7 6.6 10.7 13.6 5 7 9.4 14.5 4.4 7.5 8.1 15.3c15.3 32.3 22.2 68.1 19.8 103.8-2.3 35.7-13.7 70.2-33.2 100.3-19.4 30-46.2 54.6-77.8 71.4-31.6 16.8-67 25.2-102.8 24.5-26.7-1.4-52.8-7.8-77.1-18.9-24.3-11.1-46.2-26.6-64.7-45.9-18.5-19.2-33.2-41.8-43.4-66.4-10.1-24.7-15.5-51.1-15.8-77.8 0-40 9-73 30-108q5.2-8.2 11.1-15.9 5.9-7.7 12.4-14.9 6.5-7.1 13.7-13.7 7.1-6.6 14.8-12.5c33-25 72-40 111-43q13.3-1.1 26.7-0.4zm-625.7 31.4c-10.6 0.8-21.1 2.5-31.3 5.1-10.3 2.7-20.3 6.2-29.9 10.6-9.6 4.5-18.9 9.8-27.5 15.8-8.7 6.1-16.8 13-24.3 20.5-6.4 6.4-12.4 13.3-17.8 20.6-5.3 7.4-10.2 15.1-14.4 23.1-4.2 8-7.9 16.4-10.8 25-3 8.6-5.3 17.4-7 26.3q-1.5 8.9-2.1 18-0.6 9-0.3 18.1 0.2 9.1 1.3 18.1 1.2 8.9 3.1 17.8c3.2 12.6 7.7 24.9 13.5 36.6 5.8 11.7 12.9 22.7 21.1 32.8 8.1 10.2 17.4 19.4 27.5 27.6 10.2 8.2 21.2 15.2 32.9 21 42 21 95 24 140 7 10.6-4.2 20.8-9.3 30.5-15.4 9.7-6.1 18.7-13.1 27.1-20.8 8.4-7.8 16-16.3 22.8-25.5 6.7-9.2 12.7-19 17.6-29.3q4.2-8.7 7.5-17.9 3.2-9.2 5.3-18.6 2.2-9.5 3.2-19.1 1.1-9.7 1-19.4c0-49-18-92-52-127-6.6-6.6-13.6-12.7-21.2-18.3-7.5-5.5-15.5-10.4-23.8-14.6-8.3-4.2-16.9-7.8-25.8-10.7-8.9-2.8-18-5-27.2-6.4l-39-2zm34 45c0 3 1 4 2 4l7-2c11-3 18 0 24 11q0.8 1.3 1.8 2.5 0.9 1.2 2.1 2.2 1.1 1 2.4 1.8 1.3 0.9 2.7 1.5c25 15 47 41 57 69q1.9 5 3.3 10.2 1.4 5.2 2.3 10.5 0.9 5.2 1.2 10.6 0.4 5.3 0.2 10.7 0.2 7.8-0.7 15.6-0.8 7.8-2.7 15.4-1.9 7.6-4.8 14.9-2.9 7.3-6.8 14.1l-5 10-7-7-7-6v7q-0.5 7.1-2 14.1-1.5 7-3.9 13.7-2.4 6.7-5.7 13-3.3 6.4-7.4 12.2c-2.8 4.4-6 8.5-9.6 12.2-3.5 3.8-7.4 7.3-11.6 10.3-4.1 3.1-8.6 5.8-13.3 8-4.6 2.3-9.5 4.1-14.5 5.5-9 2-11 2-25 2q-5.2 0.1-10.4-0.2-5.2-0.3-10.4-1-5.1-0.8-10.2-2-5-1.2-10-2.8-5.6-1.7-10.8-4-5.3-2.4-10.3-5.4-4.9-3.1-9.4-6.7-4.5-3.7-8.5-7.9-2.9-3.3-5.4-7-2.5-3.6-4.5-7.5-2-3.9-3.5-8.1-1.6-4.1-2.6-8.4c-3-10-5-13-8-18q-4.6-6.2-8.4-12.8-3.9-6.7-6.9-13.8-3-7.1-5.2-14.4-2.2-7.4-3.5-15c-2-10-2-32 0-42q1.1-6.1 2.9-12.1 1.7-6 3.9-11.7 2.3-5.8 5.1-11.4 2.8-5.5 6.1-10.8l3-5 9 8c8 8 8 8 11 7q1.7-0.9 3.6-1.5 1.8-0.6 3.7-0.8 1.9-0.3 3.9-0.2 1.9 0.1 3.8 0.5l5 2v-23c0-22 0-23-2-25l-2-2 2-1c2-1 3-2 3-4q0.2-0.9 0.6-1.8 0.3-0.9 0.6-1.8 0.4-0.9 0.9-1.7 0.4-0.9 0.9-1.7 1.2-2.6 3.1-4.7 1.9-2.2 4.2-3.8 2.4-1.6 5.1-2.5 2.7-0.9 5.6-1c5 0 9 1 16 5l1-5c0.3-2.7 1.1-5.2 2.2-7.6 1.2-2.5 2.8-4.6 4.7-6.5 1.9-1.9 4-3.5 6.5-4.7 2.4-1.1 4.9-1.9 7.6-2.2 15-2 25 6 28 21zm-29-6q-1.2 0.6-2.3 1.4-1.1 0.9-2 1.9-0.9 1-1.6 2.2-0.7 1.2-1.1 2.5l-1 2h12l12-1-1-4c-3-5-10-8-15-5zm506 37c-19 1-23 2-29 5-11 6-19 27-22 55v84c4 40 14 56 35 59q29.2 1.2 58.5 1.8 29.2 0.6 58.5 0.6 29.3 0 58.5-0.6 29.3-0.6 58.5-1.8c19-3 28-17 34-53 3-21 2-88-1-105-3-10-8-25-11-30-3-6-9-11-15-13q-3-0.5-6-0.8-3-0.4-6-0.6-3-0.3-6-0.4-3-0.2-6-0.2zm-554 33q-0.3 5.1-0.4 10.3-0.1 5.1 0.1 10.2 0.1 5.2 0.4 10.3 0.4 5.1 0.9 10.2c0 5 0 6 9 14 8 9 9 9 12 8l3-1v-61l-12-12q-1.4-1.6-2.9-3.1-1.5-1.5-3-3-1.5-1.5-3-3-1.5-1.5-3.1-2.9zm37 36l1 24h8l14 1h6l-1-21-28-27zm535-20c5 1 6 4 13 17l6 13 7-14c6-12 7-14 10-16 7-2 13 2 13 9l-9 22-10 20 4 8 9 20c7 13 7 17 4 21-3 4-6 5-11 3-2-2-4-4-10-16l-7-14-6 13-9 15c-6 5-15 1-15-7q2.1-4.2 4.1-8.4 2-4.3 4-8.5 2-4.3 4-8.5 2-4.3 3.9-8.6l4-9-10-20-10-22q0.1-1.2 0.5-2.4 0.3-1.2 1-2.2 0.7-1.1 1.5-1.9 0.9-0.9 2-1.5c2-1 4-2 6-1zm81 16l7 13q1-1.7 1.9-3.4 0.9-1.7 1.8-3.5 0.9-1.7 1.7-3.5 0.8-1.8 1.6-3.6c8-15 10-17 17-15q6 1.5 6 9c0 2-3 10-9 22l-10 20q1.1 2.7 2.3 5.3 1.2 2.7 2.4 5.3 1.3 2.7 2.6 5.2 1.3 2.6 2.7 5.2c6 12 9 20 9 22q0 7.5-6 9c-7 2-9 0-16-15l-8-14q-1 1.7-1.9 3.4-0.9 1.7-1.8 3.5-0.9 1.7-1.7 3.5-0.8 1.8-1.6 3.6c-6 12-7 13-10 15h-7q-6-3-6-9 1-2.8 2.2-5.6 1.1-2.8 2.4-5.6 1.2-2.7 2.6-5.4 1.3-2.8 2.8-5.4l10-21-10-20-10-22c0-4 2-7 5-9 7-3 10 0 18 16zm55-17q0.5 0.1 1 0.2 0.5 0.1 1 0.2 0.5 0.1 1 0.3 0.5 0.1 1 0.3c3 2 4 3 10 16l7 14 6-13c8-16 10-19 16-18 4 1 8 5 8 9 0 1-4 12-10 23l-10 21 10 20c11 22 11 24 6 29-3 2-8 3-11 0q-1.4-1.7-2.6-3.5-1.3-1.8-2.4-3.7-1.1-1.9-2.1-3.8-1-2-1.9-4l-6-13-7 14c-6 13-7 14-10 16-5 1-8 1-11-3-3-4-2-8 4-22l10-20 3-7-9-20-10-23c0-3 3-8 6-8zm-726 12l6 6-1-4c-1-4-5-8-9-8-2 0-2 0 3 6zm93 34l6 1 5-1-5-5-6-5zm0 60l50 49 3-6c4-9 6-21 7-38v-15l-17-18-18-17-16-1-37-2-20-1 49 49zm-100 50q1.5 2.7 3.3 5.3 1.8 2.6 3.8 5 2 2.4 4.2 4.5 2.3 2.2 4.7 4.2 2.8 2.3 5.8 4.3 2.9 2 6.1 3.8 3.1 1.8 6.4 3.2 3.3 1.5 6.7 2.7c17 6 30 7 44 5l11-1q6.8-1.1 13.2-3.4 6.5-2.3 12.4-5.7 5.9-3.5 11-8 5.2-4.5 9.4-9.9l-7 3q-6.5 3.1-13.4 5.4-6.8 2.3-13.9 3.8-7.1 1.5-14.3 2.2-7.2 0.7-14.4 0.6c-26 0-50-7-72-23-7-5-8-5-7-2z"/>
	<path id="Layer" fill-rule="evenodd" class="s2" d="m215.3-943.4q11.2 0.3 22.3 1.8 11.1 1.6 22 4.2 10.9 2.7 21.4 6.4c114 44 168 173 117 282q-3.8 8.5-8.3 16.7-4.6 8.1-9.8 15.8-5.3 7.6-11.3 14.8-6 7.1-12.6 13.7-52.5 51-123 60c-15.5 1.7-31.2 1.7-46.8-0.1-15.5-1.7-30.8-5.2-45.5-10.4-14.8-5.2-28.9-12-42.2-20.3-13.2-8.4-25.4-18.1-36.5-29.2-19.5-19.2-35-42.1-45.6-67.3-10.6-25.2-16.1-52.3-16.1-79.7 0-27.4 5.5-54.5 16.1-79.7 10.6-25.2 26.1-48.1 45.6-67.3 8.6-8.8 18.1-16.7 28.1-23.8 10.1-7.1 20.7-13.3 31.9-18.5 11.2-5.2 22.8-9.4 34.7-12.5 11.9-3.2 24-5.2 36.3-6.2q11.2-0.8 22.3-0.4zm686.7 20.4c20.7 10 39.6 23.4 56 39.5 16.3 16.2 29.9 34.9 40.1 55.5 10.3 20.6 17.1 42.7 20.1 65.5 3 22.8 2.3 46-2.2 68.5-4.4 21.1-12 41.5-22.6 60.3-10.5 18.8-23.9 35.9-39.6 50.7-15.8 14.8-33.7 27-53.2 36.4-19.4 9.3-40.2 15.6-61.6 18.6-12 1-40 2-52 0q-13.7-1.7-27-5.2-13.4-3.5-26.2-8.7-12.8-5.2-24.8-12-12-6.8-23-15.1c-11-8-32-29-40-40-12.7-16.5-22.9-34.8-30.1-54.2-7.3-19.5-11.6-40-12.7-60.8-1.2-20.8 0.8-41.6 5.9-61.8 5-20.1 13.1-39.4 23.9-57.2 8.6-14.1 18.8-27 30.5-38.7 11.6-11.7 24.6-22 38.6-30.6 14-8.7 29-15.6 44.6-20.8 15.7-5.2 31.9-8.5 48.3-9.9 35-3 76 5 107 20zm-121 27c-7.1 1.6-13.9 4.5-20.1 8.4-6.1 4-11.5 8.9-16 14.7-4.4 5.8-7.8 12.4-10 19.3-2.2 7-3.2 14.3-2.9 21.6 0.5 6.6 2 13 4.4 19.1 2.5 6.1 5.9 11.8 10 16.9 4.2 5 9.2 9.4 14.7 13 5.5 3.6 11.6 6.3 17.9 8q3.3 0.7 6.7 1.1 3.4 0.4 6.8 0.5 3.4 0.2 6.7 0 3.4-0.2 6.8-0.6c2-1 1-2-4-5q-5.1-3.6-9.5-8-4.5-4.4-8-9.5-3.6-5.1-6.3-10.8-2.6-5.7-4.2-11.7-0.8-4.1-1.1-8.2-0.3-4.2-0.2-8.4 0.2-4.1 0.7-8.2 0.6-4.2 1.6-8.2c1.1-4.5 2.7-8.8 4.8-12.9 2-4.1 4.6-8 7.5-11.5 2.9-3.5 6.2-6.7 9.9-9.5 3.7-2.8 7.6-5.2 11.8-7.1l5-2-4-1q-3.6-0.8-7.2-1.2-3.6-0.5-7.3-0.6-3.6-0.1-7.2 0.1-3.7 0.2-7.3 0.7zm31 15c-13 4-23 15-28 29q-0.8 4.4-1.1 8.8-0.3 4.4 0 8.8 0.2 4.4 1 8.8 0.8 4.4 2.1 8.6c3 9 9 18 14 23 6 6 15 11 22 12 3 0 5 0 8-3 7-4 15-14 19-21q1.9-3.4 3.4-7 1.4-3.7 2.3-7.5 0.9-3.8 1.2-7.7 0.3-3.9 0.1-7.8 0-5.9-1.1-11.8-1.1-5.8-3.2-11.3-2.2-5.6-5.4-10.6-3.2-5-7.3-9.3l-4-4h-10zm-711 44c-4 0-15 4-20 7q-4.7 2.6-9 5.8-4.4 3.2-8.2 7-3.8 3.8-7 8.2-3.2 4.3-5.8 9c-6 13-7 19-7 57 0 40 1 44 8 58 2.7 5.4 6 10.3 10 14.8 3.9 4.5 8.5 8.5 13.5 11.8 4.9 3.3 10.3 5.9 16 7.9 5.6 1.9 11.5 3.1 17.5 3.5h9l-7-10c-17-23-27-46-29-66v-7l-6-1c-8-1-11-3-12-8-2-7 1-11 12-12 5-1 5-1 6-5 2-16 6-27 13-37q3.3-4.8 6.6-9.5 3.4-4.7 6.9-9.4 3.5-4.6 7.2-9.1 3.6-4.6 7.3-9l7-8h-13zm56 3c-9 3-11 4-18 11q-5.3 5.5-10.2 11.3-5 5.8-9.5 12-4.5 6.1-8.6 12.5-4.1 6.5-7.7 13.2-1.2 2.7-2.2 5.6-1 2.8-1.7 5.7-0.8 2.9-1.3 5.8-0.5 2.9-0.8 5.9l14 1c12 0 13 1 15 3 3 3 4 8 1 12-2 3-5 4-20 4h-10v4l2 11c3 18 23 49 39 61 9 7 13 8 38 8h22l4-6c3-6 6-8 8-6l3 6 2 6h18l21 1c2 1 3 1 7-2l31-25c5-5 9-14 13-28 5-13 8-30 6-32h-9c-11 0-14-1-15-5-2-6 2-9 17-11q1 0 2-0.1 1-0.1 2-0.2 1-0.1 2-0.3 1-0.2 2-0.4-1.5-8.6-4.2-16.9-2.7-8.3-6.5-16.2-3.8-7.9-8.6-15.1-4.9-7.3-10.7-13.8c-8-9-15-13-32-22-8-4-8-4-19-4h-12v6c0 11-5 17-12 14-5-2-6-4-6-13v-7h-18c-18 0-18 0-26 3zm129 0q2.9 2.4 5.5 5.1 2.7 2.6 5.1 5.5 2.3 2.9 4.5 6 2.1 3.1 3.9 6.4 3.6 5.4 6.8 11 3.1 5.7 5.8 11.6 2.6 5.9 4.7 12 2.1 6.1 3.7 12.4l3 13h8l12-1c4 0 5 0 7 2 3 4 3 8 1 12-2 3-8 5-20 5l-7 1q-0.5 5.7-1.5 11.3-1 5.6-2.3 11.1-1.4 5.5-3.2 10.9-1.8 5.4-4 10.7c-7 18-10 22-16 28q-3.9 4-8 7.8-4.1 3.8-8.4 7.4-4.2 3.7-8.6 7.1-4.4 3.4-9 6.7 5.1 5.4 10.2 10.7 5.2 5.4 10.5 10.6 5.2 5.3 10.6 10.5 5.3 5.1 10.7 10.2l1-29v-30l6-1 15-6c4.1-2 8-4.4 11.6-7.2 3.6-2.8 6.9-5.9 9.9-9.3 3-3.4 5.7-7.1 7.9-11.1 2.3-3.9 4.2-8.1 5.6-12.4l2-8v-40c0-39 0-40-2-46-1.4-4.5-3.2-8.9-5.5-13.1-2.3-4.1-5-8.1-8.1-11.7-3.1-3.6-6.5-6.8-10.3-9.7-3.8-2.9-7.8-5.4-12.1-7.5-11-5-19-7-37-7h-15zm493 67c-8.7 1-17.3 3.3-25.3 6.9-8.1 3.5-15.6 8.3-22.2 14-6.7 5.8-12.4 12.5-17.1 20-4.6 7.5-8.2 15.6-10.4 24.1-2 7-2 10-3 63v56h37v-12l2-41c0-54 3-71 13-91q2.3-5 5.4-9.6 3.1-4.5 7-8.5 3.8-3.9 8.2-7.2 4.5-3.2 9.4-5.7 2.5-1.3 5-2.5 2.6-1.2 5.2-2.2 2.7-1 5.4-1.8 2.7-0.8 5.4-1.5c2 0 2 0 1-1zm36 10c-25 3-49 20-57 39l-5 18c-2 10-2 13-2 52q0.1 6.1 0 12.3-0.1 6.1-0.3 12.2-0.3 6.2-0.7 12.3-0.4 6.1-1 12.2-0.3 1.5-0.5 3-0.2 1.5-0.3 3-0.1 1.5-0.2 3 0 1.5 0 3v4h140v-55c-1-60-1-60-6-75q-2.7-6.2-6.2-12-3.5-5.8-7.8-11-4.4-5.2-9.4-9.7-5-4.5-10.6-8.3c-6-3-7-3-18-4zm-557 293c15.2 3.9 30 9.5 44 16.7 14 7.2 27.2 15.9 39.2 26 12.1 10.1 23 21.5 32.6 34 9.5 12.5 17.6 26 24.2 40.3 8.5 18.6 14.3 38.4 17 58.7 2.7 20.3 2.4 40.9-1 61.1-3.4 20.2-9.7 39.8-18.9 58.2-9.1 18.3-21 35.2-35.1 50-8.8 9.5-18.5 18.1-29 25.8-10.4 7.6-21.6 14.3-33.3 19.8-11.7 5.6-23.9 10-36.4 13.3-12.6 3.2-25.4 5.3-38.3 6.1l-9-42c-11-46-12-48-16-56q-2.2-3.6-4.7-6.9-2.6-3.3-5.5-6.4-2.9-3-6.1-5.7-3.2-2.7-6.7-5c-42-24-94 5-94 54q0.1 3.2 0.3 6.3 0.3 3.2 0.8 6.3 0.5 3.2 1.3 6.3 0.7 3.1 1.6 6.1c0 2-1 2-6-3q-4.8-4-9.4-8.1-4.5-4.2-8.9-8.6-4.4-4.4-8.6-8.9-4.1-4.6-8.1-9.4-8.2-10.6-15-22.1-6.8-11.5-12.1-23.8-5.3-12.2-9.1-25.1-3.7-12.8-5.8-26c-2-15-2-45 0-59 1.6-11.1 4.2-22.1 7.6-32.8 3.4-10.7 7.7-21.1 12.8-31.1 5.1-10 10.9-19.6 17.6-28.7 6.6-9 14-17.5 22-25.4 35-36 82-57 130-61 21-1 46 1 66 6zm561.1-6.2q11.1 0.5 22.1 2.2 10.9 1.6 21.7 4.4 10.7 2.7 21.1 6.6c13.9 5.3 27.2 12 39.8 20.1 12.5 8 24.1 17.4 34.7 27.8 10.5 10.5 20 22.1 28.1 34.5 8.2 12.5 15 25.7 20.4 39.6 8 21.3 12.4 43.8 13 66.6 0.7 22.7-2.4 45.5-9.2 67.2-6.7 21.8-17 42.3-30.4 60.7-13.4 18.4-29.8 34.4-48.4 47.5l-1-25c0-27 0-29-3-28-4 1-10-7-14-20-3-7-5-27-4-29l-1-5-17-18-4-4-12 24q-3 6.2-6.2 12.2-3.2 6.1-6.7 11.9-3.5 5.9-7.3 11.6-3.8 5.8-7.8 11.3c-13 18-26 26-36 21-9-5-16-20-16-35 0-12 6-37 16-67 7-23 7-23-8-2-23 34-46 64-52 71-14 16-27 17-34 4-4-7-3-16 5-38l7-19c0-4-12 11-18 19q-5.6 8.6-9.8 18-4.2 9.4-6.9 19.3-2.6 10-3.7 20.2-1.1 10.2-0.6 20.5l-1 26-24-21c-8.6-8.4-16.5-17.5-23.5-27.3-7-9.7-13.2-20-18.5-30.8-5.3-10.8-9.6-22.1-13-33.6-3.3-11.5-5.7-23.4-7-35.3-2.7-27.8 0.1-55.8 8.4-82.5 8.3-26.6 21.8-51.4 39.8-72.7 18-21.4 40-38.9 64.9-51.6 24.9-12.6 52.1-20.2 79.9-22.2q11.1-0.7 22.1-0.2zm-17.1 44.2c-19 2-38 12-52 27-4.9 5.1-9.1 10.9-12.6 17.1-3.4 6.2-6 12.9-7.8 19.8-1.7 6.9-2.6 14-2.5 21.1 0.1 7.1 1 14.1 2.9 21l2 4 8-13c16-22 29-39 54-68 18-21 24-26 33-26 12 0 11 17-5 48l-25 51q-2.5 5.3-4.9 10.5-2.5 5.3-5 10.5-2.5 5.3-5 10.5-2.6 5.3-5.1 10.5c-7 14-7 13 0 16q2.8 1.2 5.6 2.3 2.8 1 5.7 1.9 2.9 0.9 5.8 1.6 2.9 0.7 5.9 1.2l54-80q1.9-3.1 3.8-6.1 1.9-3.1 3.9-6.1 2-3 4.1-5.9 2.1-3 4.2-5.9c6-7 12-12 15-12 2 0 3-1 3-2 0-2-8-13-13-20-3.4-4-7.3-7.7-11.4-11.1-4.2-3.3-8.6-6.2-13.3-8.7-4.7-2.5-9.6-4.5-14.7-6-5.1-1.6-10.3-2.6-15.6-3.2l-10-1zm-3 47q-5.9 7-11.7 14.1-5.8 7.2-11.4 14.4-5.6 7.3-11.1 14.7-5.5 7.3-10.8 14.8c-16 23-15 21-12 26q1.6 2.3 3.3 4.4 1.7 2.1 3.6 4.2 1.9 2 3.9 3.8 2 1.9 4.2 3.6l18-37q4.7-9.9 9.4-19.8 4.7-9.9 9.5-19.8 4.7-9.8 9.5-19.7 4.8-9.9 9.6-19.7l-13 16zm93 25l-10 17q-1.9 3.1-3.8 6.2-1.9 3.1-3.8 6.2-1.9 3.2-3.7 6.3-1.9 3.1-3.7 6.3l-24 47c7.7-3.1 14.9-7.4 21.4-12.6 6.4-5.2 12.1-11.4 16.7-18.4 4.6-6.9 8.1-14.5 10.5-22.4 2.4-8 3.5-16.3 3.4-24.6l-1-13c0-3-1-3-2 2zm-798 53q-4 1-7.8 2.5-3.7 1.6-7.3 3.6-3.5 2-6.8 4.5-3.2 2.5-6.1 5.4-4.1 4-7.4 8.7-3.2 4.7-5.4 10-2.2 5.3-3.3 10.9-1 5.7-0.9 11.4c0 16 5 28 17 40q1.6 1.9 3.5 3.6 1.8 1.8 3.8 3.3 2.1 1.5 4.2 2.8 2.2 1.3 4.5 2.3 3.5 1.8 7.1 3 3.7 1.3 7.5 2.1 3.8 0.7 7.7 1 3.8 0.2 7.7-0.1c13.9-0.5 27.2-5.9 37.4-15.4 10.2-9.4 16.7-22.2 18.3-36 1.5-13.8-1.9-27.7-9.7-39.2-7.9-11.5-19.6-19.8-33-23.4q-3.8-1-7.7-1.6-3.8-0.6-7.7-0.7-4-0.2-7.9 0.2-3.9 0.3-7.7 1.1zm688 55c-10 2-23 7-26 10-4 3-14 31-20 50-4 17-4 19 0 14q7.3-8.9 14.4-18 7.1-9.1 14-18.3 6.9-9.3 13.5-18.7 6.7-9.4 13.1-19c2-4 3-4-9-1zm54 0c-3 4-14 40-20 62-4 14-3 28 2 31 3 2 6 1 10-3 7-6 16-21 31-50 16-30 16-27 4-32-12-6-26-10-27-8zm-596.2 250.8c14.5 2.2 28.7 6 42.4 11.2 13.7 5.3 26.8 12 39 20.1 12.2 8 23.6 17.4 33.8 27.9 16.4 16.1 30.1 34.7 40.4 55.3 10.2 20.6 17 42.7 20 65.5 3 22.8 2.1 45.9-2.6 68.4-4.6 22.5-13 44.1-24.8 63.8-16 27-39 51-65 68-13 8.6-26.9 15.8-41.5 21.3-14.6 5.5-29.8 9.3-45.2 11.4-15.5 2-31.1 2.3-46.7 0.9-15.5-1.5-30.8-4.7-45.6-9.6-16.6-5.7-32.4-13.3-47.1-22.9-14.7-9.6-28.2-20.9-40.1-33.8-11.9-12.8-22.2-27.1-30.6-42.5-8.4-15.4-14.8-31.8-19.2-48.8q-2.4-9.8-4-19.7-1.5-10-2.1-20.1-0.7-10-0.4-20.1 0.3-10.1 1.5-20.1c7-44 27-84 59-116 8.8-9.1 18.5-17.3 28.8-24.7 10.4-7.3 21.4-13.6 32.9-18.9 11.5-5.3 23.5-9.5 35.8-12.6 12.3-3.1 24.9-5 37.5-5.8 14.6-1 29.3-0.4 43.8 1.8zm558.2-1.8q12.6-0.9 25.2-0.2 12.5 0.7 24.9 3 12.4 2.2 24.5 6.1 12 3.8 23.4 9.1c80 37 129 119 123 204-0.8 12.4-2.8 24.8-5.9 36.9-3 12.1-7.2 23.9-12.4 35.2-5.2 11.3-11.4 22.2-18.6 32.4-7.1 10.2-15.2 19.7-24.1 28.5-8.8 8.9-18.3 17-28.5 24.1-10.2 7.2-21.1 13.4-32.4 18.6-11.3 5.2-23.1 9.4-35.2 12.4-12.1 3.1-24.5 5.1-36.9 5.9-23 1.5-46.1-0.9-68.3-7-22.2-6-43.3-15.7-62.4-28.7-19-12.9-35.8-28.9-49.6-47.4-13.9-18.4-24.6-39-31.7-60.9-4.1-12.6-7-25.5-8.6-38.6-1.6-13.1-1.9-26.3-1-39.5 1-13.1 3.2-26.2 6.6-38.9 3.5-12.8 8.2-25.2 14-37 8-16.6 18.2-32.1 30.3-46 12.1-14 26-26.3 41.3-36.6 15.3-10.3 31.9-18.6 49.4-24.5 17.4-6 35.6-9.7 54-10.9zm20 95l-3 3c-2 1-5 0-6-3-1-1-1-1-6 2-6 4-10 8-14 16l-2 6-2-3c-2-5-5-6-16-7-11 0-16 0-19 3-3 2-3 2-2 5 2 3 2 7 0 10-2 2-4 3-6 0-2-1-2-1-3 1l-2 5-1 3-3-2c-8-4-21-1-30 6-8 6-11 17-13 51-2 33-1 59 3 68 1 1.9 2.4 3.6 4 5 1.6 1.4 3.4 2.6 5.4 3.4 2 0.8 4.1 1.2 6.3 1.4 2.1 0.1 4.2-0.2 6.3-0.8 3-1 4-2 5-6 2-5 3-23 4-57l1-31c1-2 4-3 6-1v50q-0.3 4.4-0.4 8.8 0 4.4 0.2 8.8 0.3 4.4 0.8 8.7 0.6 4.4 1.4 8.7l5 7c4 4 5 5 18 3 6 0 7-1 9-3 5-9 5-10 5-56l2-46c1-4 4-6 5-4l1 59-1 42c0 4 2 8 8 11 9 5 23 3 33-5l6-7c2-3 3-26 5-71 1-23 2-28 5-29 3-2 4 1 3 20q0 3.5-0.1 7-0.1 3.5-0.2 7-0.1 3.5-0.3 7-0.2 3.5-0.4 7l-2 32v22l3 4c5 5 9 7 23 7 11 0 13-1 17-3 7-3 11-9 14-20 3-8 3-10 4-39l1-32h1c5 0 8 35 6 55-4 32-16 47-39 47-7 0-9 0-18-3-18-7-17-7-25-4q-3.6 1.6-7.5 2.6-3.8 1.1-7.7 1.6-3.9 0.5-7.9 0.5-4-0.1-7.9-0.7c-11-1-13-1-17 3-5 4-7 13-4 17l11 4c13 3 24 7 39 14 7 3 15 7 19 7 11 3 22 2 37-5l8-4-2-4c-2-4-2-7 2-9 2-1 4 1 8 7 2 3 3 3 12-1 13-6 23-16 26-25v-22l-5-16-6-17-6-48q-0.2-5.8-0.7-11.6-0.5-5.8-1.4-11.6-0.9-5.8-2.1-11.5-1.2-5.7-2.8-11.3-1.3-2.9-2.9-5.7-1.5-2.7-3.3-5.4-1.7-2.6-3.7-5.1-1.9-2.5-4.1-4.8c-6-7-6-7-11 0-5 8-8 11-10 11-2-1-2-2 4-12l3-8-8-1c-7 0-13 2-17 5l-2 2-2-2c-5-8-14-13-23-14-5 0-5 0-6 3zm-711 12q-5.4 0.9-10.6 2.6-5.2 1.7-10 4.3-4.9 2.5-9.3 5.8-4.3 3.3-8.1 7.3-3.1 2.9-5.8 6.1-2.7 3.2-4.9 6.8-2.3 3.5-4.1 7.3-1.9 3.8-3.2 7.8c-2 8-2 8-3 43 0 41 0 46 8 61 4 8 6 11 13 18q3.1 3.3 6.7 6.1 3.6 2.9 7.5 5.2 3.9 2.2 8.2 3.9 4.2 1.7 8.6 2.8c8 2 12 2 82 2h74l29 29 30 29 1-29v-29l3-1c5.8-1.1 11.5-3 16.8-5.6 5.4-2.6 10.4-5.8 14.9-9.6 4.5-3.9 8.6-8.3 12-13.1 3.4-4.9 6.2-10.1 8.3-15.7l3-9 1-38c0-44 0-46-7-61-6-12-18-24-30-30-16-8-7-7-123-8zm123 14q1.9 9.1 3.7 18.2 1.8 9.1 3.4 18.2 1.7 9.1 3.1 18.3 1.5 9.1 2.8 18.3c0 5-3 10-7 13-7 4-15 1-18-7-3-9-6-34-6-58 0-16 0-19 5-22 4-1 10-1 13 1zm76 19l5 15 3 12 4-3c14-11 20-15 22-15 4 0 7 3 7 7 0 3-2 6-12 18l-11 13 8 6 17 10c9 5 11 7 9 13 0 2-1 4-3 4-3 1-8 0-24-10l-10-5 1 13c0 14 0 14-2 16-3 3-4 3-7 3-6-1-8-4-11-15l-2-9q-0.8 0.6-1.6 1.2-0.7 0.6-1.5 1.2-0.7 0.6-1.5 1.3-0.7 0.6-1.4 1.3c-13 10-21 11-27 5-3-2-3-4-4-8 0-7 1-10 7-11l7-2c3-1 16-13 16-14l-10-6-15-10c-4-5-5-6-5-10l2-6c2-4 6-3 18 5l12 7v-13c0-12 1-13 3-15 3-3 7-2 8 0zm-176.8 5.7q3.6-0.5 7.3-0.6 3.6-0.1 7.2 0.1 3.7 0.2 7.3 0.8c26 6 44 39 37 69-4 20-16 33-28 33-6 0-11-4-14-10-1-4-3-5-3-3 0 2-6 10-9 12-11 6-23 1-30-14-3-5-3-8-4-16-0.4-3.6-0.3-7.1 0.1-10.7 0.4-3.5 1.3-7 2.5-10.4 1.2-3.4 2.8-6.6 4.7-9.6 1.9-3 4.2-5.8 6.7-8.3 9-8 18-9 26-3l4 3 2-4q3-10.5 9-3c2 2 2 3 1 9l-1 11v18c-2 2-2 5-1 14 2 11 8 14 15 8 8-9 12-30 9-44-2-6-8-15-12-18-16-11-42-10-62 2-4.2 2.6-8 5.7-11.2 9.3-3.3 3.7-6.1 7.7-8.2 12.2-2.1 4.4-3.6 9.1-4.4 13.9-0.7 4.8-0.8 9.7-0.2 14.6 3 27 28 47 54 45 22-2 39-12 59-34 8-10 11-12 14-9 2 3 1 7-4 15-18 27-52 46-78 44-31-3-53-25-57-56-0.7-6-0.7-12.1 0-18.1 0.7-6 2.2-11.9 4.4-17.5 2.1-5.7 5-11 8.5-16 3.5-4.9 7.5-9.4 12.1-13.4 8-7 16-11 29-14q3.6-0.8 7.2-1.3zm-6.2 45.3c-6 4-9 11-10 21-1 14 3 22 9 22 5 0 10-4 13-10q1.2-3.1 2.2-6.3 1-3.2 1.7-6.5 0.8-3.2 1.3-6.6 0.5-3.3 0.8-6.6c0-5 0-6-3-8-5-3-10-3-15 1zm119 41c10 5 9 23-1 29-10 6-20-1-20-14 0-6 3-12 9-15 5-3 7-3 12 0zm-48.8 241.9q6.6-0.4 13.3-0.6 6.6-0.1 13.2 0.1 6.7 0.1 13.3 0.6c11.6 1.3 23 3.7 34.1 6.9 11.2 3.3 22.1 7.5 32.5 12.6 10.5 5.1 20.5 11.1 29.9 17.9 9.5 6.7 18.3 14.3 26.5 22.6q6.6 6.6 12.6 13.7 6 7.2 11.3 14.8 5.2 7.7 9.8 15.8 4.5 8.2 8.3 16.7c11.3 24.8 17.6 51.5 18.6 78.7 1 27.2-3.4 54.3-12.9 79.8-9.4 25.6-23.8 49-42.3 68.9-18.5 20-40.7 36.2-65.4 47.6-19.2 9-39.6 15.1-60.6 17.8-21 2.8-42.3 2.3-63.1-1.4-20.9-3.8-41-10.7-59.7-20.6-18.7-9.9-35.8-22.7-50.6-37.8-19.5-19.2-35-42.1-45.6-67.3-10.6-25.2-16.1-52.3-16.1-79.7 0-27.4 5.5-54.5 16.1-79.7 10.6-25.2 26.1-48.1 45.6-67.3 32-32 73-53 118-59q6.6-0.7 13.2-1.1zm606.1-0.5q6.6-0.2 13.2 0 6.7 0.1 13.3 0.5 6.6 0.4 13.2 1.1c19.2 2.7 37.9 8.1 55.7 16 17.7 7.8 34.3 18.1 49.2 30.5 15 12.4 28.1 26.8 39.1 42.7 11 16 19.8 33.4 26 51.8 25 74 5 156-51 212-12 12.2-25.5 22.8-40.1 31.6-14.6 8.8-30.3 15.8-46.7 20.8-16.3 4.9-33.2 7.8-50.3 8.6-17.1 0.8-34.2-0.6-50.9-4-19-4-37.4-10.6-54.6-19.6-17.3-9-33.2-20.4-47.3-33.7-14.2-13.4-26.4-28.6-36.4-45.3-10-16.7-17.6-34.6-22.7-53.4-4.5-17.5-6.7-35.4-6.6-53.5 0.2-18 2.7-36 7.5-53.3 4.8-17.4 11.9-34.1 21-49.7 9.1-15.5 20.3-29.8 33.1-42.5 34-33 76-54 122-60q6.6-0.4 13.3-0.6zm-617.3 31.6c-39 6-74 24-101 52-8 8.2-15.2 17.1-21.5 26.7-6.2 9.6-11.5 19.7-15.8 30.3-4.3 10.6-7.5 21.7-9.6 32.9-2.2 11.2-3.2 22.7-3.1 34.1 0 49 18 93 54 127 34 34 76 51 124 51 48 0 91-18 125-52 6.8-6.8 13.1-14.1 18.7-21.8 5.7-7.8 10.7-16 15-24.6 4.3-8.5 7.9-17.4 10.8-26.6 2.9-9.1 5.1-18.5 6.5-28 2-12 2-40 0-52-2.8-17.1-8.1-33.7-15.6-49.3-7.5-15.5-17.3-30-28.9-42.8-11.7-12.8-25.1-23.8-39.9-32.8-14.8-8.9-30.9-15.7-47.6-20.1q-8.6-2.2-17.3-3.5-8.7-1.4-17.5-1.9-8.8-0.5-17.6-0.1-8.9 0.3-17.6 1.5zm21 23q2.5-0.2 5.1-0.1 2.5 0.1 5 0.7 2.5 0.5 4.9 1.4c7 3 13 13 13 21 0 3 0 4 5 1 5-2 16-2 20 0 3 2 8 8 9 12 1 2 3 4 7 6 6.8 3.9 13.2 8.4 19.1 13.5 6 5 11.5 10.6 16.4 16.7 5 6 9.3 12.5 13.1 19.4 3.8 6.8 6.9 14 9.4 21.4 10 31 8 67-7 97-7 14-6 14-14 6l-7-7v7c0 12-4 29-10 42q-2.9 5.5-6.5 10.7-3.6 5.1-7.8 9.8-4.2 4.7-8.8 8.8-4.7 4.1-9.9 7.7c-8 5-24 11-36 13-8 1-32 0-43-3-22-5-40-15-51-28q-2.8-3.4-5.2-7.1-2.4-3.7-4.4-7.6-2-3.9-3.6-8-1.6-4.1-2.8-8.3c-2-8-3-12-6-16-7.7-10.2-13.8-21.5-18.2-33.5-4.4-12-6.9-24.7-7.5-37.4-0.6-12.8 0.7-25.6 3.8-38 3.2-12.4 8.2-24.2 14.9-35.1l3-5 8 8 8 7 4-1q2.2-0.8 4.4-1.2 2.2-0.5 4.5-0.6 2.3-0.2 4.6 0 2.3 0.3 4.5 0.8c2 1 2 0 2-22 0-20 0-23-2-24-1-2-1-2 1-4l3-7c3-10 11-15 22-15 6 0 7 0 11 2l4 3v-3c0-10 7-19 16-23q2.5-0.7 5-1zm-3 16c-3 1-6 6-6 9l3 1 12-1h9v-3l-4-5c-4-3-10-4-14-1zm551 35q-7.5 0-15 0.1-7.5 0.2-15 0.4-7.5 0.3-15 0.6-7.5 0.4-15 0.9c-15 2-23 11-29 32-5 17-6 27-6 67 0 40 0 48 5 68 5 22 12 30 26 34q30.8 1.8 61.7 2.7 30.9 0.8 61.8 0.7 30.9-0.1 61.8-1.2 30.9-1.1 61.7-3.2c10-4 15-11 20-25 6-18 7-28 8-65l-1-48c-2-24-8-44-17-53-6-7-11-9-30-10-21-1-93-2-163-1zm-597 28c-1 16-1 26 1 46v8l9 8 9 9 3-2 3-1v-38l1-23-26-25zm37 66h5l15 1h9l-1-20-14-14-14-15zm716-44c3 1 6 5 6 9q-1.1 2.8-2.3 5.6-1.1 2.8-2.4 5.5-1.2 2.8-2.6 5.5-1.3 2.7-2.7 5.4l-10 20 9 19 10 21c2 8-6 15-13 11l-9-15-7-15-7 13-8 15c-5 6-15 2-15-5q0.9-3 2-6 1.1-2.9 2.3-5.8 1.3-2.9 2.7-5.7 1.4-2.8 3-5.5l9-21-9-20c-11-21-12-25-7-29 3-3 9-3 12 0l8 15 7 13 7-14c5-10 8-15 10-16zm-178 1q1.3 1.7 2.6 3.5 1.2 1.9 2.3 3.7 1.2 1.9 2.2 3.9 1 1.9 1.9 3.9l7 14 7-13 8-15c3-3 9-3 13 0 4 5 3 8-7 29l-10 20q1.1 2.7 2.3 5.3 1.2 2.7 2.4 5.3 1.3 2.7 2.6 5.2 1.3 2.6 2.7 5.2c10 21 11 24 7 28-3 3-9 4-12 2l-9-16-7-14-7 15q-0.9 2-1.9 3.9-1 2-2.2 3.9-1.1 1.8-2.3 3.7-1.3 1.8-2.6 3.5c-3 2-8 1-11-2-4-4-3-7 7-29l10-20-10-20c-10-21-11-24-7-29 3-2 8-3 11-1zm64-1c6 0 8 2 15 17l6 13 7-13c7-15 9-17 14-17 5 0 9 4 9 8 0 1-4 12-10 23l-10 20 10 21c6 11 10 22 10 23 0 4-4 8-9 8-5 0-7-3-14-18l-7-12-6 13c-8 14-10 17-14 17l-5-1c-2 0-5-5-5-8l10-22 9-21q-1-2.7-2.1-5.3-1.1-2.7-2.2-5.3-1.1-2.6-2.3-5.2-1.2-2.6-2.4-5.2l-10-21c0-3 2-6 4-8zm-658 12c7 6 8 7 6 1-1-5-5-8-9-8h-3zm94 28l-1 5 7 1 6 1-12-12-1 5zm49 114c2 0 6-10 8-19 2-6 2-14 3-24l1-16-36-35-8-1q-6.6-0.6-13.2-1.1-6.6-0.6-13.3-0.9-6.6-0.4-13.2-0.6-6.7-0.3-13.3-0.4h-13zm-150-1q1.2 2.5 2.6 5 1.4 2.4 3 4.6 1.7 2.3 3.5 4.4 1.9 2.1 3.9 4c18 18 57 28 78 21l7-1c3 2 21-5 29-11q2.4-1.7 4.6-3.6 2.3-1.8 4.4-3.9 2.1-2 4.1-4.1 2-2.1 3.9-4.4l-6 3c-16 8-33 12-52 13-27 1-53-6-75-21l-10-6z"/>
	<path id="Layer" fill-rule="evenodd" class="s3" d="m817-895l14-1q4.1-0.3 8.2 0.1 4.1 0.4 8.1 1.6 4 1.1 7.7 3 3.7 1.8 7 4.3c16 11 28 28 31 45 0.7 5 0.7 10.1 0.2 15.2-0.5 5-1.7 10-3.4 14.8-1.8 4.7-4.1 9.3-6.9 13.5-2.8 4.2-6.1 8.1-9.9 11.5-10 9-26 16-37 16-5 0-3 1 6 2 5.1 0.5 10.2 1.4 15.1 2.9 4.9 1.5 9.7 3.4 14.2 5.8 4.5 2.4 8.8 5.2 12.8 8.5 4 3.2 7.6 6.8 10.9 10.8 6 8 14 24 17 34 5 20 8 57 7 82q-0.2 3.6-0.3 7.2 0 3.7 0 7.3 0 3.6 0 7.3 0.1 3.6 0.3 7.2l-1 13c-2 3-5 3-8 1-3-2-4-14-3-37 2-61-2-89-16-108-14-20-37-31-64-31q-6-0.1-11.9 0.7-5.9 0.8-11.6 2.4-5.7 1.7-11.1 4.2-5.4 2.4-10.4 5.7c-17 11-24 23-29 44-2 9-2 14-2 51q0.3 8.1 0.3 16.3-0.1 8.1-0.4 16.3-0.4 8.1-1.1 16.2-0.8 8.1-1.8 16.2c0 4 0 5-2 7h-5c-3-2-4-3-3-14l2-50c1-52 3-65 13-85 4-8 6-11 13-18q1.8-2 3.8-3.8 2-1.8 4.1-3.4 2.2-1.7 4.4-3.1 2.3-1.5 4.7-2.7 4.1-2 8.4-3.7 4.3-1.7 8.7-3.1 4.4-1.4 8.9-2.4 4.5-1.1 9-1.8l9-1q-4.5-0.5-8.8-1.7-4.4-1.2-8.5-3.1-4-1.9-7.8-4.5-3.7-2.6-6.9-5.7c-5.4-4.9-9.9-10.7-13.4-17.1-3.6-6.3-6-13.2-7.4-20.4-1.3-7.2-1.5-14.5-0.5-21.7 1-7.2 3.1-14.3 6.3-20.8 1.9-3.7 4.1-7.2 6.8-10.5 2.6-3.2 5.6-6.2 8.9-8.7 3.2-2.6 6.8-4.8 10.5-6.6 3.8-1.9 7.7-3.3 11.8-4.2m-600 25v6l5 1q4.7 1.1 9.3 2.4 4.6 1.4 9.1 3 4.5 1.6 8.9 3.5 4.4 1.9 8.7 4.1l11 7c27 13 46 40 55 80l4 13 13-1c11 0 13 0 14 2 4 4 3 11-3 14l-13 1h-10l-1 5c-2 18-4 25-11 43-8 21-11 24-29 40-24 19-40 27-64 32l-9 1v11c-1 10-1 10-4 13-1 2-4 3-6 4-4 0-4 0-8-3l-3-4v-25l-11-1-48-14c-12-7-30-29-42-53-7-15-11-26-12-39v-7h-6c-7-1-11-3-12-8-2-7 3-12 12-12 4 0 6-2 6-8q1-6.5 2.9-12.8 2-6.3 4.8-12.3 2.7-5.9 6.4-11.4 3.6-5.6 7.9-10.5c23-31 31-38 49-45l18-8c10-5 18-7 24-8h5l1-5c0-11 2-18 5-20 7-5 9-1 12 22zm592-11q-4.5 1.9-8.5 4.7-4 2.8-7.2 6.4-3.3 3.7-5.6 7.9-2.4 4.3-3.7 9-0.9 3.8-1.4 7.7-0.4 3.9-0.4 7.8 0 3.9 0.4 7.8 0.5 3.9 1.4 7.7c0.9 3.8 2.1 7.4 3.7 11 1.6 3.5 3.6 6.8 5.9 9.9 2.4 3.1 5 5.9 7.9 8.5 2.9 2.5 6.1 4.7 9.5 6.6 6 3 7 4 18 4 14 0 21-3 32-10 3.2-2.1 6.1-4.5 8.6-7.2 2.6-2.8 4.8-5.9 6.7-9.2 1.8-3.3 3.2-6.8 4.2-10.4 0.9-3.7 1.4-7.4 1.5-11.2 1-15-4-26-16-38q-2.9-2.6-6-4.8-3.2-2.2-6.6-3.9-3.4-1.8-7-3.1-3.6-1.4-7.4-2.2-3.7-0.6-7.5-0.8-3.8-0.3-7.5-0.1-3.8 0.1-7.6 0.6-3.7 0.5-7.4 1.3zm-624 38q-3 0.4-5.9 0.9-2.9 0.6-5.8 1.3-2.9 0.8-5.7 1.7-2.8 1-5.6 2.1c-17 6-23 11-39 31-17 20-25 35-27 50v5h4l13 1c9 0 12 1 14 5 1 4 0 10-3 12l-15 2h-13v5c0 22 26 64 46 74l15 5q4.7 1.4 9.4 2.7 4.7 1.3 9.5 2.4 4.7 1.1 9.5 2.1 4.8 1 9.6 1.8l1-4c1-5 7-17 10-17h3c1 0 5 11 6 20v6l6-1c11-1 31-9 41-15q3.7-2.6 7.3-5.3 3.6-2.8 7.1-5.7 3.6-2.8 6.9-5.8 3.4-3.1 6.7-6.2c6-7 9-13 14-28 4-12 7-24 7-30v-4h-11c-11 0-12 0-13-2q-0.3-0.6-0.5-1.2-0.2-0.6-0.3-1.2-0.1-0.7-0.2-1.3 0-0.7 0-1.3c1-3 1-4 6-5l12-3 7-1-1-3q-1-4.7-2.3-9.3-1.3-4.6-2.9-9.2-1.7-4.5-3.6-8.9-1.9-4.4-4.2-8.6c-6-13-17-26-25-32q-5.5-3.7-11.3-7.1-5.8-3.3-11.8-6.2-6.1-2.9-12.3-5.3-6.2-2.4-12.6-4.4l-6-1v12c0 9-3 15-9 15q-9 0-9-12c0-8-1-15-2-15zm647 423c5 6 2 18-16 55q-7.1 15.3-14.3 30.6-7.2 15.3-14.5 30.5-7.2 15.3-14.5 30.5-7.3 15.2-14.7 30.4-4 8.7-7.6 17.6-3.6 8.9-6.8 17.9-3.3 9-6.2 18.1-2.9 9.2-5.4 18.4v3l3-4 13-16q2.4-2.9 4.9-5.9 2.4-3 4.7-6 2.4-3 4.8-6 2.3-3 4.6-6.1l25-37q8.6-12.4 17-24.8 8.5-12.5 16.9-25 8.3-12.5 16.6-25 8.3-12.6 16.5-25.2c15-23 28-32 33-23 4 6 1 17-11 35q-5.9 9.3-11.4 18.9-5.5 9.5-10.6 19.3-5.2 9.8-9.9 19.7-4.8 10-9.1 20.1l-5 12q-3.2 8.5-6.2 17-3 8.6-5.8 17.2-2.8 8.6-5.3 17.3-2.5 8.7-4.7 17.5c-2 15 0 25 7 26 3 0 4-1 9-6q5.8-9.3 11.5-18.7 5.6-9.4 11.1-18.9 5.6-9.5 10.9-19.1 5.3-9.6 10.5-19.3 3.7-6.8 7.5-13.5 3.8-6.8 7.8-13.4 4-6.6 8.2-13.2 4.2-6.5 8.5-12.9c13-18 21-28 27-30 7-3 12 0 13 9 1 7 1 12-6 42-12 49-12 52-12 71 0 17 0 17 3 26 5 14 4 21-3 22-3 1-7-3-11-12q-1.8-4.1-3.2-8.4-1.4-4.3-2.3-8.7-0.9-4.4-1.2-8.9-0.4-4.5-0.3-9c0-14 0-20 3-35q1.5-6.7 3-13.3 1.6-6.7 3.2-13.3 1.6-6.6 3.3-13.2 1.7-6.6 3.5-13.2c1-3-17 24-25 38q-3.3 5.5-6.5 11.1-3.3 5.6-6.4 11.2-3.1 5.6-6.1 11.3-3.1 5.7-6 11.4-1.9 3.8-3.9 7.6-1.9 3.7-3.9 7.5-2 3.7-4.1 7.5-2 3.7-4.1 7.4c-15 25-30 40-41 40-15 0-25-22-22-46q2-10.1 4.4-20 2.4-10 5.1-19.9 2.8-9.9 5.9-19.7 3.1-9.7 6.6-19.4l-1 1q-1.6 2-3.1 3.9-1.5 2-3 4-1.5 2-3 4-1.5 2.1-2.9 4.1c-26 37-49 69-56 76-9 9-15 12-21 11-10-2-15-12-12-28 2-8 13-41 20-57l21-45q2.8-5.7 5.6-11.5 2.8-5.7 5.5-11.4 2.8-5.8 5.5-11.6 2.7-5.7 5.4-11.5 3.3-7.1 6.7-14.3 3.4-7.1 6.7-14.2 3.4-7.2 6.8-14.3 3.4-7.1 6.8-14.2c7-13 7-13 3-9l-36 43q-4.8 6.3-9.5 12.7-4.6 6.4-9.1 12.9-4.5 6.5-8.9 13.1-4.3 6.6-8.5 13.3c-43 67-51 76-64 76-4 0-5 0-8-4-8-8-7-22 3-53q4.4-12.8 9.7-25.2 5.2-12.5 11.4-24.5 6.1-12.1 13.1-23.7 7-11.5 14.8-22.6c2-2 4 0 5 3 1 2 0 5-7 17-22 39-36 78-40 105-1 10-1 12 1 11 3-1 16-20 35-48 30-46 46-68 71-98 20-24 29-33 35-36q10.5-6 15 0zm-542 13q3.7 1 7.3 2.2 3.6 1.3 7.1 2.8 3.6 1.5 7 3.2 3.3 1.8 6.6 3.8c7 6 22 24 26 32 7 15 5 37-5 58-1.9 3.6-4.3 7-6.9 10.1-2.7 3.2-5.7 6-9 8.5-3.2 2.5-6.8 4.6-10.5 6.4-3.7 1.7-7.6 3.1-11.6 4q-4.9 1.1-10 1.5-5 0.5-10.1 0.4-5-0.2-10-0.9-5-0.7-9.9-2c-22-7-38-21-45-41-2-8-2-10-2-22 0-16 2-25 8-36 6-13 25-30 35-32 7-1 28-1 33 1zm-25 13l-9 3c-6 0-10 2-17 10q-3.8 4.1-6.7 8.9-2.9 4.8-4.9 10.1-1.9 5.3-2.8 10.8-0.8 5.6-0.6 11.2c0 11 2 17 6 26 6 11 21 23 35 26q4.3 0.8 8.7 1.1 4.4 0.3 8.9 0.2 4.4-0.2 8.7-0.7 4.4-0.6 8.7-1.6c11-3 16-5 23-12l9-14c10-25 7-43-9-60q-12-12-27-18-3.7-1.4-7.6-2.2-3.9-0.7-7.8-0.9-4-0.1-7.9 0.4-3.9 0.5-7.7 1.7zm-82 64c12 1 15 2 18 5 2 2 2 6 0 6-3 2-38 1-42 0-9-3-7-12 2-13 4-1 6-1 22 2zm28 27c4 0 5 7 1 10l-12 8-18 6c-8 0-10-1-10-5 0-4 3-6 12-9l16-6zm126.5 25.1q3.8-0.2 7.5-0.1 3.8 0.1 7.6 0.6 3.7 0.5 7.4 1.4 4.1 1.8 8 3.9 3.8 2.1 7.5 4.7 3.6 2.5 7 5.4 3.4 2.8 6.5 6 2.4 2.2 4.6 4.6 2.2 2.4 4.1 5.1 1.9 2.6 3.5 5.5 1.5 2.8 2.8 5.8l7 16-4 10-5 8-2-6c-15-34-24-46-40-54-5-2-8-3-16-3-6.8-0.5-13.6 0.3-20.2 2.2-6.5 1.8-12.7 4.8-18.2 8.8-5.5 4-10.3 8.9-14.2 14.5-3.8 5.7-6.7 11.9-8.4 18.5q-1.3 8.7-1.9 17.5-0.5 8.7-0.4 17.5 0.1 8.8 0.9 17.6 0.9 8.7 2.4 17.4c3 24 4 33 9 51l4 16c0 2-5 4-9 4-1 0-9-26-13-45-4-22-5-33-5-61 0-29 0-35 6-50q13.5-33 54-42 3.7-0.6 7.5-0.9zm-107.5 3.9c3 1 3 6 0 9l-9 15c-7 14-9 17-14 15l-2-3c-3-6 10-30 18-35 4-2 5-2 7-1zm576 304c3-3 6-2 7 0l4 20c4 21 4 38 1 46-1 4-2 5-5 5-5 1-6-1-6-31l-2-33c0-4 0-6 2-7zm108 32c1 3 0 4-12 20q-2.5 3.2-4.9 6.4-2.4 3.2-4.8 6.5-2.3 3.2-4.7 6.5-2.3 3.3-4.6 6.6c-8 13-12 17-14 17-2 0-1-2 6-16q2.7-5.6 5.8-11.1 3.1-5.4 6.5-10.7 3.4-5.3 7-10.3 3.7-5.1 7.7-9.9c8-9 11-10 12-5zm-203 10l7 8c8 13 12 18 20 27 11 13 13 19 9 23-2 2-3 2-6 0-6-4-33-44-35-51l2-5zm-480 56l11 68c0 5-3 11-6 13-9 6-16 2-20-10-2-7-4-29-5-49 0-20 0-20 2-23q0.4-0.6 0.8-1.1 0.5-0.6 1-1.1 0.5-0.5 1.1-1 0.5-0.4 1.1-0.8c6-2 12 0 14 5zm70 13c4 0 5 3 8 16l4 13q0.9-0.5 1.8-1.1 0.9-0.6 1.8-1.2 0.9-0.7 1.7-1.3 0.9-0.7 1.7-1.4c16-14 19-15 24-11 4 4 3 7-9 22l-12 14q3 2.1 6.1 4.2 3.1 2.1 6.2 4.1 3.1 2 6.3 3.9 3.2 2 6.4 3.8c8 4 10 7 10 11 0 2-4 7-6 7l-27-13-5-3 1 11v14c-2 7-10 9-14 5-2-2-3-6-5-12l-3-10-8 5c-12 10-20 11-25 5-4-4-4-7-4-12 1-4 3-6 8-6q7.5-1.5 18-12c5-6 6-5-7-12-17-9-23-19-16-25 2-3 5-2 17 5l12 7v-13c0-12 1-13 3-15zm-177 9q4.5-1.1 9.1-1.5 4.6-0.4 9.1 0 4.6 0.4 9.1 1.5 4.5 1.2 8.7 3c22 11 34 42 27 69-8 27-31 38-41 20q-0.3-0.7-0.6-1.3-0.3-0.7-0.7-1.3-0.4-0.6-0.8-1.2-0.4-0.6-0.9-1.2l-2 3c-2 4-9 11-14 12h-7c-8-2-13-7-17-17-11-23 4-60 25-60q1.9 0 3.8 0.3 1.8 0.3 3.6 1 1.8 0.6 3.5 1.6 1.6 0.9 3.1 2.1c1 2 2 2 3-3 2-5 4-7 7-5 3 2 4 5 3 14-2 11-2 16-1 20 1 3 0 4-1 6-2 2-1 14 2 20 3 7 10 7 15-1 5-8 7-16 7-29 0-10 0-12-2-17-7-14-19-21-37-21q-6.2-0.1-12.3 0.9-6.1 1-11.9 3.2-5.7 2.2-11 5.4-5.3 3.3-9.8 7.5c-4.8 4.7-8.5 10.4-11.1 16.6-2.5 6.2-3.8 12.9-3.7 19.6 0.1 6.7 1.5 13.4 4.3 19.5 2.7 6.2 6.6 11.7 11.5 16.3 15 16 38 20 61 11 13-5 24-15 38-31 7-8 10-10 13-7 3 4-2 14-15 27q-3.3 3.6-6.9 6.9-3.6 3.2-7.5 6.1-3.9 2.9-8 5.4-4.2 2.5-8.6 4.6-3.7 1.9-7.6 3.4-3.9 1.5-7.9 2.5-4.1 1-8.2 1.5-4.1 0.6-8.3 0.6c-6.9 0.1-13.7-1-20.2-3.2-6.5-2.2-12.6-5.5-18-9.8-5.5-4.2-10.1-9.3-13.8-15.1-3.7-5.8-6.4-12.2-8-18.9q-0.8-4.5-1.2-9-0.4-4.5-0.2-9.1 0.1-4.5 0.7-9 0.6-4.5 1.7-8.9c7-28 26-45 55-52zm848 4c4 0 6 5 2 8-3 3-49 21-52 21-2 0-4-4-3-6 0-2 1-2 35-16zm-334 17l20 5q1.7 0.3 3.3 0.7 1.7 0.5 3.3 1 1.6 0.5 3.2 1 1.6 0.6 3.2 1.3v8c0 1-1 3-3 3-6 2-38-8-44-14-2-2-2-6 1-8 2-2 2-1 13 2zm-516 23c-7 4-10 12-10 24 0 13 3 19 9 19 10 0 17-13 20-35 0-6 0-6-3-8q-1.7-1.3-3.7-2.1-2-0.8-4.1-0.9-2.2-0.1-4.3 0.4-2.1 0.5-3.9 1.6zm125 48c4 11-2 23-13 24-11 1-17-12-12-24 2-4 6-7 11-8 7-1 11 1 14 8zm699 1l22 5 15 5c2 2 1 6-1 8-2 2-2 2-14 0l-34-10c-3-1-4-4-3-7 2-4 4-4 15-1zm-259 17c2 0 5 4 5 6l-1 3c-2 3-33 15-38 15-2 0-4-3-4-6 1-2 4-4 19-10zm51 45c2 4 2 3-16 27-19 25-25 31-29 30-3-1-4-5-4-8q1.2-1.9 2.5-3.7 1.2-1.8 2.6-3.6 1.4-1.7 2.9-3.4 1.4-1.7 3-3.3l21-24c12-14 14-15 17-11zm154 9l14 20 11 17v6l-4 3c-4 1-10-6-19-22-14-25-17-31-14-34 3-2 5-1 12 10zm-94 5c2 1 3 1 3 8q-0.5 8.2-1.3 16.4-0.8 8.1-1.9 16.3-1.1 8.1-2.6 16.2-1.4 8.1-3.2 16.1c-2 2-5 1-6-2-2-3-1-20 0-28l9-41c0-2 1-2 3-2zm-575 219c3 3 7 13 7 17 0 4 0 4 4 1l10-2c10 0 13 2 18 9q1.4 2.2 2.5 4.6 1.1 2.4 1.9 5 0.8 2.5 1.2 5.1 0.4 2.7 0.4 5.3v8h6c2.6 0.1 5.2 0.5 7.7 1.3 2.4 0.8 4.8 1.9 7 3.3 2.2 1.4 4.2 3.1 5.9 5 1.8 1.9 3.2 4.1 4.4 6.4 3 8 4 18 4 72-1 65-2 76-6 93-6 23-25 48-44 57q-3.7 1.8-7.5 3.3-3.8 1.5-7.7 2.7-3.9 1.3-7.8 2.3-4 1-8 1.7-5 0.2-10.1 0.2-5-0.1-10-0.5-5-0.3-10-1-5-0.7-9.9-1.7c-33-7-55-23-64-45-4-7-11-32-12-40q-0.7-12.7-1-25.5-0.3-12.7-0.3-25.5 0-12.8 0.3-25.5 0.3-12.8 1-25.5c4-17 14-26 27-25l7 1c2 1 2 0 2-19 0-26 1-32 2-37 4-14 21-21 32-13l4 2q0.2-0.6 0.4-1.2 0.1-0.6 0.2-1.3 0.2-0.6 0.3-1.2 0-0.7 0.1-1.3c0.2-2.5 0.8-4.9 1.8-7.1 1-2.3 2.3-4.4 3.9-6.3 1.6-1.8 3.5-3.4 5.5-4.7 2.1-1.3 4.4-2.3 6.8-2.9 8-2 19 0 24 6zm-24 8q-0.6 0.4-1.1 0.9-0.6 0.4-1.1 0.9-0.5 0.5-0.9 1.1-0.5 0.5-0.9 1.1c-2 3-3 5-3 25l-1 29-1 39-1 33 15 1h14q0.1-15.9 0-31.8-0.1-15.8-0.4-31.7-0.2-15.9-0.6-31.8-0.4-15.8-1-31.7l-5-4q-1.4-0.5-3-0.8-1.5-0.3-3-0.3-1.5 0-3 0.3-1.6 0.3-3 0.8zm-39 21c-4 2-5 7-7 26q-0.4 4.6-0.7 9.2-0.2 4.7-0.4 9.3-0.1 4.6-0.1 9.2 0 4.7 0.2 9.3l2 53v36h7c20 2 41 22 46 45 1 6 1 18-1 20-2 2-5 2-6 1l-3-12-5-16q-2.8-4.7-6.4-8.9-3.7-4.1-8.1-7.4-4.3-3.4-9.3-5.8-4.9-2.4-10.2-3.9c-3 0-4 0-6 2-3 3-6 3-9-1l-2-2v-42c0-45 0-45-5-49-4-4-12-2-15 4-4 9-6 33-5 59v30c0 7 0 12 2 22 6 27 11 38 19 47 10 10 24 17 43 23 8 2 11 2 22 2q2.1 0.2 4.3 0.2 2.1 0.1 4.2 0 2.2-0.2 4.3-0.5 2.1-0.2 4.2-0.7 0.7-0.3 1.5-0.5 0.7-0.2 1.4-0.3 0.8-0.1 1.6-0.2 0.7 0 1.5 0c4 0 19-6 27-11q3.1-1.9 6-4.1 2.9-2.2 5.6-4.8 2.6-2.5 5-5.3 2.4-2.8 4.4-5.8c12-18 15-27 16-65q-0.1-5 0-10 0-5 0.1-10 0.2-5 0.4-10 0.2-5 0.5-10l-1-39c0-29 0-31-2-35-4-8-15-11-18-4-2 4-4 28-4 52 0 21 0 22 2 22 3 2 4 4 1 7-2 2-6 2-21 0q-7-0.7-14-1.3-7-0.6-14-0.9-7-0.4-14-0.6-7-0.2-14-0.2c-19 0-21-1-22-4 0-2 1-2 4-4l5-2v-21q0.3-8.5 0.5-17 0.2-8.5 0.3-17 0.1-8.5 0.2-17 0-8.5 0-17c1-2-2-13-4-17-4-5-11-8-15-5zm78 1c-7 3-7 6-8 55q-0.1 6.8-0.3 13.5-0.2 6.8-0.6 13.5-0.4 6.8-0.9 13.5-0.5 6.8-1.2 13.5c0 1 23 3 24 2q0.7-8.7 1.2-17.5 0.5-8.7 0.9-17.5 0.4-8.7 0.6-17.5 0.2-8.7 0.3-17.5v-34l-3-6c-2-2-8-3-13-1zm666 64c4 1 6 3 7 6 1 3 1 4-9 24l-10 21 9 20q1.6 2.7 3 5.5 1.4 2.8 2.6 5.7 1.3 2.9 2.4 5.8 1.1 3 2 6c0 6-6 10-12 8-3-1-4-4-10-15l-7-14-7 13-9 15c-1.3 0.9-2.9 1.4-4.4 1.5-1.6 0.1-3.2-0.2-4.6-0.9-1.5-0.7-2.7-1.8-3.5-3.1-0.9-1.4-1.4-2.9-1.5-4.5q1.1-2.8 2.3-5.6 1.1-2.8 2.4-5.5 1.2-2.8 2.6-5.5 1.3-2.7 2.7-5.4l10-21-10-20-10-22c0.1-1.6 0.6-3.1 1.5-4.5 0.8-1.3 2-2.4 3.5-3.1 1.4-0.7 3-1 4.6-0.9 1.5 0.1 3.1 0.6 4.4 1.5l9 15 7 13 7-14c6-12 7-14 10-15 2-1 4-2 5-1zm-175 2l8 15 7 13 7-13c7-14 9-17 14-17 5 0 9 4 9 8 0 2-4 12-10 22l-9 21q1 2.7 2.1 5.3 1.1 2.7 2.2 5.3 1.1 2.6 2.3 5.2 1.2 2.6 2.4 5.2c6 11 10 21 10 23 0 4-4 8-9 8-5 0-7-3-14-16l-6-14q-1.2 1.7-2.2 3.4-1.1 1.7-2.1 3.4-1 1.8-2 3.6-0.9 1.8-1.7 3.6l-9 15c-6 3-13-1-13-7 0-3 3-11 10-24l9-20-10-20c-10-21-11-25-7-29 4-3 9-3 12 0zm69 1l8 15 7 12q1-1.6 1.9-3.2 0.9-1.6 1.8-3.2 0.9-1.6 1.7-3.3 0.8-1.6 1.6-3.3l8-15 6-2c3 0 4 1 6 3l3 5q-2.5 5-5 10.1-2.5 5.1-4.8 10.2-2.4 5.2-4.7 10.3-2.3 5.2-4.5 10.4c-1 3-1 3 9 23l10 22-3 6c-2 2-3 3-6 3q-0.8 0-1.6-0.1-0.8-0.1-1.6-0.4-0.7-0.2-1.5-0.6-0.7-0.4-1.3-0.9l-8-15-7-13-7 13-8 15c-6 5-16 0-15-8q1.2-2.8 2.5-5.6 1.3-2.8 2.7-5.6 1.3-2.7 2.8-5.4 1.5-2.7 3-5.4l9-19-10-20c-11-22-11-26-7-30 4-3 9-3 12 1z"/>
	<path id="Layer" fill-rule="evenodd" class="s4" d="m820-895q3.6-0.5 7.3-0.6 3.6-0.2 7.3 0.1 3.7 0.3 7.3 0.9 3.6 0.6 7.1 1.6 5.6 2.3 10.7 5.5 5.2 3.2 9.8 7.1 4.6 4 8.5 8.6 3.9 4.6 7 9.8c19 32 3 74-33 87q-4.1 1.4-8.3 2.2-4.3 0.9-8.6 1.1-4.3 0.3-8.6 0-4.3-0.4-8.5-1.3c-20-5-34-20-42-41-2-6-2-9-2-20q-0.2-2.4-0.3-4.8-0.1-2.4 0.1-4.7 0.1-2.4 0.4-4.8 0.3-2.4 0.8-4.7c8-24 26-40 46-42m-608 3c1 2 4 16 4 22 0 5 1 6 8 8 12 3 27 8 35 13l17 10c22 13 41 42 49 77l2 12 14-1c13 0 13 0 14 2 3 3 3 9 0 12-3 2-6 3-17 3-10 0-10 0-10 7 0 15-14 53-24 65-5 6-21 19-33 28-13 9-28 16-44 19l-11 2c-2 0-2 0-2 10 0 12-1 15-8 17-4 1-8 0-10-4-2-3-2-5-2-15l1-12-10-1c-11-2-44-12-50-15-7-3-22-19-30-32-14-21-21-37-23-56l-1-10-6-1c-8 0-12-4-12-10 0-5 3-8 10-9 8-1 8-1 8-4q0.5-4.8 1.5-9.4 1-4.7 2.5-9.3 1.5-4.5 3.5-8.9 2-4.3 4.5-8.4l32-42c10-10 15-13 27-18l16-6c9-5 20-9 27-10 5 0 5 0 5-4q0-2.6 0.2-5.1 0.3-2.6 0.8-5.1 0.5-2.5 1.2-5 0.8-2.4 1.8-4.8c2-2 6-3 8-1zm597 11c-3.3 1.4-6.5 3.1-9.3 5.3-2.9 2.1-5.5 4.6-7.8 7.4-2.2 2.8-4.2 5.8-5.7 9.1-1.5 3.2-2.5 6.7-3.2 10.2q-1 4.2-1.3 8.6-0.3 4.3 0.1 8.6 0.4 4.4 1.4 8.6 1.1 4.2 2.8 8.2c7 19 20 31 37 33 4.1 0.5 8.2 0.6 12.4 0.1 4.1-0.4 8.1-1.4 12-2.7 3.9-1.4 7.6-3.3 11.1-5.5 3.5-2.3 6.6-4.9 9.5-7.9 2.7-2.6 5-5.5 7.1-8.7 2-3.2 3.6-6.6 4.8-10.1 1.2-3.6 2-7.3 2.3-11 0.4-3.7 0.3-7.5-0.2-11.2-1-4.6-2.6-9-4.7-13.2-2.1-4.1-4.7-8.1-7.7-11.6-3.1-3.6-6.5-6.7-10.3-9.5-3.8-2.7-8-5-12.3-6.7-5-2-8-3-19-3-12 0-15 0-19 2zm-625 38q-2.3 0.3-4.6 0.7-2.2 0.4-4.5 0.9-2.2 0.5-4.5 1.1-2.2 0.6-4.4 1.3-1.6 0.6-3.2 1.3-1.7 0.6-3.3 1.2-1.6 0.6-3.2 1.3-1.7 0.6-3.3 1.2c-6 2-14 8-19 14-12 14-27 34-31 43-4 7-8 25-7 26l14 1c12 0 13 1 15 3 3 3 3 10 0 13-2 1-4 2-16 2l-13 1v5c0 17 15 46 33 64 11 11 12 11 48 20 21 6 19 6 20 0 1-8 7-17 10-17 3 0 7 11 7 20l1 7q8.6-1.3 16.9-3.8 8.3-2.5 16.2-6.2 7.9-3.7 15.1-8.4 7.3-4.8 13.8-10.6c17-14 20-19 27-37 4-13 7-25 7-32v-4h-11c-8 0-11 0-12-2-2-1-2-6-1-8 1-1 10-4 18-5h6v-5q-1.8-7.6-4.4-15-2.6-7.4-6-14.5-3.4-7-7.6-13.7-4.2-6.6-9-12.8-1.5-1.7-3-3.3-1.6-1.5-3.2-3-1.6-1.5-3.3-3-1.7-1.4-3.5-2.7c-13-9-38-21-50-22l-4-1v8c1 9-1 16-4 18-3 2-7 1-10-2-2-2-2-3-3-13v-11h-3zm661 75c6.6 0.8 13.1 2.5 19.3 5.1 6.2 2.6 12 6 17.2 10.1 5.3 4.1 10 8.9 13.9 14.3 4 5.4 7.2 11.3 9.6 17.5 6 13 9 29 12 57 1 14 0 80-1 82h-7c-3-2-4-12-3-51 2-42-2-71-12-88q-2.7-4.7-6-8.9-3.4-4.2-7.3-7.9-4-3.7-8.4-6.8-4.4-3-9.3-5.4c-38-19-88-5-105 29-8 17-8 22-9 70 0 33 0 44-2 51l-1 15c1 5-1 7-4 7-5 0-5-1-4-26l1-42c0-60 10-90 36-108 11-6 27-12 40-14zm-13 348c2 2 2 3 2 9-1 10-5 19-17 44q-7.7 16-15.4 32.1-7.7 16-15.4 32-7.8 16-15.6 32-7.8 15.9-15.6 31.9-2.5 5.3-4.8 10.8-2.3 5.4-4.4 10.9-2.2 5.5-4.1 11.1-2 5.6-3.7 11.2c-4 12-7 25-6 26 1 2 25-29 45-57l75-112c21-33 32-42 39-35 2 3 2 4 2 9-1 7-4 15-14 30-16 25-33 59-44 86q-3.2 8.5-6.2 17-2.9 8.6-5.7 17.2-2.7 8.6-5.3 17.3-2.5 8.7-4.8 17.5c-2 10-1 20 2 24 3 4 7 4 13-1 9-9 16-21 37-61q5.9-12.4 12.5-24.4 6.6-12.1 13.9-23.7 7.2-11.7 15.1-22.9 8-11.2 16.5-22c9-9 17-10 21-3 2 5 1 19-3 35-18 74-19 91-10 114 3 8 3 11 0 15-3 2-7 3-9 0q-1.7-2.3-3.1-4.7-1.5-2.4-2.8-4.9-1.2-2.5-2.3-5.1-1-2.6-1.8-5.3c-3-10-4-29-2-43 1-13 5-28 11-52l4-19q-7 10.5-13.6 21.2-6.7 10.7-13.1 21.6-6.4 10.9-12.4 21.9-6.1 11.1-11.9 22.3c-27 52-46 72-62 65-14-6-20-28-15-52q1.6-7.2 3.5-14.4 1.8-7.2 3.8-14.3 2-7.1 4.2-14.2 2.1-7.1 4.5-14.1l6-17-18 25q-5.6 8.4-11.4 16.7-5.8 8.4-11.6 16.6-5.9 8.3-11.9 16.4-6 8.2-12.1 16.3c-12 14-21 18-30 14-6-3-9-8-8-18 0-8 1-12 9-36q3.4-9.1 7-18.1 3.6-9 7.5-17.8 3.9-8.9 8-17.7 4.1-8.8 8.5-17.4 6.7-13.7 13.3-27.5 6.6-13.7 13.3-27.5 6.6-13.7 13.2-27.5 6.6-13.7 13.2-27.5c5-11 5-11-14 12q-8.5 9.8-16.6 19.9-8.1 10.1-15.9 20.5-7.7 10.4-15.1 21-7.4 10.7-14.4 21.6l-37 56c-10 12-18 16-26 14-9-3-12-15-8-33 8-33 23-68 46-106l10-13c3 0 4 2 4 5q-0.7 1.8-1.4 3.6-0.8 1.8-1.7 3.6-0.9 1.8-1.8 3.5-1 1.7-2.1 3.3-4.5 7.7-8.7 15.7-4.1 7.9-7.9 16.1-3.7 8.1-7.1 16.4-3.3 8.3-6.3 16.8c-8 24-14 52-10 52 4 0 14-14 36-47q8.1-13.1 16.7-25.9 8.6-12.8 17.6-25.3 9-12.5 18.4-24.7 9.5-12.2 19.3-24.1c24-28 29-34 37-37 6-2 9-1 12 2zm-526 19q4.2 2 8.1 4.5 4 2.6 7.5 5.6 3.6 3.1 6.7 6.5 3.1 3.5 5.7 7.4c10 12 12 16 13 28q0.4 4.6 0.4 9.2-0.1 4.5-0.8 9.1-0.6 4.5-1.8 9-1.1 4.4-2.8 8.7-1.6 5.1-4.2 9.7-2.6 4.6-6 8.6-3.5 4-7.8 7.2-4.2 3.2-9 5.5c-11 6-21 8-35 7-4.5 0.1-9.1-0.2-13.5-1.1-4.5-0.8-8.9-2.1-13.1-3.8-4.2-1.7-8.2-3.8-12-6.4-3.7-2.5-7.2-5.4-10.4-8.7-13-14-18-26-17-49-0.1-4.5 0.2-9 1.1-13.5 0.8-4.4 2.2-8.7 4-12.9 1.8-4.1 4.1-8 6.7-11.7 2.7-3.6 5.8-6.9 9.2-9.9 13-13 17-15 29-16 20-1 26 0 42 7zm-35 5q-1.1 0.3-2.3 0.6-1.1 0.4-2.2 0.8-1.2 0.3-2.3 0.7-1.1 0.5-2.2 0.9c-5 2-7 2-8 1-4-2-19 12-24 23q-2 4.6-3.3 9.4-1.4 4.8-2.2 9.7-0.7 5-0.9 9.9-0.1 5 0.4 10c1 5.1 2.7 10.1 5.1 14.8 2.4 4.6 5.5 8.9 9.1 12.7 3.6 3.8 7.7 7.1 12.3 9.7 4.5 2.6 9.4 4.6 14.5 5.8q5.8 1.2 11.7 1.4 5.8 0.3 11.7-0.4 5.8-0.6 11.5-2.1 5.7-1.5 11.1-3.9c9-5 16-11 20-20 8-17 9-35 3-47q-2.2-4-4.9-7.7-2.6-3.7-5.6-7.1-3.1-3.4-6.4-6.5-3.4-3-7.1-5.7c-12-8-29-12-39-10zm-87 66c13 2 16 3 19 7 2 4-1 4-22 4-23 0-26 0-27-6q-0.1-0.7 0-1.4 0.1-0.7 0.4-1.3 0.3-0.7 0.7-1.3 0.4-0.5 0.9-1c3-3 10-3 28 0zm27 27c1 0 3 3 3 5 0 4-3 6-15 13q-2.1 1.2-4.2 2.2-2.2 1-4.5 1.8-2.2 0.7-4.6 1.2-2.3 0.5-4.7 0.8c-4 0-6 0-7-2-5-4-1-8 10-12l18-6zm122 26h18c9 1 18 5 28 12 13 9 19 18 28 38l4 9-1 3-5 8-3 4-2-5c-4-10-13-27-17-33q-2.9-4.4-6.6-8.1-3.8-3.8-8.1-6.8-4.4-2.9-9.3-5-4.8-2-10-3.1c-5-0.6-10.1-0.6-15.1 0-5.1 0.6-10 1.7-14.8 3.5-4.7 1.7-9.3 4-13.5 6.8-4.2 2.7-8.1 6-11.6 9.7q-2.3 3-4.3 6.2-2 3.2-3.6 6.6-1.6 3.4-2.9 7-1.3 3.5-2.2 7.2c-3 13-2 38 2 65q0.7 6.6 1.7 13.1 1 6.6 2.3 13.1 1.2 6.5 2.7 13 1.5 6.4 3.3 12.8l4 18c-2 1-8 3-9 2q-4.7-12.7-8.3-25.7-3.5-13.1-5.7-26.4-2.3-13.4-3.3-26.9-1-13.5-0.7-27c0-23 0-30 5-45 8-25 29-41 58-45zm-102 4c2 2 1 5-2 8q-1.2 1.6-2.3 3.3-1.1 1.7-2.1 3.5-1 1.7-1.9 3.5-0.9 1.8-1.7 3.7c-2 6-5 12-7 13-4 5-9 3-9-2 0-7 9-24 16-31 4-3 8-4 10-2zm583 303l3 17c3 22 4 43 1 49-3 5-7 7-9 3q0-7.1-0.1-14.3-0.2-7.1-0.6-14.2-0.3-7.2-0.9-14.3-0.6-7.1-1.4-14.2v-11c1-2 7-3 8-1zm100 34q-4.1 5.2-8.1 10.5-4 5.3-7.9 10.6-3.9 5.4-7.6 10.9-3.8 5.5-7.4 11c-8 13-12 18-14 18-2 0-1-3 3-10q3.7-7.5 8-14.7 4.2-7.3 9-14.2 4.8-6.9 10-13.4 5.3-6.6 11-12.7c2-2 4 0 4 4zm-196 17q2.2 3.5 4.6 6.8 2.3 3.4 4.8 6.6 2.5 3.3 5.2 6.4 2.6 3.2 5.4 6.2c7 8 11 15 11 18 0 3-4 7-7 6l-23-30c-12-19-14-24-11-27 3-2 5-1 10 7zm-490 44c3 2 3 3 8 33 6 35 7 42 4 47-3 4-10 7-14 6-4 0-7-5-9-11-3-8-5-29-6-51 0-17 0-19 2-21l5-5c4-2 7-1 10 2zm81 32l4 14 4-4c10-8 20-15 23-15 3 0 6 4 6 8l-5 9-18 21 23 15c10 5 12 7 12 12 0 4-4 7-7 6l-25-12-6-3v13l1 14-3 3-6 2c-5 0-7-3-9-14l-3-11-6 4c-8 6-12 9-17 10-8 2-13-2-15-10 0-5 2-10 5-11 9-1 10-2 18-10l8-8-8-4c-20-10-27-19-21-26l4-3 14 7 12 7v-11c0-12 1-16 4-18 6-3 8-1 11 15zm-168-9q4.3 0 8.5 0.9 4.2 0.9 8.1 2.8 3.8 1.8 7.2 4.4 3.4 2.6 6.2 5.9c12 12 18 25 18 43-1 20-9 37-21 43-10 6-17 3-23-9l-2-3-2 4c-4 7-10 12-17 12-14 0-26-18-24-37q0.1-3 0.5-6 0.4-2.9 1.2-5.8 0.8-2.9 1.8-5.7 1.1-2.8 2.5-5.5c8-16 21-22 33-14l5 4 2-5c2-6 4-7 7-4 2 2 2 3 2 12l-1 18-1 8c-1 1-1 12 1 18l3 6c3 3 8 3 11 0 3-3 7-13 9-22 5-23-5-41-24-47q-5.3-1.4-10.8-1.8-5.6-0.4-11 0.1-5.5 0.5-10.9 1.9-5.3 1.5-10.3 3.8c-12 6-20 13-25 23-2.6 4.8-4.5 9.9-5.4 15.3-1 5.4-1 10.8-0.2 16.2 0.8 5.4 2.4 10.6 4.9 15.5 2.5 4.8 5.8 9.2 9.7 13 2.4 2.8 5.2 5.3 8.3 7.5 3 2.2 6.3 4 9.8 5.4 3.4 1.3 7 2.3 10.7 2.8 3.7 0.6 7.5 0.7 11.2 0.3 22-2 34-9 56-32 6-7 12-12 13-12 2 0 4 3 4 5-3.2 6.3-7 12.2-11.3 17.6-4.4 5.5-9.4 10.5-14.8 15-5.4 4.4-11.2 8.3-17.4 11.6-6.2 3.3-12.8 5.9-19.5 7.8q-4.4 1-9 1.4-4.5 0.4-9.1 0.3-4.5-0.1-9-0.8-4.5-0.7-8.9-1.9c-4.4-1.6-8.6-3.8-12.5-6.3-3.9-2.6-7.6-5.6-10.9-9-3.2-3.3-6.1-7-8.6-11-2.4-4-4.5-8.3-6-12.7-3-10-4-29-1-40 1.6-6.8 4.1-13.3 7.6-19.4 3.6-6 8-11.5 13.1-16.2 5.2-4.7 11-8.6 17.3-11.5 6.4-3 13.1-5 20-5.9zm831 6l4 4c0 4-2 5-33 17-15 6-21 7-22 7-2-1-2-6-1-7q3.2-1.4 6.5-2.8 3.2-1.4 6.5-2.8 3.2-1.4 6.5-2.7 3.2-1.4 6.5-2.7zm-347 15q5.7 1.8 11.4 3.5 5.7 1.7 11.5 3.4 5.7 1.6 11.5 3.1 5.8 1.6 11.6 3v6c-1 2-2 2-8 2q-4.2-0.4-8.3-1.2-4.1-0.7-8.1-1.9-4-1.1-7.9-2.6-3.9-1.5-7.7-3.3c-7-3-7-4-8-7l2-4zm-500 23c-9 4-13 13-13 27 0 9 2 16 6 18 3 1 3 1 7-1 3-1 6-3 7-5q1.8-3.2 3.1-6.6 1.4-3.4 2.4-7 1-3.5 1.7-7.1 0.6-3.6 0.8-7.3c1-6 1-7-1-9-2-2-7-4-9-4zm110 42c5 0 6 1 9 3 8 9 3 27-8 29-9 1-16-5-15-16 0-6 2-11 7-14zm709.8 10.7q6.4 1.4 12.8 2.9 6.4 1.5 12.7 3.1 6.4 1.6 12.7 3.3c2 4 0 8-4 8-5 0-44-10-47-12v-8q6.4 1.3 12.8 2.7zm-253.8 19.3c2 5-3 8-27 16-11 4-13 4-14 1-2-4 1-6 18-13 17-7 22-8 23-4zm45 40c4 2 2 6-12 24-17 23-21 28-26 31-5 4-7 3-8-2-1-3 2-8 11-17q2.3-2.6 4.6-5.2 2.3-2.6 4.5-5.2 2.3-2.6 4.5-5.3 2.2-2.6 4.4-5.3l13-15zm154 7q3.2 5.4 6.4 10.7 3.3 5.3 6.7 10.6 3.4 5.2 6.8 10.4 3.5 5.2 7.1 10.3c0 4-2 7-6 7-3 0-8-7-17-22-15-27-17-31-14-34 3-2 5-1 10 7zm-90 10q-0.2 8.2-0.6 16.3-0.5 8.2-1.2 16.3-0.8 8.1-1.8 16.2-1.1 8.1-2.4 16.2c-1 5-2 6-4 6-2 0-3 0-4-2-2-3-1-23 2-37l5-22 2-11c1-1 4-1 5 1zm-598 211q2.5-0.3 5.1-0.2 2.5 0.1 5 0.7 2.5 0.5 4.9 1.5c3 1 6 4 7 6 3 4 6 12 6 16 0 2 0 2 5 0 8-3 18-2 23 3 5 5 8 12 9 23l1 10 5-1c11 0 23 8 27 19l1 72-1 76q-1 8-3.3 15.8-2.3 7.8-5.9 15.1-3.6 7.2-8.3 13.8-4.7 6.6-10.5 12.3-3.6 3.9-7.7 7.2-4.1 3.4-8.7 6-4.6 2.7-9.5 4.7-4.9 1.9-10.1 3.1-4 1.3-8.1 2.1-4.1 0.9-8.2 1.3-4.2 0.3-8.4 0.3-4.2-0.1-8.3-0.7c-15-1-24-3-36-7q-4.9-1.3-9.6-3.3-4.8-1.9-9.2-4.4-4.4-2.6-8.5-5.6-4.1-3.1-7.7-6.7c-11-11-14-17-20-38-6-20-6-23-6-38l-1-37c-2-48 2-66 17-73 4-2 6-2 11-2l7 2c1 0 2-2 2-25 1-27 2-34 5-39 7-9 22-12 30-6l3 2 2-6q0.4-3.2 1.7-6.1 1.3-2.9 3.2-5.4 2-2.5 4.6-4.4 2.5-1.9 5.5-3.1 2.5-0.7 5-1zm0 13l-5 3c-4 3-5 7-5 27l-1 25q-0.8 9.5-1.2 19-0.4 9.5-0.4 19 0 9.5 0.4 19 0.4 9.5 1.2 19l15 1 13 1-1-59-1-63c-1-7-3-10-11-11zm-44 23c-3 4-4 7-5 27q-0.3 5.2-0.4 10.5-0.2 5.2-0.2 10.5 0 5.3 0.2 10.5 0.1 5.3 0.4 10.5 0.5 8.1 0.8 16.2 0.3 8.2 0.4 16.3 0.1 8.1 0.1 16.2-0.1 8.2-0.3 16.3v17l8 1c17 2 32 14 40 32 6 12 7 28 3 33-3 3-5 1-8-13-4-17-8-23-21-33q-2-1.5-4.1-2.7-2.2-1.3-4.5-2.3-2.2-1-4.6-1.7-2.4-0.8-4.8-1.3c-4-1-4-1-6 1-1 2-6 3-8 1-2-2-3-30-3-64 0-23 0-24-2-27-5-8-14-7-18 1-5 11-6 19-5 61 0 39 0 40 2 52 5 22 9 32 15 40 10 14 25 22 48 28q5.3 1.2 10.7 1.9 5.4 0.6 10.8 0.6 5.4 0 10.8-0.6 5.4-0.7 10.7-1.9c4.9-0.9 9.6-2.3 14.3-4.1 4.6-1.8 9-4 13.2-6.7 4.2-2.6 8.1-5.7 11.7-9.1 3.6-3.4 6.9-7.1 9.8-11.1 12-16 15-27 16-66q0.4-14 0.6-28 0.1-14 0-28-0.1-14-0.5-28-0.4-14-1.1-28c-3-5-8-9-13-9-5 0-8 3-8 10q-0.6 6.6-1.1 13.2-0.4 6.6-0.7 13.3-0.2 6.6-0.3 13.2 0 6.7 0.1 13.3c0 13 0 15 2 16 2 0 3 4 0 6-2 2-7 2-24 0q-9-1.1-17.9-1.8-9-0.8-18-1.3-9-0.5-18.1-0.7-9-0.3-18-0.2c-3-2-2-4 2-7 5-2 5-2 5-6l1-46c1-48 1-51-6-58-3-3-4-4-8-4-4 0-5 1-7 2zm84-1c-6 1-9 4-10 8-1 2-2 19-2 41q-0.2 7.8-0.4 15.5-0.3 7.8-0.7 15.5-0.3 7.8-0.8 15.5-0.5 7.8-1.1 15.5l24 2 1-19q-0.2-9.4-0.1-18.8 0.1-9.4 0.5-18.7 0.4-9.4 1-18.8 0.7-9.4 1.6-18.7c-1-11-1-13-3-16-2-3-5-4-10-3zm486 67c2 1 6 8 10 16l6 14 7-14 9-16c3-3 8-2 11 1l3 5q-0.6 1.8-1.2 3.6-0.7 1.8-1.4 3.6-0.8 1.7-1.6 3.4-0.9 1.7-1.8 3.4l-10 21-4 9 10 20 10 22c0 3-2 6-4 8-2 2-8 1-10-1q-1.3-1.8-2.5-3.6-1.2-1.8-2.4-3.7-1.1-1.9-2.1-3.8-1.1-1.9-2-3.9l-7-14-6 13-9 16c-5 5-14 1-14-6 0-3 3-10 9-23l10-20-10-21c-10-21-11-24-7-28 3-4 8-4 11-1zm62.3-1.7q1.1-0.1 2.3 0 1.2 0.1 2.3 0.6 1.1 0.4 2.1 1.1l9 15 7 13 7-13 9-15c3-2 7-2 11 0 4 4 3 7-7 30l-10 20 10 20c10 22 11 25 7 29-4 3-8 3-11 0l-9-15-7-13-7 13-9 15c-5 4-14 1-13-6q0.8-3 1.8-5.9 1-2.9 2.1-5.8 1.2-2.9 2.4-5.7 1.3-2.8 2.7-5.6l10-20-8-16c-13-28-12-26-11-30q0.3-0.8 0.7-1.5 0.4-0.7 0.9-1.3 0.5-0.6 1.1-1.2 0.6-0.5 1.3-1 1.1-0.5 2.3-0.7zm75.7 1.7l9 16 7 14 6-14 9-16c3-3 9-3 12 0 4 5 4 6-7 28l-10 21 3 7 9 19 7 17c0 4-3 8-8 9-4 1-7-3-15-18l-6-13-7 14c-7 14-9 17-14 17-4 0-9-5-9-8q1-3 2.2-5.9 1.1-2.9 2.4-5.8 1.2-2.9 2.6-5.7 1.3-2.8 2.8-5.6c10-20 10-20 8-23l-10-21q-1.2-2.4-2.3-4.9-1.1-2.4-2.1-4.9-1-2.5-1.9-5.1-0.9-2.5-1.7-5.1l3-5c3-3 7-4 11-1z"/>
</svg>