<svg version="1.2" xmlns="http://www.w3.org/2000/svg" viewBox="0 0 512 512" width="512" height="512">
	<title>harms-icons-1-3-svg</title>
	<style>
		.s0 { fill: #ffffff } 
		.s1 { opacity: .4;fill: #000000 } 
		.s2 { fill: #930000 } 
		.s3 { opacity: .6;fill: #000000 } 
		.s4 { opacity: .9;fill: #000000 } 
	</style>
	<path id="Layer" class="s0" d="m253.5-1197c-119.9 0-216.8-97-216.8-216.9 0-119.9 96.9-216.8 216.8-216.8 119.8 0 216.7 96.9 216.7 216.8 0 119.9-96.9 216.9-216.7 216.9z"/>
	<path id="Layer" class="s0" d="m951.9-1183c-119.9 0-216.7-96.9-216.7-216.8 0-119.9 96.8-216.8 216.7-216.8 119.9 0 216.8 96.9 216.8 216.8 0 119.9-96.9 216.8-216.8 216.8z"/>
	<path id="Layer" class="s0" d="m253.5-84.9c-119.9 0-216.8-97-216.8-216.9 0-119.9 96.9-216.8 216.8-216.8 119.8 0 216.7 96.9 216.7 216.8 0 119.9-96.9 216.9-216.7 216.9z"/>
	<path id="Layer" class="s0" d="m960.1-87.3c-119.9 0-216.7-96.9-216.7-216.8 0-119.9 96.8-216.8 216.7-216.8 119.9 0 216.8 96.9 216.8 216.8 0 119.9-96.9 216.8-216.8 216.8z"/>
	<path id="Layer" class="s0" d="m264 470.5c-119.9 0-216.7-96.9-216.7-216.8 0-119.9 96.8-216.8 216.7-216.8 119.9 0 216.8 96.9 216.8 216.8 0 119.9-96.9 216.8-216.8 216.8z"/>
	<path id="Layer" class="s0" d="m955.4 464.7c-119.8 0-216.7-97-216.7-216.9 0-119.9 96.9-216.8 216.7-216.8 119.9 0 216.8 96.9 216.8 216.8 0 119.9-96.9 216.9-216.8 216.9z"/>
	<path id="Layer" class="s0" d="m251.1-609.9c-119.8 0-216.7-97-216.7-216.9 0-119.9 96.9-216.8 216.7-216.8 119.9 0 216.8 96.9 216.8 216.8 0 119.9-96.9 216.9-216.8 216.9z"/>
	<path id="Layer" class="s0" d="m965.7-604.1c-121.4 0-219.6-98.2-219.6-219.7 0-121.6 98.2-219.8 219.6-219.8 121.5 0 219.7 98.2 219.7 219.8 0 121.5-98.2 219.7-219.7 219.7z"/>
	<path id="Layer" fill-rule="evenodd" class="s1" d="m263.9-1651.7c11.3 0.4 22.5 1.7 33.6 3.6 11.1 2 22 4.8 32.7 8.2 10.7 3.5 21.1 7.8 31.3 12.7 18.1 8.8 35.1 19.8 50.6 32.8 15.4 12.9 29.3 27.7 41.2 43.9 11.9 16.3 21.8 34 29.4 52.6 7.6 18.7 13 38.2 15.9 58.2q0.8 8 1.2 16.1 0.4 8.1 0.4 16.1 0 8.1-0.4 16.2-0.4 8-1.2 16.1c-2.9 20.3-8.3 40.2-16.2 59.2-7.8 19-17.9 36.9-30.1 53.5-12.3 16.5-26.5 31.4-42.4 44.4-15.9 13-33.3 24-51.9 32.7-20.1 9.5-41.3 16.2-63.1 19.9-21.9 3.7-44.1 4.3-66.1 2-22.1-2.4-43.7-7.8-64.2-16-20.6-8.3-39.9-19.3-57.4-32.9-11.7-9.3-36.4-33.9-45.7-46.8-18.5-24.1-32.2-51.3-40.6-80.4-8.4-29.1-11.3-59.5-8.5-89.7 2.8-30.1 11.3-59.5 24.9-86.5 13.6-27.1 32.1-51.3 54.6-71.6 9.5-8.7 19.7-16.6 30.4-23.7 10.8-7.2 22.1-13.4 33.8-18.8 11.7-5.4 23.8-9.8 36.2-13.3 12.5-3.4 25.1-5.9 37.9-7.4 11.2-1.2 22.5-1.5 33.7-1.1zm674.1 1.1c30.5-3.6 66.8 0 97.3 10.5 20.5 6.8 40.1 16.2 58.1 28 18.1 11.8 34.6 25.9 49 42 14.5 16 26.7 33.9 36.5 53.2 9.9 19.2 17.1 39.7 21.6 60.8 15.3 69.1-1.1 139.4-44.5 196.9q-5.1 6.4-10.6 12.5-5.4 6.2-11.1 12-5.7 5.9-11.7 11.5-6 5.6-12.3 10.8c-23.2 17.9-49.5 31.5-77.5 40-28.1 8.4-57.5 11.7-86.7 9.7-29.2-2-57.9-9.4-84.5-21.7-26.6-12.3-50.7-29.3-71.2-50.2-13.4-13.2-25.1-27.9-35.1-43.7-10-15.9-18.1-32.9-24.1-50.6-6.1-17.7-10.1-36.1-12-54.8-1.9-18.6-1.6-37.4 0.9-56 1.8-13.1 4.8-26.1 8.8-38.7 3.9-12.7 8.9-25 14.9-36.8 6-11.8 12.9-23.1 20.7-33.9 7.8-10.7 16.4-20.7 25.9-30.1 39.8-41 90.2-64.4 146.5-71.4zm-3.6 53.9q-5.9 0.7-11.7 2.4-5.8 1.8-11.2 4.5-5.4 2.7-10.2 6.2-4.9 3.6-9 8c-7.1 7-10.6 10.5-14.1 18.7q-2 3.8-3.4 7.8-1.5 4-2.4 8.1-0.9 4.2-1.2 8.4-0.3 4.3 0 8.5c-0.1 8 1.2 15.9 3.8 23.4 2.5 7.6 6.3 14.6 11.2 20.9 4.8 6.4 10.6 11.8 17.3 16.3 6.6 4.4 13.9 7.7 21.6 9.7 8.2 1.2 26.9 2.4 31.6 0 2.4 0 2.4-1.1-3.5-3.5-16.4-9.4-30.5-31.6-35.2-53.9-1.3-7.6-1.4-15.4-0.4-23.1 1.1-7.7 3.3-15.1 6.6-22.1 3.4-7 7.8-13.5 13.1-19.1 5.3-5.7 11.5-10.4 18.2-14.2l9.4-4.7-5.8-1.2c-8.3-1.1-18.8-2.3-24.7-1.1zm37.5 17.5c-3.3 0.4-6.6 1.1-9.8 2.2-3.2 1.1-6.3 2.5-9.1 4.4-2.9 1.8-5.5 4-7.8 6.4-2.4 2.5-4.4 5.2-6.1 8.1-15.2 22.3-10.5 58.6 9.4 79.7 7 8.2 14.1 11.7 23.4 15.3l7.1 1.1 7-4.7c5.8-4.1 10.9-9 15.3-14.6 4.3-5.7 7.8-11.9 10.3-18.5 2.5-6.7 3.9-13.7 4.4-20.8 0.4-7-0.2-14.2-1.9-21.1-3.5-10.5-9.3-23.4-17.5-31.6-7.1-8.2-5.9-7-24.7-5.9zm-836.7 52.8l-9.3 1.2-17.6 7c-9.4 3.5-12.9 7-19.9 14-8.3 8.2-10.6 11.8-15.3 21.1-8.2 17.6-9.4 18.8-9.4 68 1.2 46.9 1.2 49.2 8.2 65.6 3.3 6.6 7.5 12.6 12.4 18 4.9 5.4 10.5 10.1 16.6 14 6.2 3.9 12.9 7 19.8 9.1 7 2.1 14.3 3.3 21.6 3.5h8.2l-5.9-7.1q-5.4-6.8-10.2-14.1-4.8-7.2-8.9-14.9-4.1-7.7-7.6-15.6-3.4-8-6.1-16.3l-3.5-18.8c0-10.5 0-9.3-10.6-10.5-4.7-1.2-9.3-4.7-10.5-9.4-2.4-8.2 2.3-12.9 14-15.2h5.9v-5.9q0.8-5.8 2.3-11.4 1.5-5.7 3.5-11.1 2.1-5.5 4.8-10.7 2.6-5.2 5.8-10.1c8.2-11.7 27-36.4 34-43.4l7-8.2h-14l-16.4 1.2zm62.1 2.3q-2.4 0.9-4.7 1.9-2.2 1-4.4 2.2-2.2 1.2-4.4 2.5-2.1 1.3-4.1 2.8c-12.9 10.5-42.2 49.2-48.1 64.5q-0.8 2.5-1.6 5.1-0.7 2.6-1.3 5.3-0.6 2.6-1 5.3-0.4 2.7-0.7 5.3l-1.2 3.6h15.2l17.6 2.3c4.7 3.5 5.9 11.7 2.3 17.6-3.5 2.3-3.5 2.3-18.7 3.5h-17.6v3.5c0 27 31.6 78.5 56.3 90.2 5.8 2.4 7 2.4 35.1 3.6h28.1l1.2-2.4c2.4-5.8 7-11.7 9.4-11.7 2.3 0 4.7 2.3 5.8 8.2l1.2 5.9h22.3c18.7 0 23.4 0 24.6 2.3 1.2 1.2 2.3 1.2 9.4-3.5q4.8-3.4 9.5-7 4.8-3.6 9.3-7.4 4.6-3.9 8.9-7.9 4.4-4 8.6-8.2c9.4-11.7 21.1-46.9 21.1-62.1v-5.8h-11.7c-10.6 0-11.7 0-15.3-2.4-2.3-3.5-3.5-7-1.1-10.5 2.3-2.4 7-3.6 19.9-5.9l9.4-1.2-2.4-7c-4.7-22.3-17.6-48-30.5-63.3-9.3-10.5-16.4-15.2-35.1-25.8l-14.1-7h-26.9v9.4c-1.2 8.2-1.2 8.2-4.7 11.7-3.5 3.5-4.7 3.5-7 3.5-7.1-2.3-8.2-4.7-9.4-15.2v-9.4h-39.9l-10.5 3.5zm146.5-1.1c5.8 4.6 18.7 18.7 23.4 26.9q4.5 6.7 8.3 13.8 3.9 7 7.1 14.4 3.2 7.4 5.8 15 2.6 7.6 4.6 15.4l3.5 14.1h15.2c14.1 0 15.3 0 17.6 2.3 3.5 4.7 2.4 11.7-2.3 15.2-2.4 2.4-5.9 2.4-16.4 3.6h-12.9v8.2q-0.3 2.2-0.7 4.4-0.4 2.2-0.8 4.4-0.5 2.2-1 4.4-0.5 2.2-1 4.3-1.8 6.2-3.9 12.3-2.1 6.2-4.4 12.2-2.4 6-5 11.9-2.6 5.9-5.5 11.7c-4.7 9.4-24.6 29.3-42.2 41l-7 4.7 24.6 24.6 24.6 23.4v-67.9l8.2-1.2c6.9-1.7 13.5-4.4 19.7-7.8 6.2-3.4 12-7.7 17.1-12.6 5.1-4.9 9.5-10.4 13.2-16.5 3.7-6.1 6.6-12.6 8.6-19.4 2.4-8.2 3.5-9.3 3.5-52.7 0-49.2-1.1-50.4-9.3-68q-2.7-5.6-6.3-10.7-3.5-5.2-7.8-9.6-4.4-4.5-9.4-8.2-5-3.8-10.5-6.6c-15.3-7-20-8.2-42.2-9.4h-19.9zm573 82c-29.3 4.7-57.4 25.8-71.5 52.8-11.7 22.2-12.9 32.8-12.9 106.6l1.2 53.9 19.9 1.2h21.1v-9.4c2.4-11.7 2.4-26.9 3.5-68 0-35.1 2.4-52.7 7.1-70.3 5.8-25.7 18.7-43.3 38.6-55 7.1-4.7 21.1-10.6 27-11.8zm45.7 10.6c-32.8 7-58.6 28.1-65.6 55.1-5.9 16.4-5.9 24.6-5.9 75q0 6.7-0.2 13.5-0.1 6.7-0.4 13.4-0.3 6.8-0.7 13.5-0.5 6.7-1 13.5l-1.2 12.9v7h162.9v-63.3c0-68 0-71.5-5.9-86.7-7-19.9-21.1-37.5-38.6-49.2l-8.2-4.7-12.9-1.2zm-678.6 336.9c17.9 2.2 35.5 6.4 52.5 12.4 17 6.1 33.2 14 48.4 23.7 15.3 9.6 29.4 20.9 42.1 33.7 9.5 9.3 18.2 19.5 26 30.3 7.9 10.8 14.8 22.2 20.8 34.2 5.9 11.9 10.9 24.3 14.9 37.1 3.9 12.7 6.8 25.8 8.6 39q1 8.4 1.5 16.9 0.5 8.5 0.5 17.1 0 8.5-0.5 17-0.5 8.5-1.5 16.9c-4 26.7-12.3 52.6-24.7 76.5-12.4 24-28.7 45.7-48.2 64.3-19.5 18.7-41.9 34-66.4 45.3-24.5 11.4-50.6 18.6-77.5 21.4l-8.2 1.1-11.7-49.2c-11.7-50.4-12.9-55.1-17.6-64.4-2.4-4.5-5.3-8.7-8.6-12.5-3.4-3.9-7-7.4-11.1-10.5-4-3.1-8.3-5.8-12.9-8.1-4.5-2.2-9.3-4-14.2-5.3q-4.2-0.8-8.5-1.2-4.3-0.5-8.5-0.5-4.3 0-8.6 0.5-4.2 0.4-8.4 1.2c-6.6 1.8-12.8 4.3-18.7 7.7-5.8 3.4-11.2 7.6-15.9 12.4-4.7 4.9-8.8 10.3-12 16.2-3.3 5.9-5.8 12.2-7.3 18.8q-1 4.3-1.5 8.8-0.5 4.4-0.5 8.8 0 4.4 0.5 8.8 0.5 4.4 1.5 8.8l2.3 11.7c-22.4-16.3-41.9-36.3-57.5-59.2-15.7-22.9-27.2-48.4-34.2-75.2-7-26.8-9.4-54.7-6.9-82.3 2.4-27.6 9.6-54.6 21.3-79.8 36.3-78.5 112.5-133.6 196.8-143 18-1.8 36-1.6 53.9 0.6zm735.1 5.7c26.9 6.7 52.4 17.9 75.6 33.2 23.1 15.2 43.5 34.2 60.3 56.2 16.9 22 29.8 46.7 38.4 73.1 6.1 18.6 10 37.9 11.4 57.4 1.5 19.6 0.6 39.2-2.6 58.5-3.3 19.4-8.9 38.2-16.7 56.2-7.8 18-17.7 35-29.6 50.5-9.4 11.8-34 37.5-45.7 45.8l-8.2 5.8v-31.6l-1.2-32.8q-0.3 0.1-0.6 0.2-0.3 0.1-0.6 0.2-0.3 0.2-0.6 0.4-0.2 0.1-0.5 0.3c-4.7 1.2-8.2-3.5-12.9-12.9q-2.2-4.3-3.9-8.9-1.7-4.6-2.8-9.3-1.2-4.7-1.9-9.6-0.6-4.8-0.8-9.7c0-11.7 0-11.7-5.8-18.7-7.1-9.4-17.6-19.9-18.8-17.6q-2 3.6-3.9 7.3-2 3.6-3.9 7.3-1.9 3.6-3.7 7.3-1.9 3.7-3.7 7.4c-21.1 39.9-35.2 59.8-48.1 70.3-8.2 5.9-11.7 7.1-18.7 7.1-5.9 0-10.6-2.4-16.4-9.4-8.2-11.7-11.7-30.5-8.2-50.4q1.7-8.3 3.7-16.6 2-8.3 4.2-16.5 2.2-8.2 4.6-16.3 2.4-8.2 5.1-16.2c7-17.6 5.8-16.4 4.6-16.4q-1.7 1.9-3.4 3.9-1.7 1.9-3.3 4-1.6 2-3.2 4.2-1.5 2.1-2.9 4.3l-30.5 45.7c-35.2 48-43.4 56.2-58.6 55q-2.5-0.5-4.7-1.6-2.2-1.2-4.1-2.9-1.9-1.7-3.2-3.8-1.3-2.1-2.1-4.5c-3.5-9.4 0-25.8 11.8-57.5l2.3-8.2q-6.3 5.9-11.8 12.5-5.5 6.6-10.1 13.9-4.6 7.3-8.2 15.1-3.6 7.7-6.2 15.9c-5.9 17.6-7.1 28.2-7.1 59.8l-1.1 29.3c-1.2 0-21.1-16.4-31.7-26.9-9.4-9.4-18.1-19.4-25.9-30.1-7.8-10.8-14.7-22.1-20.6-33.9-6-11.8-11-24.1-15-36.8-4-12.6-6.9-25.6-8.8-38.7q-0.8-8.2-1.3-16.4-0.4-8.2-0.4-16.4 0-8.2 0.4-16.4 0.5-8.2 1.3-16.4c8.2-52.8 31.7-100.8 70.3-139.5q5-5 10.3-9.8 5.3-4.7 10.9-9.1 5.6-4.5 11.4-8.5 5.9-4.1 12-7.7 11.6-7.4 24.1-13.3 12.4-6 25.4-10.6 13-4.6 26.4-7.7 13.5-3.1 27.2-4.8c27.6-2.5 55.4-0.4 82.3 6.3zm-74.1 46.5c-12 2.1-23.5 6.4-33.9 12.8-10.5 6.3-19.6 14.5-27 24.2-7.5 9.7-13 20.7-16.4 32.4-3.4 11.7-4.6 23.9-3.6 36l4.7 21.1 3.5-4.6c21.1-34 80.9-105.5 92.6-113.7l11.7-5.9 4.7-1.2-4.7-1.1zm38.7 2.3c4.7 2.4 5.9 4.7 5.9 11.7 0 10.6-4.7 23.5-18.8 51.6l-30.5 63.3-22.2 45.7-3.5 8.2 5.8 2.3q2.9 1.5 5.9 2.7 3.1 1.2 6.1 2.3 3.1 1 6.3 1.8 3.1 0.8 6.3 1.4l3.5 1.2 31.7-48 38.7-58.6c8.2-11.8 23.4-29.3 29.2-30.5h3.6l-2.4-4.7q-4.1-7.8-9.4-14.7-5.4-7-11.8-13-6.4-6-13.8-10.8-7.3-4.8-15.4-8.4c-9.3-3.5-18.7-5.8-15.2-3.5zm-27 41l-14 17.6q-8.4 9.8-16.4 19.9-8.1 10-15.8 20.3-7.8 10.2-15.3 20.7-7.4 10.5-14.6 21.1c-2.4 3.6-2.4 3.6 0 8.2 2.3 5.9 16.4 20 17.5 18.8l28.2-56.3q4.5-9.5 9-19 4.5-9.6 9-19.1 4.6-9.5 9.1-19 4.6-9.5 9.2-19zm98.4 42.2l-10.5 17.5q-6.2 10.1-12.1 20.3-5.9 10.3-11.4 20.7-5.6 10.4-10.9 20.9-5.2 10.6-10.1 21.3c0 2.4 16.4-8.2 26.9-16.4q5.2-4.9 9.6-10.4 4.5-5.6 8.2-11.7 3.7-6 6.6-12.6 2.9-6.5 4.9-13.3c2.4-8.2 3.5-31.7 2.4-38.7l-1.2-4.7zm-928.1 58.6c-15.8 2.2-30.3 9.8-41 21.6-10.7 11.7-17 26.9-17.7 42.8-0.7 15.9 4.2 31.5 13.9 44.2 9.6 12.6 23.4 21.5 38.9 25 8.2 2.4 24.6 2.4 31.6 0 6.1-1.6 12-4 17.5-7.2 5.4-3.2 10.4-7.1 14.8-11.6 4.5-4.5 8.2-9.6 11.3-15.2 3.1-5.5 5.4-11.4 6.8-17.5q0.9-4.7 1.3-9.5 0.3-4.7 0-9.4-0.3-4.8-1.2-9.5-0.9-4.6-2.4-9.1c-2.7-7.3-6.6-14.1-11.6-20.1-4.9-6-10.9-11.1-17.5-15.1-6.7-4-14-6.9-21.6-8.5-7.6-1.6-15.4-1.9-23.1-0.9zm800.3 65.6l-19.9 7.1-10.5 3.5-4.7 10.5q-3.6 8.2-6.9 16.6-3.2 8.4-6 16.9-2.8 8.5-5.1 17.1-2.4 8.7-4.3 17.4 8.8-11.1 17.4-22.4 8.5-11.2 16.9-22.7 8.3-11.4 16.5-23 8.1-11.6 16-23.3l-10.5 2.3zm62.1 2.4q-3.1 8.7-6.1 17.4-2.9 8.8-5.7 17.5-2.8 8.8-5.4 17.7-2.6 8.8-5.1 17.7c-3.5 12.9-3.5 25.8 0 31.6 4.7 12.9 16.4 3.6 34-25.7l32.8-63.3-28.1-12.9c-14.1-4.7-15.2-4.7-16.4 0zm-703.3 290.5c17.8 2.3 35.3 6.6 52.1 12.7 16.9 6.2 33 14.2 48.1 23.9 15.1 9.7 29.1 21.1 41.8 33.8 9.4 9.3 18 19.4 25.8 30.1 7.8 10.7 14.8 22.1 20.7 33.9 6 11.8 11 24.1 15 36.8 3.9 12.6 6.9 25.6 8.8 38.7 2.4 18.6 2.6 37.4 0.7 56-1.9 18.6-5.9 37-12 54.7-6 17.7-14.1 34.7-24.1 50.6-9.9 15.9-21.7 30.6-34.9 43.8-22.6 22.7-49.4 40.8-79 53.1-29.6 12.3-61.3 18.7-93.3 18.7-32 0-63.8-6.4-93.3-18.7-29.6-12.3-56.4-30.4-79-53.1-94.9-95-96.1-245-2.3-342.2 9.9-10.3 20.7-19.8 32.3-28.2 11.6-8.4 23.9-15.8 36.7-22.1 12.9-6.3 26.3-11.5 40.1-15.4 13.7-3.9 27.8-6.7 42.1-8.2 17.8-1.6 35.8-1.2 53.7 1.1zm680-2.1q14.2 0.3 28.3 2.3 14 1.9 27.8 5.4 13.7 3.5 27 8.6 6.1 2.5 12.1 5.4 5.9 2.8 11.8 5.9 5.9 3.1 11.6 6.4 5.7 3.3 11.3 6.9c18.4 12.2 35.1 26.8 49.6 43.5 14.5 16.7 26.7 35.2 36.2 55.1 9.6 20 16.4 41.1 20.3 62.8 3.9 21.8 4.9 43.9 2.9 65.9-2.2 21.3-7.1 42.1-14.6 62.1-7.5 20-17.6 38.9-29.9 56.3-12.4 17.4-27 33.1-43.4 46.7-16.4 13.7-34.5 25.2-53.9 34.2-22.4 10.3-46.2 17.2-70.7 20.3-24.5 3.2-49.3 2.6-73.6-1.8-24.3-4.4-47.7-12.5-69.6-24-21.8-11.5-41.8-26.2-59.1-43.8-32.8-32.8-56.3-73.8-66.8-118.3q-3-13.6-4.5-27.4-1.5-13.8-1.5-27.7 0-13.9 1.5-27.7 1.5-13.8 4.5-27.4c5.9-24.7 15.6-48.3 28.8-70.1 13.1-21.7 29.5-41.3 48.6-58.1 19-16.8 40.6-30.6 63.8-40.8 23.3-10.3 48-16.9 73.2-19.7q14.1-1.3 28.3-1zm4.5 111.2c-2.3 5.9-7 8.2-10.5 3.5-2.4-2.3-3.5-2.3-5.9-1.2q-3 2-5.7 4.3-2.7 2.4-5.1 5-2.3 2.7-4.3 5.7-2 2.9-3.6 6.1l-2.4 7.1-2.3-4.7c-2.4-4.7-4.7-5.9-18.8-7-9.3-1.2-17.5 0-22.2 2.3l-3.5 2.3 2.3 4.7c3.5 7.1 0 15.3-7 11.7-3.5-1.1-3.5-1.1-4.7 2.4l-1.2 3.5-1.2 2.3h-5.8q-3.3-1.1-6.7-1.5-3.4-0.5-6.9-0.4-3.5 0.2-6.8 1-3.4 0.7-6.6 2.1-2.4 1.5-4.6 3.3-2.2 1.8-4.2 3.8-1.9 2.1-3.5 4.5-1.6 2.3-2.9 4.8c-5.9 15.3-10.6 90.3-7 112.5 2.3 14.1 5.8 19.9 12.9 23.5q2 0.9 4.2 1.5 2.2 0.5 4.4 0.7 2.3 0.1 4.5-0.1 2.3-0.3 4.4-1c5.9-1.1 7.1-10.5 8.2-70.3l1.2-38.6 3.5-2.4c7.1-2.3 8.2 3.5 5.9 42.2-1.2 35.2 0 55.1 3.5 62.1 3.5 7 5.9 8.2 18.7 8.2 11.8 0 11.8 0 15.3-3.5l4.7-10.6c2.3-7 2.3-12.8 2.3-57.4 1.2-55.1 1.2-57.4 7-57.4l2.4 1.2v62.1c-1.2 65.6-1.2 63.3 7 68 3.5 2.3 5.9 3.5 15.3 3.5 12.8 0 19.9-3.5 28.1-11.8l5.8-5.8v-14.1l1.2-28.1q0.3-4.8 0.5-9.7 0.2-4.8 0.3-9.6 0.2-4.9 0.2-9.7 0.1-4.8 0.2-9.7c1.2-30.4 3.5-38.6 9.4-36.3q0.4 7 0.6 14.1 0.2 7 0.2 14 0 7.1-0.2 14.1-0.2 7-0.6 14.1-0.4 8.3-0.6 16.6-0.1 8.4-0.1 16.8 0 8.3 0.1 16.7 0.2 8.3 0.6 16.6l8.2 7.1c5.8 2.3 8.2 3.5 18.7 3.5q2.2 0 4.5-0.2 2.2-0.1 4.4-0.4 2.2-0.3 4.4-0.7 2.1-0.5 4.3-1c10.5-3.6 16.4-11.8 21.1-28.2 2.3-8.2 2.3-11.7 2.3-42.2l1.2-36.3c2.3-4.7 4.7-1.2 7 9.4 3.5 12.9 3.5 55.1 1.2 68-4.7 17.5-9.4 26.9-19.9 35.1-5.9 4.7-10.6 5.9-22.3 7-8.2 0-9.4 0-30.5-7l-12.8-4.7-9.4 3.5c-9.4 3.6-10.6 4.7-23.5 4.7l-19.9-1.1c-5.8 0-7 0-10.5 2.3-4.7 3.5-8.2 9.4-8.2 14.1 0 5.8 3.5 8.2 17.5 12.9 15.3 3.5 31.7 9.3 44.6 16.4q5.5 3.2 11.5 5.4 6 2.1 12.4 3 6.3 0.9 12.7 0.6 6.4-0.4 12.6-2l22.3-10.6-2.4-4.6c-1.2-4.7-1.2-8.2 2.4-10.6 3.5-1.2 5.8 0 9.3 5.9 2.4 4.7 2.4 4.7 7.1 4.7 5.8-1.2 19.9-9.4 26.9-15.3 15.3-14 16.4-31.6 4.7-62.1l-5.8-18.7c-2.4-8.2-4.7-29.3-7.1-57.5-2.3-29.3-4.7-39.8-8.2-51.5q-1.8-4.6-4.1-8.9-2.3-4.3-5.1-8.3-2.8-4-6.1-7.6-3.3-3.6-6.9-6.9c-2.4-2.3-2.4-2.3-5.9 4.7q-0.9 1.4-1.9 2.8-0.9 1.4-1.9 2.7-1.1 1.3-2.2 2.6-1.1 1.3-2.2 2.5c-3.5 3.5-4.7 3.5-5.9 2.3-1.1-1.2 0-3.5 4.7-11.7 5.9-11.7 5.9-12.9-4.7-12.9-7 0-14 2.3-18.7 5.9l-3.5 2.3-5.9-5.9q-2.3-2.3-5-4.3-2.7-2-5.7-3.5-3-1.5-6.2-2.5-3.2-0.9-6.5-1.4c-4.7-1.1-5.9-1.1-7.1 1.2zm-843.7 17.6q-5 1.3-9.8 3.3-4.8 2.1-9.3 4.7-4.4 2.7-8.5 6-4 3.3-7.6 7.1-2.3 2.1-4.5 4.4-2.2 2.3-4.1 4.8-1.9 2.5-3.6 5.2-1.6 2.7-3 5.5c-8.2 16.4-8.2 19.9-9.4 58.6 0 36.3 1.2 53.9 4.7 65.6 2 6 4.7 11.7 8 17.1 3.4 5.3 7.3 10.3 11.7 14.7 4.5 4.5 9.5 8.4 14.8 11.8 5.4 3.3 11.1 6 17.1 8l9.3 3.5h179.3l34 34q4.2 4.2 8.4 8.3 4.2 4.2 8.4 8.3 4.3 4.1 8.6 8.1 4.3 4.1 8.6 8.1l1.2-34c0-32.8 0-34 2.3-34q3.7-0.7 7.3-1.8 3.7-1 7.2-2.3 3.5-1.4 7-3 3.4-1.6 6.7-3.4c9.3-4.7 21-17.6 26.9-27l8.2-16.4 2.4-9.4v-46.8c0-45.7 0-46.9-2.4-53.9-1.7-6-4.2-11.8-7.2-17.2-3.1-5.5-6.8-10.5-11.1-15.1-4.3-4.6-9-8.6-14.2-12.1-5.3-3.4-10.8-6.2-16.7-8.4l-10.6-4.7h-125.3c-120.8 0-126.6 0-134.8 2.4zm155.8 17.6q1 3.9 1.8 7.8 0.8 4 1.5 7.9 0.8 4 1.4 7.9 0.7 4 1.2 8l5.9 36.3c3.5 19.9-1.2 30.5-12.9 31.7-9.4 1.1-15.3-4.7-17.6-18.8-2.3-9.4-4.7-37.5-4.7-58.6-1.2-21.1 0-23.4 5.9-26.9 5.8-2.4 14-1.2 17.5 4.7zm86.8 18.7q0.8 1.8 1.5 3.7 0.7 1.9 1.3 3.8 0.6 1.9 1 3.8 0.5 2 0.9 3.9 0.4 2 0.8 3.9 0.4 1.9 0.8 3.8 0.5 1.9 0.9 3.8 0.5 1.9 1 3.8l12.9-8.2c15.2-11.7 17.5-14.1 22.2-11.7 2.4 1.1 5.9 8.2 4.7 11.7l-25.8 32.8c0 1.2 15.3 11.7 27 17.6l10.5 7c4.7 4.7 1.2 15.2-3.5 15.2-3.5 0-18.7-7-29.3-12.9l-8.2-4.6v15.2c0 14 0 15.2-2.3 17.6-4.7 4.7-9.4 5.8-14.1 1.1-3.5-2.3-4.7-4.7-5.9-12.9l-3.5-11.7-8.2 4.7c-14 10.6-21.1 12.9-29.3 8.2-4.7-3.5-5.8-7-5.8-14 0-4.7 0-5.9 3.5-8.2l5.8-2.4c4.7 0 15.3-7 22.3-15.2l3.5-3.5-5.8-3.6c-16.4-9.3-20-11.7-24.6-16.4-4.7-4.7-4.7-5.8-4.7-10.5 0-3.5 0-5.9 2.3-7l4.7-3.6q2.1 1 4.2 2.1 2.1 1.1 4.2 2.3 2.1 1.2 4.1 2.4 2 1.3 3.9 2.6l14.1 8.2v-15.2c0-12.9 0-15.2 2.3-17.6 3.5-2.3 8.2-3.5 10.6 0zm-199.3 4.7q3.6 0.2 7.2 0.6 3.6 0.5 7.1 1.2 3.6 0.8 7 1.8 3.5 1 6.9 2.3c4.1 2.3 8 5.1 11.5 8.2 3.6 3.2 6.8 6.7 9.6 10.5 2.8 3.9 5.2 8 7.2 12.3 2 4.3 3.5 8.8 4.5 13.5 7 28.1-3.5 60.9-24.6 70.3-4.7 2.3-5.9 2.3-10.6 1.2-5.8-1.2-10.5-5.9-14-11.7l-2.4-4.7-3.5 5.8c-3.5 5.9-10.5 11.7-16.4 12.9-11.7 2.4-25.8-10.5-30.5-28.1l-1.1-14.1c0-25.8 16.4-50.4 33.9-50.4 4.7 0 12.9 3.6 15.3 5.9 2.3 3.5 3.5 2.3 3.5-1.2 1.2-4.7 4.7-8.2 7-8.2l4.7 2.4c2.4 3.5 2.4 3.5 2.4 12.9l-2.4 12.8v20c-2.3 2.3-2.3 4.7-1.2 15.2 3.6 17.6 15.3 18.8 22.3 1.2 17.6-38.7-1.2-72.7-41-72.7q-6.8 0.4-13.4 1.9-6.6 1.4-12.9 4-6.3 2.5-12 6.1-5.8 3.5-10.9 7.9c-5.7 5.4-10.3 11.9-13.5 19-3.2 7.2-4.9 14.9-5.1 22.7-0.3 7.9 1.1 15.7 3.9 23 2.7 7.3 6.9 14 12.3 19.7q3.8 3.7 8.1 6.8 4.4 3 9.2 5.2 4.8 2.3 9.9 3.7 5.1 1.4 10.3 1.9c7.1 1.2 24.6-1.2 34-4.7 14.1-4.7 29.3-17.6 45.7-36.3l10.6-10.6c3.5 0 7 5.9 5.8 8.2-1.2 4.7-10.5 17.6-17.6 25.8-24.6 28.1-60.9 42.2-90.2 36.3-6.5-1.4-12.8-3.8-18.7-6.9-5.9-3.2-11.3-7.1-16.2-11.8-4.8-4.6-9-9.8-12.4-15.6-3.4-5.7-6-11.9-7.8-18.4q-1.1-5.8-1.7-11.7-0.5-5.9-0.3-11.8 0.1-5.9 0.9-11.8 0.8-5.8 2.3-11.6c9.4-32.8 32.8-52.7 68-59.7zm-12.9 52.7c-8.2 4.7-12.9 12.9-14.1 28.1-1.2 14.1 3.5 24.6 11.7 24.6 3.6 0 9.4-4.7 12.9-11.7 5.9-9.4 10.6-32.8 7.1-37.5-3.6-4.7-10.6-5.8-17.6-3.5zm145.3 66.8c0 11.7-7 19.9-17.6 19.9-9.4 0-15.2-7-15.2-17.6 0-9.3 3.5-16.4 10.5-19.9 11.7-4.7 22.3 3.5 22.3 17.6zm14.1 273c10.3 2.9 20.5 6.4 30.4 10.6 9.9 4.2 19.6 9 28.9 14.4 9.2 5.5 18.2 11.5 26.7 18.1 8.5 6.6 16.5 13.8 24.1 21.4 9.8 9.6 18.7 20 26.7 31 8 11.1 15.1 22.8 21.2 35.1 6 12.2 11.1 24.9 15 38 4 13.1 6.9 26.5 8.6 40 2.1 18.3 2.1 36.8 0 55.1-2 18.3-6.1 36.4-12.2 53.7-6 17.4-14 34.1-23.8 49.7-9.8 15.6-21.3 30.1-34.3 43.1-22.6 22.7-49.5 40.6-79.2 52.9-29.6 12.2-61.3 18.4-93.3 18.3-32.1-0.1-63.8-6.6-93.3-19-29.5-12.4-56.3-30.5-78.7-53.4-20.9-20.5-37.8-44.7-50-71.3-12.3-26.6-19.6-55.2-21.6-84.4-2-29.2 1.2-58.6 9.7-86.6 8.4-28 21.8-54.3 39.6-77.6q5.2-6.4 10.8-12.6 5.6-6.1 11.5-12 5.8-5.9 12-11.4 6.1-5.6 12.6-10.9c36.3-26.9 79.6-44.5 124.2-49.2 24.6-2.3 60.9 1.2 84.4 7zm658.2-7.4c10.4 0.5 20.8 1.7 31.1 3.6 10.3 1.9 20.4 4.4 30.4 7.6 9.9 3.2 19.6 7 29.1 11.5 28.1 14 45.7 26.9 68 49.2q7.2 7.1 13.8 14.8 6.6 7.7 12.5 15.9 5.9 8.3 11.1 17 5.1 8.8 9.4 17.9c18 37.9 26 79.8 23.3 121.6-2.8 41.9-16.2 82.4-38.9 117.6-22.8 35.2-54.2 64-91.3 83.7-37 19.7-78.5 29.5-120.4 28.7-31.3-1.6-61.9-9.1-90.3-22.1-28.5-13-54.2-31.3-75.9-53.8-21.7-22.5-38.9-49-50.8-77.9-11.9-28.9-18.2-59.9-18.6-91.1 0-46.9 10.6-85.6 35.2-126.6q6.1-9.6 13-18.6 6.9-9.1 14.5-17.5 7.7-8.4 16.1-16.1 8.3-7.7 17.3-14.6c38.7-29.3 84.4-46.9 130.1-50.4 10.4-0.8 20.9-1 31.3-0.4zm-733.2 36.7c-12.4 0.9-24.7 2.9-36.7 6-12.1 3.1-23.8 7.3-35.1 12.5-11.3 5.2-22.1 11.4-32.2 18.5-10.2 7.1-19.7 15.2-28.5 24-7.5 7.5-14.5 15.6-20.8 24.2-6.3 8.5-11.9 17.6-16.9 27-5 9.4-9.2 19.2-12.7 29.3-3.5 10-6.2 20.3-8.2 30.8q-1.7 10.5-2.4 21.1-0.7 10.6-0.4 21.2 0.3 10.6 1.6 21.2 1.3 10.5 3.6 20.9c3.7 14.8 9 29.2 15.8 42.9 6.8 13.6 15.1 26.5 24.7 38.4 9.6 11.9 20.4 22.8 32.3 32.3 11.9 9.6 24.8 17.9 38.5 24.7 49.2 24.6 111.3 28.1 164.1 8.2 12.4-4.9 24.4-11 35.7-18.1 11.3-7.1 22-15.3 31.8-24.4 9.8-9.1 18.7-19.1 26.7-29.9 7.9-10.7 14.8-22.2 20.6-34.3q5-10.2 8.8-20.9 3.7-10.8 6.2-21.9 2.6-11.1 3.8-22.4 1.2-11.3 1.1-22.7c0-57.4-21.1-107.8-60.9-148.8-7.7-7.8-16-14.9-24.8-21.4-8.8-6.4-18.2-12.2-27.9-17.1-9.7-5-19.9-9.2-30.3-12.6-10.4-3.3-21-5.8-31.8-7.5l-45.7-2.3zm39.8 52.7c0 3.5 1.2 4.7 2.3 4.7l8.2-2.4c12.9-3.5 21.1 0 28.2 12.9q0.9 1.6 2 3 1.2 1.3 2.5 2.5 1.4 1.2 2.9 2.2 1.5 1 3.1 1.7c29.3 17.6 55.1 48.1 66.8 80.9q2.2 5.9 3.9 11.9 1.6 6.1 2.6 12.3 1.1 6.2 1.5 12.4 0.4 6.3 0.2 12.6 0.2 9.2-0.8 18.3-1 9.1-3.2 18-2.2 9-5.6 17.5-3.4 8.5-8 16.5l-5.8 11.7-8.2-8.2-8.2-7v8.2q-0.7 8.3-2.4 16.5-1.7 8.2-4.6 16.1-2.8 7.8-6.6 15.2-3.9 7.5-8.7 14.3c-3.3 5.1-7 9.9-11.2 14.3-4.1 4.5-8.7 8.5-13.6 12.1-4.9 3.6-10.1 6.7-15.6 9.4-5.5 2.6-11.2 4.8-17 6.4-10.6 2.3-12.9 2.3-29.3 2.3q-6.1 0.2-12.2-0.2-6.1-0.3-12.1-1.2-6.1-0.9-12-2.3-6-1.4-11.8-3.3-6.5-1.9-12.7-4.7-6.2-2.8-12-6.4-5.7-3.5-11-7.8-5.3-4.3-10-9.2-3.4-3.9-6.3-8.2-2.9-4.3-5.2-8.8-2.4-4.6-4.2-9.5-1.8-4.8-3-9.9c-3.5-11.7-5.9-15.2-9.4-21q-5.4-7.3-9.9-15.1-4.5-7.8-8-16.1-3.6-8.3-6.1-16.9-2.6-8.7-4.1-17.6c-2.4-11.7-2.4-37.5 0-49.2q1.3-7.1 3.3-14.2 2-7 4.7-13.7 2.6-6.8 5.9-13.3 3.3-6.5 7.2-12.7l3.5-5.9 10.5 9.4c9.4 9.4 9.4 9.4 12.9 8.2q2-1 4.2-1.7 2.2-0.7 4.4-1 2.3-0.3 4.5-0.2 2.3 0.1 4.5 0.6l5.9 2.3v-26.9c0-25.8 0-27-2.4-29.3l-2.3-2.4 2.3-1.1c2.4-1.2 3.5-2.4 3.5-4.7q0.3-1.1 0.7-2.2 0.4-1 0.8-2.1 0.4-1 1-2 0.5-1 1.1-1.9 1.4-3.1 3.6-5.6 2.2-2.5 5-4.4 2.7-1.8 5.9-2.9 3.2-1 6.6-1.2c5.8 0 10.5 1.2 18.7 5.9l1.2-5.9c0.3-3.1 1.2-6.1 2.6-9 1.4-2.8 3.2-5.3 5.4-7.6 2.2-2.2 4.8-4 7.6-5.4 2.8-1.3 5.9-2.2 9-2.6 17.6-2.3 29.3 7 32.8 24.6zm-34-7q-1.4 0.7-2.7 1.7-1.3 0.9-2.3 2.2-1.1 1.2-1.9 2.5-0.8 1.4-1.3 2.9l-1.2 2.4h14.1l14.1-1.2-1.2-4.7c-3.5-5.8-11.7-9.3-17.6-5.8zm593 43.3c-22.3 1.2-27 2.4-34 5.9-12.9 7-22.3 31.6-25.8 64.4v98.5c4.7 46.9 16.4 65.6 41 69.1q34.3 1.4 68.6 2.1 34.3 0.7 68.5 0.7 34.3 0 68.6-0.7 34.3-0.7 68.6-2.1c22.2-3.5 32.8-19.9 39.8-62.1 3.5-24.6 2.3-103.1-1.2-123-3.5-11.8-9.4-29.3-12.9-35.2-3.5-7-10.5-12.9-17.5-15.2q-3.5-0.5-7-1-3.6-0.4-7.1-0.7-3.5-0.3-7-0.4-3.5-0.2-7.1-0.3zm-649.2 38.7q-0.3 6-0.4 12-0.1 6 0 12.1 0.2 6 0.6 12 0.4 6 1 12c0 5.8 0 7 10.5 16.4 9.4 10.5 10.6 10.5 14.1 9.3l3.5-1.1v-71.5l-14.1-14.1q-1.6-1.8-3.3-3.6-1.8-1.8-3.5-3.6-1.8-1.7-3.6-3.5-1.8-1.7-3.6-3.3zm43.3 42.1l1.2 28.2h9.4l16.4 1.1h7l-1.1-24.6-32.9-31.6zm627-23.5c5.9 1.2 7 4.7 15.2 20l7.1 15.2 8.2-16.4c7-14.1 8.2-16.4 11.7-18.8 8.2-2.3 15.2 2.4 15.2 10.6l-10.5 25.8-11.7 23.4 4.6 9.4 10.6 23.4c8.2 15.3 8.2 19.9 4.7 24.6-3.5 4.7-7.1 5.9-12.9 3.6-2.4-2.4-4.7-4.7-11.7-18.8l-8.2-16.4-7.1 15.2-10.5 17.6c-7 5.9-17.6 1.2-17.6-8.2q2.4-4.9 4.8-9.9 2.4-5 4.7-9.9 2.4-5 4.7-10 2.3-5 4.6-10l4.6-10.6-11.7-23.4-11.7-25.8q0.1-1.4 0.5-2.8 0.5-1.4 1.3-2.6 0.7-1.3 1.8-2.3 1-1 2.3-1.7c2.3-1.2 4.7-2.3 7-1.2zm94.9 18.8l8.2 15.2q1.2-1.9 2.3-4 1.1-2 2.1-4 1-2.1 2-4.2 0.9-2.1 1.8-4.2c9.4-17.6 11.7-19.9 19.9-17.6q7.1 1.8 7.1 10.6c0 2.3-3.5 11.7-10.6 25.8l-11.7 23.4q1.3 3.2 2.7 6.3 1.4 3.1 2.9 6.2 1.4 3 3 6.1 1.5 3 3.1 6c7.1 14.1 10.6 23.5 10.6 25.8q0 8.8-7.1 10.6c-8.2 2.3-10.5 0-18.7-17.6l-9.4-16.4q-1.1 2-2.2 4-1.1 2-2.1 4.1-1.1 2-2 4.1-1 2.1-1.9 4.2c-7 14-8.2 15.2-11.7 17.6h-8.2q-7-3.6-7-10.6 1.2-3.3 2.5-6.6 1.4-3.3 2.8-6.5 1.5-3.2 3.1-6.4 1.6-3.2 3.3-6.3l11.7-24.6-11.7-23.4-11.7-25.8c0-4.7 2.3-8.2 5.8-10.6 8.2-3.5 11.7 0 21.1 18.8zm64.5-19.9q0.6 0.1 1.2 0.2 0.6 0.1 1.1 0.2 0.6 0.2 1.2 0.4 0.6 0.1 1.2 0.3c3.5 2.4 4.6 3.6 11.7 18.8l8.2 16.4 7-15.2c9.4-18.8 11.7-22.3 18.8-21.1 4.6 1.1 9.3 5.8 9.3 10.5 0 1.2-4.7 14.1-11.7 27l-11.7 24.6 11.7 23.4c12.9 25.8 12.9 28.1 7 34-3.5 2.4-9.3 3.5-12.8 0q-1.7-2-3.1-4.1-1.5-2.1-2.8-4.3-1.3-2.2-2.5-4.5-1.2-2.3-2.2-4.7l-7-15.2-8.2 16.4c-7.1 15.2-8.2 16.4-11.7 18.8-5.9 1.1-9.4 1.1-12.9-3.6-3.5-4.7-2.4-9.3 4.7-25.7l11.7-23.5 3.5-8.2-10.6-23.4-11.7-27c0-3.5 3.5-9.4 7.1-9.4zm-850.8 14.1l7 7-1.2-4.6c-1.1-4.7-5.8-9.4-10.5-9.4-2.4 0-2.4 0 3.5 7zm109 39.9l7 1.1 5.9-1.1-5.9-5.9-7-5.9zm0 70.3l58.6 57.5 3.5-7.1c4.7-10.5 7-24.6 8.2-44.5v-17.6l-19.9-21.1-21.1-19.9-18.8-1.2-43.3-2.3-23.5-1.2 57.5 57.4zm-117.2 58.6q1.8 3.2 3.8 6.3 2.1 3 4.5 5.8 2.3 2.8 5 5.3 2.6 2.6 5.4 4.9 3.3 2.7 6.8 5.1 3.5 2.3 7.1 4.4 3.7 2.1 7.6 3.8 3.8 1.7 7.8 3.1c19.9 7 35.2 8.2 51.6 5.9l12.9-1.2c5.2-0.8 10.4-2.2 15.4-4 5.1-1.8 9.9-4 14.5-6.7 4.6-2.7 9-5.8 13-9.4 4-3.5 7.7-7.3 11-11.5l-8.2 3.5q-7.7 3.6-15.7 6.3-8.1 2.7-16.3 4.5-8.3 1.7-16.8 2.6-8.4 0.8-16.9 0.6c-30.4 0-58.5-8.2-84.3-26.9-8.2-5.9-9.4-5.9-8.2-2.4z"/>
	<path id="Layer" fill-rule="evenodd" class="s2" d="m263.4-1651.1q13.1 0.4 26.1 2.2 13 1.7 25.8 4.8 12.7 3.1 25.1 7.5c133.6 51.6 196.9 202.8 137.1 330.5q-4.4 10-9.8 19.5-5.3 9.5-11.5 18.5-6.2 9-13.2 17.4-7 8.4-14.7 16.1-61.6 59.7-144.2 70.3c-18.2 2-36.6 2-54.8-0.1-18.2-2-36.1-6.2-53.4-12.2-17.3-6.1-33.8-14.1-49.3-23.8-15.6-9.8-29.9-21.3-42.9-34.2-22.9-22.5-41-49.3-53.4-78.9-12.5-29.6-18.9-61.3-18.9-93.4 0-32.1 6.4-63.8 18.9-93.4 12.4-29.6 30.5-56.4 53.4-78.9 10.2-10.2 21.2-19.6 33-27.9 11.8-8.3 24.3-15.5 37.4-21.6 13-6.1 26.6-11 40.6-14.7 13.9-3.7 28.2-6.1 42.6-7.2q13-1 26.1-0.5zm804.7 23.9c24.3 11.7 46.4 27.4 65.6 46.3 19.1 19 35.1 40.9 47.1 65.1 12 24.1 19.9 50 23.5 76.7 3.5 26.7 2.7 53.8-2.6 80.3-5.1 24.7-14.1 48.6-26.4 70.6-12.4 22.1-28.1 42.1-46.5 59.4-18.5 17.3-39.5 31.7-62.3 42.6-22.8 11-47.2 18.3-72.2 21.9-14.1 1.2-46.9 2.3-61 0-10.6-1.4-21.2-3.4-31.6-6.1-10.5-2.8-20.7-6.1-30.7-10.2-10-4-19.7-8.7-29-14.1-9.4-5.3-18.4-11.2-27-17.7-12.9-9.3-37.5-33.9-46.9-46.8-14.9-19.3-26.8-40.8-35.3-63.6-8.5-22.8-13.5-46.8-14.9-71.2-1.3-24.3 1-48.7 6.9-72.4 6-23.6 15.4-46.2 28.1-67.1 10.1-16.4 22-31.6 35.7-45.3 13.6-13.7 28.8-25.7 45.2-35.9 16.5-10.1 34-18.3 52.4-24.4 18.3-6 37.3-9.9 56.5-11.5 41-3.6 89.1 5.8 125.4 23.4zm-141.8 31.6c-8.3 1.9-16.3 5.3-23.5 9.9-7.2 4.6-13.6 10.5-18.8 17.3-5.2 6.8-9.2 14.4-11.7 22.6-2.6 8.1-3.8 16.7-3.4 25.2 0.6 7.7 2.3 15.3 5.2 22.4 2.9 7.2 6.8 13.8 11.7 19.8 4.9 5.9 10.7 11.1 17.2 15.3 6.5 4.1 13.5 7.3 21 9.3q3.9 0.8 7.8 1.3 4 0.5 7.9 0.6 4 0.2 8 0 4-0.2 7.9-0.7c2.4-1.2 1.2-2.3-4.7-5.9q-6-4.1-11.2-9.3-5.1-5.2-9.3-11.2-4.2-6-7.3-12.6-3.1-6.7-5-13.7-0.9-4.8-1.2-9.7-0.4-4.9-0.3-9.7 0.2-4.9 0.8-9.7 0.7-4.9 1.9-9.6c1.3-5.2 3.1-10.3 5.6-15.1 2.4-4.8 5.3-9.4 8.8-13.5 3.4-4.1 7.3-7.9 11.6-11.2 4.3-3.2 8.9-6 13.8-8.2l5.9-2.4-4.7-1.2q-4.2-0.9-8.4-1.4-4.3-0.5-8.5-0.7-4.3-0.1-8.6 0.1-4.3 0.3-8.5 0.9zm36.3 17.5c-15.2 4.7-26.9 17.6-32.8 34q-0.9 5.1-1.3 10.3-0.3 5.2 0 10.4 0.3 5.2 1.2 10.3 0.9 5.1 2.5 10c3.5 10.6 10.5 21.1 16.4 27 7 7 17.6 12.9 25.8 14.1 3.5 0 5.8 0 9.3-3.6 8.2-4.6 17.6-16.4 22.3-24.6q2.3-3.9 3.9-8.2 1.7-4.3 2.8-8.7 1-4.5 1.4-9.1 0.4-4.5 0.1-9.1c0-4.7-0.4-9.3-1.2-13.8-0.9-4.6-2.2-9-3.9-13.3-1.7-4.4-3.8-8.5-6.3-12.4-2.5-3.9-5.3-7.6-8.5-10.9l-4.7-4.7h-11.7zm-833.2 51.6c-4.7 0-17.6 4.6-23.5 8.2q-5.5 3-10.6 6.8-5 3.7-9.5 8.2-4.4 4.5-8.2 9.5-3.8 5.1-6.8 10.6c-7.1 15.3-8.2 22.3-8.2 66.8 0 46.9 1.1 51.6 9.3 68 3.2 6.3 7.1 12.1 11.8 17.4 4.6 5.2 9.9 9.8 15.7 13.7 5.9 3.9 12.2 7 18.8 9.3 6.7 2.3 13.6 3.6 20.5 4.1h10.6l-8.2-11.7c-19.9-27-31.7-53.9-34-77.3v-8.2l-7-1.2c-9.4-1.2-12.9-3.5-14.1-9.4-2.3-8.2 1.2-12.9 14.1-14.1 5.8-1.1 5.8-1.1 7-5.8 2.3-18.8 7-31.7 15.2-43.4q3.9-5.6 7.8-11.1 4-5.5 8.1-11 4.1-5.4 8.3-10.7 4.3-5.3 8.7-10.5l8.2-9.4h-15.3zm65.6 3.5c-10.5 3.5-12.8 4.7-21 12.9q-6.3 6.4-12.1 13.2-5.7 6.8-11 14.1-5.3 7.2-10.1 14.7-4.8 7.6-9 15.4-1.4 3.2-2.6 6.5-1.1 3.3-2 6.7-0.9 3.4-1.5 6.8-0.6 3.5-1 7l16.4 1.1c14.1 0 15.3 1.2 17.6 3.6 3.5 3.5 4.7 9.3 1.2 14-2.4 3.5-5.9 4.7-23.4 4.7h-11.8v4.7l2.4 12.9c3.5 21.1 26.9 57.4 45.7 71.5 10.5 8.2 15.2 9.3 44.5 9.3h25.8l4.7-7c3.5-7 7-9.4 9.4-7l3.5 7 2.3 7h21.1l24.6 1.2c2.4 1.2 3.5 1.2 8.2-2.3l36.3-29.3c5.9-5.9 10.6-16.4 15.3-32.8 5.8-15.3 9.4-35.2 7-37.5h-10.5c-12.9 0-16.4-1.2-17.6-5.9-2.4-7 2.3-10.5 19.9-12.9q1.2 0 2.4-0.1 1.2-0.1 2.3-0.3 1.2-0.1 2.4-0.3 1.1-0.2 2.3-0.5-1.8-10-4.9-19.8-3.2-9.7-7.6-18.9-4.5-9.2-10.2-17.8-5.7-8.5-12.5-16.1c-9.3-10.6-17.5-15.2-37.5-25.8-9.3-4.7-9.3-4.7-22.2-4.7h-14.1v7c0 12.9-5.9 20-14.1 16.5-5.8-2.4-7-4.7-7-15.3v-8.2h-21.1c-21.1 0-21.1 0-30.5 3.5zm151.2 0q3.4 2.9 6.5 6 3.1 3.1 5.9 6.5 2.8 3.4 5.3 7 2.4 3.6 4.6 7.5 4.2 6.3 7.9 12.9 3.7 6.6 6.8 13.5 3.1 7 5.6 14.1 2.5 7.2 4.3 14.6l3.5 15.2h9.4l14-1.2c4.7 0 5.9 0 8.3 2.4 3.5 4.7 3.5 9.3 1.1 14-2.3 3.5-9.4 5.9-23.4 5.9l-8.2 1.2q-0.6 6.6-1.8 13.2-1.1 6.6-2.7 13-1.6 6.5-3.7 12.8-2.1 6.4-4.7 12.5c-8.2 21.1-11.7 25.8-18.8 32.8q-4.6 4.7-9.4 9.2-4.8 4.4-9.8 8.7-4.9 4.2-10.1 8.3-5.2 4-10.5 7.8 6 6.4 12 12.6 6.1 6.3 12.2 12.4 6.2 6.2 12.4 12.2 6.3 6.1 12.6 12l1.2-33.9v-35.2l7-1.2 17.6-7c4.8-2.4 9.3-5.2 13.6-8.4 4.2-3.3 8.1-6.9 11.6-10.9 3.5-4 6.6-8.4 9.3-13 2.6-4.6 4.8-9.5 6.5-14.6l2.4-9.4v-46.8c0-45.7 0-46.9-2.4-53.9-1.6-5.4-3.8-10.5-6.5-15.4-2.6-4.8-5.8-9.4-9.4-13.7-3.7-4.2-7.7-8-12.1-11.4-4.4-3.4-9.2-6.3-14.2-8.8-12.9-5.8-22.2-8.2-43.3-8.2h-17.6zm577.7 78.6c-10.2 1.1-20.2 3.9-29.7 8-9.4 4.2-18.2 9.7-26 16.5-7.8 6.7-14.5 14.6-20 23.4-5.4 8.7-9.5 18.3-12.2 28.2-2.3 8.2-2.3 11.8-3.5 73.9v65.6h43.4v-14.1l2.3-48c0-63.3 3.5-83.2 15.3-106.7q2.7-5.8 6.3-11.2 3.6-5.3 8.1-9.9 4.5-4.7 9.7-8.5 5.2-3.8 11-6.7 2.9-1.5 5.9-2.9 3-1.4 6.1-2.6 3.1-1.1 6.3-2.1 3.1-1 6.3-1.8c2.4 0 2.4 0 1.2-1.1zm42.2 11.7c-29.3 3.5-57.4 23.4-66.8 45.7l-5.9 21.1c-2.3 11.7-2.3 15.2-2.3 60.9q0.1 7.2 0 14.4-0.1 7.2-0.4 14.4-0.3 7.1-0.8 14.3-0.5 7.2-1.2 14.3-0.3 1.8-0.5 3.5-0.2 1.8-0.4 3.5-0.1 1.8-0.2 3.6-0.1 1.7 0 3.5v4.7h164v-64.5c-1.1-70.3-1.1-70.3-7-87.9q-3.1-7.2-7.3-14-4.1-6.8-9.2-12.9-5-6.1-10.9-11.4-5.9-5.3-12.4-9.7c-7.1-3.5-8.3-3.5-21.1-4.7zm-652.8 343.4c17.9 4.6 35.2 11.1 51.6 19.5 16.4 8.4 31.8 18.6 46 30.5 14.1 11.8 26.9 25.2 38.1 39.8 11.2 14.7 20.7 30.5 28.4 47.3 10 21.8 16.7 45 19.9 68.8 3.2 23.8 2.8 47.9-1.2 71.6-3.9 23.7-11.4 46.7-22.1 68.1-10.7 21.5-24.6 41.3-41.1 58.7-10.4 11.1-21.7 21.2-34 30.2-12.2 8.9-25.3 16.7-39 23.2-13.7 6.5-28 11.7-42.7 15.5-14.7 3.9-29.7 6.3-44.9 7.2l-10.5-49.2c-12.9-53.9-14.1-56.2-18.8-65.6q-2.5-4.2-5.5-8.1-3-3.9-6.4-7.5-3.4-3.5-7.2-6.7-3.8-3.1-7.8-5.8c-49.3-28.2-110.2 5.8-110.2 63.3q0.1 3.7 0.4 7.4 0.3 3.7 0.9 7.4 0.6 3.6 1.5 7.3 0.8 3.6 1.9 7.1c0 2.4-1.2 2.4-7-3.5q-5.6-4.6-11-9.5-5.4-4.9-10.5-10-5.1-5.2-10-10.5-4.9-5.4-9.6-11-9.6-12.4-17.5-25.9-8-13.4-14.2-27.8-6.3-14.4-10.6-29.4-4.4-15.1-6.9-30.6c-2.3-17.5-2.3-52.7 0-69.1 1.9-13 4.9-25.9 8.9-38.4 4-12.5 9-24.7 15-36.5 6-11.7 12.9-22.9 20.6-33.6 7.8-10.6 16.4-20.6 25.8-29.8 41-42.2 96.1-66.8 152.4-71.5 24.6-1.1 53.9 1.2 77.3 7.1zm657.6-7.3q13 0.6 25.8 2.5 12.9 2 25.5 5.2 12.5 3.2 24.7 7.8c16.3 6.2 31.9 14 46.6 23.5 14.7 9.4 28.3 20.4 40.7 32.6 12.4 12.3 23.4 25.9 33 40.5 9.5 14.5 17.5 30.1 23.9 46.3 9.3 25 14.5 51.4 15.2 78.1 0.8 26.6-2.8 53.3-10.7 78.8-7.9 25.4-20 49.5-35.7 71-15.7 21.6-34.9 40.4-56.7 55.7l-1.2-29.3c0-31.6 0-33.9-3.5-32.8-4.7 1.2-11.7-8.2-16.4-23.4-3.5-8.2-5.9-31.7-4.7-34l-1.2-5.9-19.9-21.1-4.7-4.6-14.1 28.1q-3.4 7.2-7.2 14.3-3.8 7.1-7.9 14-4.1 6.9-8.5 13.6-4.5 6.7-9.2 13.2c-15.2 21.1-30.4 30.4-42.2 24.6-10.5-5.9-18.7-23.5-18.7-41 0-14.1 7-43.4 18.7-78.6 8.2-26.9 8.2-26.9-9.3-2.3-27 39.8-53.9 75-61 83.2-16.4 18.8-31.6 19.9-39.8 4.7-4.7-8.2-3.5-18.8 5.8-44.5l8.2-22.3c0-4.7-14 12.9-21 22.3-4.4 6.7-8.3 13.7-11.5 21.1-3.3 7.3-6 14.9-8.1 22.6-2.1 7.8-3.5 15.7-4.4 23.6-0.8 8-1.1 16.1-0.7 24.1l-1.1 30.4-28.2-24.6c-10-9.8-19.2-20.5-27.5-31.9-8.2-11.4-15.5-23.5-21.7-36.2-6.2-12.7-11.2-25.8-15.2-39.3-3.9-13.6-6.6-27.4-8.2-41.4-3.2-32.6 0.1-65.4 9.8-96.7 9.7-31.2 25.6-60.2 46.6-85.2 21.1-25 47-45.6 76.2-60.4 29.1-14.9 60.9-23.7 93.6-26.1q12.9-0.7 25.9-0.2zm-20.1 51.8c-22.2 2.3-44.5 14.1-60.9 31.6-5.8 6.1-10.7 12.8-14.7 20.1-4.1 7.3-7.1 15.1-9.2 23.2-2 8-3 16.3-2.9 24.7 0 8.3 1.2 16.6 3.3 24.6l2.4 4.7 9.4-15.2c18.7-25.8 33.9-45.7 63.2-79.7 21.1-24.6 28.2-30.5 38.7-30.5 14.1 0 12.9 19.9-5.8 56.3l-29.3 59.7q-2.9 6.2-5.8 12.4-2.9 6.1-5.9 12.3-2.9 6.1-5.9 12.3-2.9 6.1-5.9 12.2c-8.2 16.5-8.2 15.3 0 18.8q3.2 1.4 6.6 2.7 3.3 1.2 6.6 2.2 3.4 1.1 6.9 1.9 3.4 0.8 6.9 1.4l63.3-93.7q2.1-3.7 4.4-7.2 2.3-3.6 4.6-7.1 2.4-3.5 4.8-7 2.4-3.5 4.9-6.9c7-8.2 14.1-14 17.6-14 2.3 0 3.5-1.2 3.5-2.4 0-2.3-9.4-15.2-15.2-23.4-4.1-4.8-8.6-9.1-13.4-13-4.9-3.9-10.1-7.3-15.6-10.2-5.5-2.9-11.3-5.3-17.2-7.1-6-1.8-12.1-3-18.3-3.7l-11.7-1.2zm-3.5 55.1q-7 8.2-13.7 16.6-6.8 8.3-13.4 16.8-6.6 8.5-13 17.2-6.4 8.6-12.7 17.4c-18.7 26.9-17.5 24.6-14 30.4q1.8 2.7 3.9 5.2 2 2.5 4.2 4.9 2.2 2.3 4.6 4.5 2.3 2.2 4.9 4.2l21.1-43.4q5.5-11.6 11-23.2 5.5-11.5 11.1-23.1 5.6-11.6 11.2-23.1 5.6-11.6 11.2-23.1l-15.2 18.7zm108.9 29.3l-11.7 19.9q-2.2 3.6-4.5 7.3-2.2 3.6-4.4 7.3-2.2 3.7-4.4 7.3-2.1 3.7-4.3 7.4l-28.1 55.1c9.1-3.6 17.5-8.6 25.1-14.8 7.5-6.1 14.1-13.4 19.5-21.5 5.4-8.1 9.6-17 12.4-26.3 2.7-9.4 4.1-19.1 4-28.8l-1.2-15.2c0-3.6-1.2-3.6-2.4 2.3zm-935.1 62.1q-4.7 1.2-9.1 3-4.4 1.8-8.6 4.1-4.2 2.4-8 5.3-3.8 3-7.1 6.4c-3.3 3-6.2 6.5-8.7 10.1-2.5 3.7-4.6 7.7-6.4 11.8-1.7 4.1-2.9 8.4-3.8 12.8-0.8 4.4-1.2 8.8-1.1 13.3 0 18.8 5.9 32.8 20 46.9q1.9 2.2 4 4.3 2.2 2 4.6 3.7 2.3 1.8 4.9 3.3 2.5 1.5 5.2 2.7 4.1 2.1 8.4 3.6 4.2 1.5 8.7 2.4 4.5 0.9 9 1.2 4.5 0.2 9.1-0.1c16.3-0.6 31.8-7 43.8-18 11.9-11.1 19.5-26.1 21.4-42.3 1.8-16.1-2.2-32.5-11.4-45.9-9.1-13.5-22.8-23.2-38.6-27.4q-4.4-1.2-9-1.9-4.5-0.7-9.1-0.9-4.6-0.1-9.1 0.3-4.6 0.4-9.1 1.3zm806.2 64.5c-11.7 2.3-26.9 8.2-30.4 11.7-4.7 3.5-16.4 36.3-23.5 58.6-4.7 19.9-4.7 22.2 0 16.4q8.6-10.5 16.9-21.1 8.3-10.7 16.4-21.5 8.1-10.8 15.9-21.9 7.8-11 15.3-22.2c2.3-4.7 3.5-4.7-10.6-1.2zm63.3 0c-3.5 4.7-16.4 46.9-23.4 72.6-4.7 16.5-3.5 32.9 2.3 36.4 3.5 2.3 7 1.1 11.7-3.5 8.2-7.1 18.8-24.6 36.4-58.6 18.7-35.2 18.7-31.7 4.7-37.5-14.1-7.1-30.5-11.8-31.7-9.4zm-698.6 293.9c16.9 2.6 33.6 7 49.6 13.1 16.1 6.2 31.4 14.1 45.7 23.5 14.4 9.5 27.7 20.5 39.6 32.8 19.3 18.8 35.3 40.7 47.3 64.8 12.1 24.1 20 50 23.5 76.7 3.5 26.7 2.5 53.8-3 80.2-5.4 26.4-15.3 51.6-29.1 74.8-18.7 31.6-45.7 59.7-76.2 79.6-15.2 10.2-31.5 18.5-48.6 25-17.1 6.4-34.9 10.9-53 13.3-18.1 2.5-36.4 2.8-54.6 1.1-18.2-1.7-36.2-5.5-53.5-11.2-19.5-6.7-38-15.7-55.3-26.9-17.2-11.2-33-24.5-46.9-39.5-14-15.1-26-31.9-35.9-49.9-9.8-18.1-17.4-37.3-22.5-57.2q-2.8-11.4-4.6-23.1-1.8-11.7-2.6-23.5-0.7-11.8-0.4-23.6 0.4-11.8 1.8-23.5c8.2-51.6 31.6-98.5 69.1-136 10.4-10.6 21.7-20.3 33.8-28.8 12.1-8.6 25-16 38.5-22.2 13.5-6.2 27.6-11.2 42-14.8 14.4-3.6 29.1-5.9 43.9-6.8 17.2-1.2 34.4-0.4 51.4 2.1zm654.1-2.1q14.7-1.1 29.5-0.2 14.7 0.8 29.2 3.4 14.6 2.7 28.7 7.2 14 4.5 27.4 10.7c93.8 43.3 151.2 139.4 144.2 239-1 14.6-3.3 29.1-6.9 43.3-3.6 14.1-8.5 28-14.6 41.2-6.1 13.3-13.4 26-21.7 38-8.4 12-17.9 23.1-28.3 33.4-10.3 10.4-21.5 19.9-33.4 28.3-12 8.4-24.7 15.7-38 21.8-13.3 6-27.1 10.9-41.3 14.5-14.1 3.6-28.6 5.9-43.2 6.9-26.9 1.7-54-1.1-80-8.2-26.1-7.1-50.8-18.5-73.1-33.6-22.3-15.2-42-34-58.2-55.6-16.2-21.6-28.8-45.7-37.1-71.4-4.8-14.7-8.2-29.8-10-45.2-1.9-15.3-2.3-30.8-1.2-46.3 1.1-15.4 3.7-30.7 7.7-45.6 4.1-14.9 9.5-29.4 16.4-43.3 9.4-19.5 21.4-37.6 35.5-54 14.2-16.3 30.4-30.7 48.4-42.8 17.9-12.1 37.4-21.8 57.8-28.8 20.5-7 41.8-11.3 63.4-12.7zm23.4 111.3l-3.5 3.5c-2.4 1.2-5.9 0-7.1-3.5-1.1-1.2-1.1-1.2-7 2.4-7 4.7-11.7 9.3-16.4 18.7l-2.3 7-2.4-3.5c-2.3-5.8-5.8-7-18.7-8.2-12.9 0-18.8 0-22.3 3.5-3.5 2.4-3.5 2.4-2.3 5.9 2.3 3.5 2.3 8.2 0 11.7-2.4 2.4-4.7 3.5-7.1 0-2.3-1.2-2.3-1.2-3.5 1.2l-2.3 5.9-1.2 3.5-3.5-2.4c-9.4-4.7-24.6-1.1-35.2 7.1-9.4 7-12.9 19.9-15.2 59.7-2.4 38.7-1.2 69.2 3.5 79.7 1.2 2.2 2.8 4.2 4.7 5.8 1.9 1.7 4 3.1 6.3 4 2.4 1 4.8 1.5 7.4 1.6 2.5 0.2 5-0.1 7.4-0.8 3.5-1.2 4.7-2.4 5.8-7.1 2.4-5.8 3.6-26.9 4.7-66.8l1.2-36.3c1.2-2.3 4.7-3.5 7-1.2v58.6q-0.4 5.2-0.4 10.3-0.1 5.2 0.2 10.3 0.3 5.1 1 10.3 0.6 5.1 1.6 10.1l5.8 8.2c4.7 4.7 5.9 5.9 21.1 3.6 7.1 0 8.2-1.2 10.6-3.6 5.8-10.5 5.8-11.7 5.8-65.6l2.4-53.9c1.2-4.7 4.7-7 5.8-4.7l1.2 69.2-1.2 49.2c0 4.7 2.4 9.4 9.4 12.9 10.6 5.8 27 3.5 38.7-5.9l7-8.2c2.4-3.5 3.5-30.5 5.9-83.2 1.2-26.9 2.3-32.8 5.8-34 3.6-2.3 4.7 1.2 3.6 23.5q-0.1 4.1-0.2 8.2-0.1 4.1-0.2 8.2-0.2 4.1-0.4 8.2-0.2 4.1-0.4 8.2l-2.4 37.5v25.8l3.6 4.6c5.8 5.9 10.5 8.2 26.9 8.2 12.9 0 15.2-1.1 19.9-3.5 8.2-3.5 12.9-10.5 16.4-23.4 3.6-9.4 3.6-11.7 4.7-45.7l1.2-37.5h1.2c5.8 0 9.3 41 7 64.4-4.7 37.5-18.8 55.1-45.7 55.1-8.2 0-10.6 0-21.1-3.5-21.1-8.2-19.9-8.2-29.3-4.7q-4.3 1.9-8.7 3.1-4.5 1.2-9.1 1.8-4.6 0.6-9.3 0.6-4.6-0.1-9.2-0.8c-12.9-1.2-15.3-1.2-19.9 3.5-5.9 4.7-8.2 15.3-4.7 19.9l12.9 4.7c15.2 3.5 28.1 8.2 45.7 16.4 8.2 3.5 17.5 8.2 22.2 8.2 12.9 3.6 25.8 2.4 43.4-5.8l9.4-4.7-2.4-4.7c-2.3-4.7-2.3-8.2 2.4-10.5 2.3-1.2 4.6 1.1 9.3 8.2 2.4 3.5 3.6 3.5 14.1-1.2 15.2-7 27-18.8 30.5-29.3v-25.8l-5.9-18.7-7-20-7.1-56.2q-0.2-6.8-0.8-13.7-0.6-6.8-1.6-13.5-1-6.8-2.5-13.5-1.4-6.6-3.3-13.2-1.5-3.4-3.3-6.6-1.8-3.3-3.9-6.4-2-3.1-4.3-6-2.3-2.9-4.9-5.6c-7-8.2-7-8.2-12.9 0-5.8 9.3-9.3 12.9-11.7 12.9-2.3-1.2-2.3-2.4 4.7-14.1l3.5-9.4-9.3-1.1c-8.2 0-15.3 2.3-20 5.8l-2.3 2.4-2.4-2.4c-5.8-9.4-16.4-15.2-26.9-16.4-5.9 0-5.9 0-7 3.5zm-833.2 14.1q-6.4 1-12.5 3-6.1 2-11.7 5-5.7 3-10.8 6.9-5.1 3.9-9.6 8.5-3.6 3.4-6.7 7.2-3.2 3.8-5.9 7.9-2.6 4.2-4.8 8.6-2.1 4.5-3.7 9.1c-2.3 9.4-2.3 9.4-3.5 50.4 0 48.1 0 53.9 9.4 71.5 4.7 9.4 7 12.9 15.2 21.1q3.7 3.9 7.9 7.2 4.1 3.3 8.8 6 4.6 2.7 9.5 4.7 5 1.9 10.2 3.2c9.3 2.3 14 2.3 96 2.3h86.8l34 34 35.1 34 1.2-34v-34l3.5-1.1c6.8-1.4 13.5-3.6 19.7-6.6 6.3-3 12.1-6.8 17.5-11.3 5.3-4.5 10-9.6 14-15.3 4-5.7 7.3-11.9 9.7-18.4l3.5-10.5 1.2-44.6c0-51.5 0-53.9-8.2-71.5-7-14-21.1-28.1-35.1-35.1-18.8-9.4-8.2-8.2-144.2-9.4zm144.2 16.4q2.2 10.6 4.3 21.3 2.1 10.7 4 21.4 1.9 10.7 3.6 21.4 1.8 10.7 3.3 21.5c0 5.8-3.5 11.7-8.2 15.2-8.2 4.7-17.6 1.2-21.1-8.2-3.5-10.6-7-39.8-7-68 0-18.7 0-22.2 5.8-25.8 4.7-1.1 11.7-1.1 15.3 1.2zm89 22.3l5.9 17.6 3.5 14 4.7-3.5c16.4-12.9 23.4-17.6 25.8-17.6 4.7 0 8.2 3.5 8.2 8.2 0 3.5-2.4 7.1-14.1 21.1l-12.9 15.3 9.4 7 19.9 11.7c10.6 5.9 12.9 8.2 10.6 15.2 0 2.4-1.2 4.7-3.6 4.7-3.5 1.2-9.3 0-28.1-11.7l-11.7-5.8 1.2 15.2c0 16.4 0 16.4-2.4 18.7-3.5 3.6-4.7 3.6-8.2 3.6-7-1.2-9.3-4.7-12.9-17.6l-2.3-10.6q-0.9 0.7-1.8 1.4-0.9 0.7-1.8 1.5-0.9 0.7-1.7 1.4-0.9 0.8-1.7 1.6c-15.3 11.7-24.6 12.9-31.7 5.8-3.5-2.3-3.5-4.6-4.7-9.3 0-8.2 1.2-11.7 8.2-12.9l8.2-2.4c3.6-1.1 18.8-15.2 18.8-16.4l-11.7-7-17.6-11.7c-4.7-5.9-5.9-7-5.9-11.7l2.4-7.1c2.3-4.7 7-3.5 21.1 5.9l14 8.2v-15.2c0-14.1 1.2-15.3 3.5-17.6 3.6-3.5 8.3-2.4 9.4 0zm-207.2 6.7q4.3-0.6 8.5-0.7 4.3-0.2 8.6 0.1 4.3 0.3 8.5 0.9c30.5 7 51.5 45.7 43.3 80.9-4.6 23.4-18.7 38.6-32.8 38.6-7 0-12.9-4.6-16.4-11.7-1.1-4.7-3.5-5.8-3.5-3.5 0 2.4-7 11.7-10.5 14.1-12.9 7-27 1.1-35.2-16.4-3.5-5.9-3.5-9.4-4.7-18.8-0.4-4.2-0.4-8.4 0.1-12.5 0.6-4.2 1.5-8.3 2.9-12.2 1.5-3.9 3.3-7.7 5.6-11.2 2.2-3.6 4.8-6.8 7.8-9.8 10.6-9.4 21.1-10.5 30.5-3.5l4.7 3.5 2.3-4.7q3.5-12.3 10.6-3.5c2.3 2.4 2.3 3.5 1.1 10.6l-1.1 12.8v21.1c-2.4 2.4-2.4 5.9-1.2 16.4 2.3 12.9 9.4 16.5 17.6 9.4 9.4-10.5 14-35.1 10.5-51.5-2.3-7.1-9.4-17.6-14-21.1-18.8-12.9-49.3-11.8-72.7 2.3-4.9 3-9.3 6.7-13.2 10.9-3.8 4.3-7 9.1-9.5 14.2-2.5 5.2-4.2 10.7-5.1 16.4-1 5.6-1 11.4-0.3 17.1 3.5 31.6 32.8 55.1 63.3 52.7 25.7-2.3 45.7-14 69.1-39.8 9.4-11.7 12.9-14.1 16.4-10.6 2.4 3.6 1.2 8.2-4.7 17.6-21.1 31.7-60.9 53.9-91.4 51.6-36.3-3.5-62.1-29.3-66.8-65.6-0.8-7.1-0.9-14.2 0-21.2 0.9-7.1 2.6-14 5.1-20.6 2.6-6.6 5.9-12.9 10-18.7 4.1-5.8 8.9-11.1 14.2-15.7 9.4-8.2 18.8-12.9 34-16.4q4.2-1 8.4-1.5zm-7.2 53c-7.1 4.7-10.6 12.9-11.7 24.7-1.2 16.4 3.5 25.7 10.5 25.7 5.9 0 11.7-4.7 15.2-11.7q1.5-3.6 2.6-7.4 1.2-3.7 2-7.6 0.9-3.8 1.5-7.7 0.6-3.8 1-7.8c0-5.8 0-7-3.6-9.3-5.8-3.5-11.7-3.5-17.5 1.1zm139.4 48.1c11.7 5.9 10.6 26.9-1.1 34-11.8 7-23.5-1.2-23.5-16.4 0-7.1 3.5-14.1 10.6-17.6 5.8-3.5 8.2-3.5 14 0zm-57.1 283.4q7.7-0.4 15.5-0.6 7.8-0.1 15.5 0.1 7.8 0.2 15.6 0.7c13.5 1.6 26.9 4.3 40 8.1 13.1 3.8 25.8 8.7 38.1 14.7 12.2 6 23.9 13 35 21 11.1 7.9 21.4 16.8 31 26.5q7.8 7.7 14.8 16.1 7 8.3 13.2 17.3 6.2 9 11.5 18.6 5.3 9.5 9.7 19.5c13.3 29 20.6 60.3 21.8 92.2 1.1 31.9-4 63.7-15.1 93.6-11 29.9-27.9 57.3-49.6 80.7-21.6 23.4-47.6 42.4-76.6 55.7-22.4 10.6-46.4 17.7-71 20.9-24.6 3.3-49.5 2.7-74-1.6-24.4-4.4-48-12.6-69.9-24.2-22-11.6-42-26.5-59.3-44.3-22.9-22.4-41.1-49.2-53.5-78.8-12.4-29.6-18.8-61.4-18.8-93.4 0-32.1 6.4-63.9 18.8-93.4 12.4-29.6 30.6-56.4 53.5-78.9 37.5-37.5 85.5-62.1 138.3-69.1q7.7-0.9 15.5-1.4zm710.2-0.5q7.7-0.2 15.5-0.1 7.8 0.2 15.5 0.7 7.8 0.4 15.5 1.3c22.5 3.2 44.5 9.5 65.3 18.7 20.8 9.2 40.2 21.2 57.7 35.7 17.5 14.5 32.9 31.4 45.8 50.1 12.9 18.8 23.1 39.2 30.5 60.7 29.2 86.7 5.8 182.8-59.8 248.4-14.1 14.3-29.9 26.7-47 37.1-17.2 10.3-35.5 18.5-54.7 24.3-19.2 5.8-39 9.2-59 10.1-20 0.9-40-0.6-59.6-4.7-22.3-4.7-43.9-12.4-64.1-23-20.2-10.5-38.8-23.8-55.4-39.4-16.5-15.7-30.9-33.5-42.6-53.1-11.7-19.5-20.6-40.6-26.6-62.6-5.3-20.5-7.9-41.5-7.7-62.7 0.2-21.1 3.1-42.1 8.8-62.5 5.6-20.4 13.9-39.9 24.6-58.2 10.7-18.2 23.7-34.9 38.8-49.8 39.8-38.7 89-63.3 142.9-70.3q7.8-0.5 15.6-0.7zm-723.4 37c-45.7 7-86.7 28.1-118.3 61-9.4 9.5-17.9 20-25.2 31.2-7.3 11.2-13.6 23.2-18.6 35.6-5 12.4-8.8 25.3-11.3 38.5-2.5 13.2-3.7 26.6-3.5 40 0 57.4 21.1 108.9 63.2 148.8 39.9 39.8 89.1 59.8 145.4 59.8 56.2 0 106.6-21.1 146.4-61 8-7.9 15.4-16.5 22-25.6 6.6-9.1 12.4-18.7 17.5-28.7 5.1-10.1 9.3-20.5 12.7-31.2 3.4-10.7 6-21.7 7.6-32.8 2.3-14.1 2.3-46.9 0-61-3.3-20-9.4-39.4-18.3-57.7-8.8-18.3-20.2-35.1-33.9-50.1-13.6-15-29.4-28-46.7-38.5-17.4-10.5-36.2-18.5-55.8-23.6q-10-2.6-20.2-4.1-10.2-1.6-20.6-2.2-10.3-0.6-20.6-0.2-10.4 0.4-20.6 1.8zm24.6 27q3-0.3 5.9-0.2 3 0.2 6 0.8 2.9 0.6 5.7 1.7c8.2 3.5 15.2 15.2 15.2 24.6 0 3.5 0 4.7 5.9 1.2 5.8-2.3 18.7-2.3 23.4 0 3.5 2.3 9.4 9.4 10.5 14.1 1.2 2.3 3.6 4.6 8.3 7 7.9 4.6 15.4 9.8 22.4 15.8 7 5.9 13.4 12.5 19.2 19.5 5.8 7.1 10.9 14.7 15.3 22.8 4.4 8 8.1 16.4 11 25.1 11.7 36.3 9.4 78.5-8.2 113.7-8.2 16.4-7 16.4-16.4 7l-8.2-8.2v8.2c0 14.1-4.7 34-11.7 49.2q-3.5 6.5-7.7 12.5-4.2 6-9 11.5-4.9 5.5-10.4 10.3-5.5 4.9-11.6 9.1c-9.4 5.8-28.1 12.9-42.2 15.2-9.3 1.2-37.5 0-50.4-3.5-25.7-5.9-46.8-17.6-59.7-32.8q-3.3-4-6.1-8.3-2.8-4.3-5.2-8.9-2.3-4.6-4.2-9.4-1.9-4.8-3.3-9.7c-2.3-9.4-3.5-14.1-7-18.8-9-12-16.2-25.2-21.3-39.3-5.1-14.1-8.1-28.8-8.8-43.8-0.8-15 0.8-30 4.5-44.5 3.7-14.5 9.6-28.4 17.4-41.1l3.5-5.9 9.4 9.4 9.4 8.2 4.6-1.2q2.6-0.9 5.2-1.5 2.6-0.5 5.3-0.7 2.7-0.1 5.4 0.1 2.6 0.3 5.2 0.9c2.4 1.2 2.4 0 2.4-25.8 0-23.4 0-26.9-2.4-28.1-1.1-2.3-1.1-2.3 1.2-4.7l3.5-8.2c3.5-11.7 12.9-17.5 25.8-17.5 7 0 8.2 0 12.9 2.3l4.7 3.5v-3.5c0-11.7 8.2-22.3 18.7-27q2.9-0.8 5.9-1.1zm-3.5 18.7c-3.5 1.2-7.1 7.1-7.1 10.6l3.6 1.1 14-1.1h10.6v-3.5l-4.7-5.9c-4.7-3.5-11.7-4.7-16.4-1.2zm645.7 41q-8.8 0-17.6 0.2-8.8 0.2-17.6 0.4-8.8 0.3-17.6 0.8-8.8 0.4-17.5 1c-17.6 2.3-27 12.9-34 37.5-5.9 19.9-7 31.6-7 78.5 0 46.9 0 56.2 5.8 79.7 5.9 25.8 14.1 35.1 30.5 39.8q36.1 2.2 72.3 3.2 36.2 1 72.4 0.8 36.2-0.1 72.4-1.4 36.2-1.3 72.3-3.7c11.8-4.7 17.6-12.9 23.5-29.3 7-21.1 8.2-32.9 9.3-76.2l-1.1-56.3c-2.4-28.1-9.4-51.5-19.9-62.1-7.1-8.2-12.9-10.5-35.2-11.7-24.6-1.2-109-2.3-191-1.2zm-699.6 32.8c-1.2 18.8-1.2 30.5 1.1 54v9.3l10.6 9.4 10.5 10.6 3.6-2.4 3.5-1.2v-44.5l1.1-26.9-30.4-29.3zm43.3 77.3h5.9l17.6 1.2h10.5l-1.2-23.5-16.4-16.4-16.4-17.6zm839.1-51.5c3.5 1.2 7 5.8 7 10.5q-1.3 3.3-2.6 6.6-1.4 3.3-2.9 6.5-1.4 3.2-3 6.4-1.5 3.2-3.2 6.3l-11.7 23.5 10.5 22.2 11.8 24.6c2.3 9.4-7.1 17.6-15.3 12.9l-10.5-17.6-8.2-17.5-8.2 15.2-9.4 17.6c-5.9 7-17.6 2.3-17.6-5.9q1.1-3.5 2.3-7 1.3-3.4 2.8-6.8 1.4-3.4 3.1-6.7 1.7-3.3 3.5-6.4l10.6-24.6-10.6-23.5c-12.9-24.6-14-29.3-8.2-34 3.5-3.5 10.6-3.5 14.1 0l9.4 17.6 8.2 15.2 8.2-16.4c5.8-11.7 9.3-17.5 11.7-18.7zm-208.6 1.2q1.6 2 3 4.1 1.5 2.1 2.8 4.3 1.3 2.2 2.5 4.5 1.2 2.3 2.2 4.6l8.2 16.4 8.2-15.2 9.4-17.6c3.5-3.5 10.6-3.5 15.3 0 4.6 5.9 3.5 9.4-8.2 34l-11.8 23.5q1.3 3.1 2.7 6.2 1.4 3.1 2.9 6.2 1.4 3.1 3 6.1 1.5 3.1 3.2 6.1c11.7 24.6 12.8 28.1 8.2 32.8-3.6 3.5-10.6 4.7-14.1 2.3l-10.6-18.7-8.2-16.4-8.2 17.5q-1 2.4-2.2 4.7-1.2 2.2-2.5 4.4-1.3 2.2-2.8 4.4-1.4 2.1-3 4.1c-3.5 2.4-9.4 1.2-12.9-2.3-4.7-4.7-3.5-8.2 8.2-34l11.7-23.4-11.7-23.5c-11.7-24.6-12.9-28.1-8.2-34 3.5-2.3 9.4-3.5 12.9-1.1zm75-1.2c7 0 9.4 2.3 17.6 19.9l7 15.2 8.2-15.2c8.2-17.6 10.6-19.9 16.4-19.9 5.9 0 10.6 4.7 10.6 9.4 0 1.1-4.7 14-11.8 26.9l-11.7 23.5 11.7 24.6c7.1 12.9 11.8 25.7 11.8 26.9 0 4.7-4.7 9.4-10.6 9.4-5.8 0-8.2-3.5-16.4-21.1l-8.2-14.1-7 15.3c-9.4 16.4-11.7 19.9-16.4 19.9l-5.9-1.2c-2.3 0-5.9-5.8-5.9-9.4l11.8-25.7 10.5-24.6q-1.2-3.2-2.5-6.3-1.2-3.1-2.5-6.1-1.4-3.1-2.7-6.2-1.4-3-2.8-6.1l-11.8-24.6c0-3.5 2.4-7 4.7-9.3zm-771.1 14c8.2 7.1 9.4 8.2 7.1 1.2-1.2-5.9-5.9-9.4-10.6-9.4h-3.5zm110.2 32.8l-1.2 5.9 8.2 1.2 7 1.1-14-14-1.2 5.8zm57.4 133.6c2.4 0 7-11.7 9.4-22.2 2.3-7.1 2.3-16.4 3.5-28.2l1.2-18.7-42.2-41-9.4-1.2q-7.7-0.8-15.5-1.4-7.7-0.5-15.5-1-7.8-0.4-15.5-0.7-7.8-0.3-15.6-0.4h-15.2zm-175.8-1.2q1.4 3 3 5.8 1.7 2.8 3.6 5.5 1.9 2.7 4.1 5.1 2.1 2.5 4.5 4.7c21.1 21.1 66.8 32.8 91.4 24.6l8.2-1.2c3.6 2.4 24.6-5.8 34-12.9q2.8-2 5.4-4.1 2.7-2.2 5.2-4.6 2.5-2.3 4.8-4.8 2.4-2.6 4.5-5.2l-7 3.5c-18.7 9.4-38.7 14.1-60.9 15.2-31.7 1.2-62.1-7-87.9-24.6l-11.7-7z"/>
	<path id="Layer" fill-rule="evenodd" class="s3" d="m968.5-1594.4l16.4-1.2q4.8-0.3 9.7 0.2 4.8 0.5 9.4 1.8 4.7 1.4 9 3.5 4.4 2.2 8.2 5.1c18.8 12.9 32.8 32.8 36.4 52.7 0.8 5.9 0.8 11.9 0.2 17.8-0.6 5.9-2 11.7-4 17.3-2.1 5.6-4.8 11-8.1 15.9-3.3 4.9-7.2 9.5-11.6 13.5-11.7 10.5-30.4 18.7-43.3 18.7-5.9 0-3.5 1.2 7 2.4 6 0.5 11.9 1.7 17.7 3.4 5.7 1.7 11.3 4 16.6 6.8 5.3 2.8 10.4 6.1 15 9.9 4.7 3.8 9 8 12.8 12.7 7 9.4 16.4 28.1 19.9 39.8 5.9 23.5 9.4 66.8 8.2 96.1q-0.2 4.3-0.3 8.5-0.1 4.3-0.1 8.5 0 4.3 0.1 8.5 0.1 4.3 0.3 8.5l-1.1 15.2c-2.4 3.6-5.9 3.6-9.4 1.2-3.5-2.3-4.7-16.4-3.5-43.4 2.3-71.4-2.4-104.2-18.8-126.5-16.4-23.5-43.3-36.3-75-36.3q-7-0.2-13.9 0.8-6.9 0.9-13.6 2.8-6.7 2-13 4.9-6.4 2.9-12.2 6.7c-19.9 12.9-28.1 26.9-34 51.6-2.3 10.5-2.3 16.4-2.3 59.7q0.3 9.6 0.3 19.1-0.1 9.5-0.5 19.1-0.5 9.5-1.3 19-0.8 9.5-2.1 19c0 4.7 0 5.9-2.3 8.2h-5.9c-3.5-2.3-4.6-3.5-3.5-16.4l2.4-58.6c1.1-60.9 3.5-76.2 15.2-99.6 4.7-9.4 7-12.9 15.2-21.1q2.2-2.3 4.5-4.5 2.3-2.1 4.8-4 2.5-1.9 5.2-3.6 2.7-1.7 5.5-3.1 4.8-2.4 9.8-4.4 5-2 10.2-3.6 5.1-1.6 10.4-2.8 5.2-1.3 10.6-2.1l10.5-1.2q-5.2-0.6-10.3-2-5.1-1.4-9.9-3.6-4.8-2.3-9.1-5.3-4.4-3-8.2-6.7c-6.3-5.8-11.6-12.5-15.7-20-4.2-7.5-7.1-15.5-8.6-23.9-1.6-8.4-1.8-17-0.7-25.5 1.2-8.4 3.7-16.7 7.4-24.3 2.2-4.4 4.9-8.5 8-12.3 3.1-3.8 6.6-7.2 10.4-10.3 3.8-3 8-5.6 12.4-7.7 4.4-2.1 9-3.8 13.8-4.9m-703.2 29.3v7l5.9 1.2q5.5 1.3 10.9 2.9 5.4 1.6 10.7 3.5 5.2 1.9 10.4 4.1 5.2 2.2 10.2 4.7l12.9 8.2c31.6 15.3 53.9 46.9 64.4 93.8l4.7 15.2 15.3-1.1c12.9 0 15.2 0 16.4 2.3 4.7 4.7 3.5 12.9-3.5 16.4l-15.3 1.2h-11.7l-1.2 5.8c-2.3 21.1-4.7 29.3-12.9 50.4-9.3 24.6-12.9 28.2-33.9 46.9-28.2 22.3-46.9 31.6-75 37.5l-10.6 1.2v12.9c-1.2 11.7-1.2 11.7-4.7 15.2-1.2 2.3-4.7 3.5-7 4.7-4.7 0-4.7 0-9.4-3.5l-3.5-4.7v-29.3l-12.9-1.2-56.2-16.4c-14.1-8.2-35.2-34-49.3-62.1-8.2-17.6-12.9-30.5-14-45.7v-8.2h-7.1c-8.2-1.2-12.8-3.5-14-9.4-2.4-8.2 3.5-14 14-14 4.7 0 7.1-2.4 7.1-9.4q1.2-7.6 3.4-15 2.3-7.4 5.5-14.4 3.3-7 7.5-13.4 4.3-6.5 9.4-12.3c26.9-36.3 36.3-44.5 57.4-52.7l21.1-9.4c11.7-5.9 21.1-8.2 28.1-9.4h5.9l1.1-5.8c0-12.9 2.4-21.1 5.9-23.5 8.2-5.8 10.5-1.1 14 25.8zm693.8-12.9c-3.5 1.5-6.9 3.3-10 5.5-3.1 2.2-5.9 4.7-8.4 7.6-2.6 2.8-4.8 5.9-6.6 9.2-1.8 3.4-3.3 6.9-4.3 10.5q-1.1 4.5-1.6 9-0.6 4.6-0.6 9.2 0 4.6 0.6 9.1 0.5 4.6 1.6 9.1c1 4.4 2.5 8.7 4.4 12.8 1.9 4.1 4.2 8 6.9 11.6 2.7 3.7 5.8 7 9.2 10 3.5 2.9 7.2 5.5 11.1 7.7 7.1 3.6 8.2 4.7 21.1 4.7 16.4 0 24.6-3.5 37.5-11.7 3.7-2.4 7.1-5.2 10.2-8.5 3-3.2 5.6-6.8 7.7-10.7 2.2-3.8 3.8-8 4.9-12.2 1.2-4.3 1.8-8.7 1.8-13.1 1.2-17.6-4.6-30.5-18.7-44.5q-3.4-3.1-7.1-5.6-3.7-2.6-7.7-4.7-4-2.1-8.2-3.6-4.2-1.6-8.6-2.6-4.4-0.7-8.8-0.9-4.5-0.3-8.9-0.2-4.4 0.2-8.8 0.8-4.4 0.5-8.7 1.5zm-731.3 44.5q-3.4 0.5-6.9 1.1-3.4 0.7-6.8 1.5-3.3 0.9-6.7 2-3.3 1.1-6.5 2.5c-19.9 7-27 12.9-45.7 36.3-19.9 23.4-29.3 41-31.6 58.6v5.9h4.6l15.3 1.1c10.5 0 14 1.2 16.4 5.9 1.2 4.7 0 11.7-3.5 14.1l-17.6 2.3h-15.2v5.9c0 25.7 30.4 75 53.9 86.7l17.5 5.8q5.5 1.7 11 3.2 5.6 1.5 11.1 2.8 5.6 1.4 11.2 2.5 5.6 1.1 11.3 2.1l1.1-4.7c1.2-5.9 8.2-19.9 11.8-19.9h3.5c1.1 0 5.8 12.9 7 23.4v7l7-1.1c12.9-1.2 36.4-10.6 48.1-17.6q4.3-3.1 8.6-6.3 4.2-3.2 8.3-6.5 4.1-3.4 8.1-6.9 4-3.6 7.8-7.3c7-8.2 10.5-15.2 16.4-32.8 4.7-14 8.2-28.1 8.2-35.1v-4.7h-12.9c-12.9 0-14 0-15.2-2.4q-0.3-0.6-0.6-1.4-0.2-0.7-0.4-1.4-0.1-0.8-0.2-1.5 0-0.8 0-1.5c1.2-3.5 1.2-4.7 7-5.9l14.1-3.5 8.2-1.2-1.2-3.5q-1.1-5.5-2.6-10.9-1.6-5.4-3.5-10.7-1.9-5.3-4.2-10.5-2.3-5.1-4.9-10.1c-7-15.2-19.9-30.4-29.3-37.5q-6.5-4.4-13.3-8.3-6.8-3.8-13.8-7.2-7.1-3.4-14.4-6.3-7.3-2.8-14.7-5.1l-7.1-1.2v14.1c0 10.5-3.5 17.5-10.5 17.5q-10.6 0-10.6-14c0-9.4-1.1-17.6-2.3-17.6zm758.2 495.7c5.8 7 2.3 21.1-18.8 64.5q-8.3 17.9-16.8 35.8-8.4 17.9-16.9 35.8-8.5 17.8-17 35.7-8.6 17.8-17.2 35.6-4.7 10.3-8.9 20.6-4.2 10.4-8 21-3.9 10.6-7.3 21.3-3.3 10.7-6.3 21.5v3.5l3.5-4.7 15.2-18.7q2.9-3.5 5.7-6.9 2.9-3.5 5.7-7 2.7-3.6 5.5-7.1 2.7-3.6 5.4-7.1l29.3-43.4q10-14.5 19.9-29.1 10-14.6 19.8-29.2 9.8-14.7 19.5-29.4 9.7-14.7 19.3-29.5c17.6-26.9 32.8-37.5 38.7-26.9 4.7 7 1.2 19.9-12.9 41q-6.9 10.9-13.3 22.1-6.5 11.2-12.5 22.6-6 11.5-11.6 23.1-5.5 11.7-10.6 23.6l-5.9 14q-3.8 10-7.3 20-3.5 10-6.8 20.1-3.2 10.1-6.1 20.3-2.9 10.2-5.6 20.5c-2.3 17.6 0 29.3 8.2 30.5 3.5 0 4.7-1.2 10.6-7.1q6.8-10.9 13.4-21.9 6.7-11 13.1-22.2 6.5-11.1 12.7-22.3 6.3-11.3 12.3-22.6 4.3-8 8.8-15.9 4.5-7.9 9.2-15.6 4.7-7.8 9.6-15.5 4.9-7.6 9.9-15.1c15.3-21.1 24.6-32.8 31.7-35.2 8.2-3.5 14 0 15.2 10.6 1.2 8.2 1.2 14-7 49.2-14.1 57.4-14.1 60.9-14.1 83.2 0 19.9 0 19.9 3.5 30.4 5.9 16.5 4.7 24.7-3.5 25.8-3.5 1.2-8.2-3.5-12.9-14q-2.1-4.8-3.8-9.9-1.6-5-2.6-10.2-1-5.2-1.5-10.4-0.4-5.3-0.3-10.5c0-16.5 0-23.5 3.5-41.1q1.8-7.8 3.6-15.6 1.8-7.7 3.7-15.5 1.9-7.8 3.9-15.5 2-7.8 4.1-15.5c1.1-3.5-20 28.2-29.3 44.6q-3.9 6.4-7.7 13-3.8 6.5-7.4 13.1-3.7 6.6-7.2 13.2-3.6 6.7-7 13.4-2.3 4.4-4.6 8.9-2.2 4.4-4.6 8.8-2.3 4.4-4.7 8.7-2.4 4.4-4.9 8.7c-17.6 29.3-35.1 46.9-48 46.9-17.6 0-29.3-25.8-25.8-53.9q2.4-11.8 5.1-23.5 2.8-11.7 6.1-23.3 3.2-11.5 6.8-23 3.7-11.4 7.8-22.8l-1.2 1.2q-1.8 2.3-3.6 4.6-1.8 2.3-3.6 4.7-1.7 2.3-3.4 4.7-1.8 2.4-3.5 4.8c-30.4 43.3-57.4 80.8-65.6 89-10.5 10.6-17.6 14.1-24.6 12.9-11.7-2.3-17.6-14-14.1-32.8 2.4-9.4 15.3-48 23.5-66.8l24.6-52.7q3.3-6.7 6.5-13.5 3.3-6.7 6.5-13.4 3.2-6.8 6.4-13.5 3.2-6.8 6.4-13.5 3.9-8.4 7.8-16.8 4-8.3 7.9-16.7 4-8.3 8-16.7 3.9-8.3 7.9-16.6c8.2-15.3 8.2-15.3 3.5-10.6l-42.2 50.4q-5.6 7.4-11.1 14.9-5.4 7.4-10.7 15.1-5.3 7.6-10.4 15.3-5 7.8-9.9 15.6c-50.4 78.6-59.8 89.1-75 89.1-4.7 0-5.9 0-9.4-4.7-9.4-9.4-8.2-25.8 3.5-62.1q5.1-15 11.3-29.6 6.2-14.6 13.4-28.7 7.2-14.1 15.4-27.7 8.2-13.5 17.3-26.5c2.4-2.3 4.7 0 5.9 3.5 1.1 2.4 0 5.9-8.2 20-25.8 45.7-42.2 91.4-46.9 123-1.2 11.7-1.2 14.1 1.2 12.9 3.5-1.2 18.7-23.4 41-56.3 35.1-53.9 53.9-79.6 83.2-114.8 23.4-28.1 34-38.7 41-42.2q12.3-7 17.6 0zm-635.2 15.2q4.4 1.2 8.6 2.6 4.2 1.5 8.4 3.3 4.1 1.7 8 3.8 4 2.1 7.8 4.4c8.2 7 25.8 28.1 30.5 37.5 8.2 17.6 5.9 43.4-5.8 68-2.3 4.2-5.1 8.2-8.2 11.9-3.1 3.6-6.6 6.9-10.5 9.9-3.8 2.9-7.9 5.4-12.3 7.4-4.3 2.1-8.9 3.7-13.6 4.8q-5.8 1.2-11.7 1.7-5.9 0.6-11.8 0.4-5.9-0.1-11.8-1-5.8-0.8-11.6-2.3c-25.7-8.2-44.5-24.6-52.7-48.1-2.3-9.3-2.3-11.7-2.3-25.7 0-18.8 2.3-29.3 9.3-42.2 7.1-15.3 29.3-35.2 41.1-37.5 8.2-1.2 32.8-1.2 38.6 1.1zm-29.3 15.3l-10.5 3.5c-7 0-11.7 2.3-19.9 11.7-3 3.2-5.6 6.7-7.9 10.5-2.3 3.7-4.2 7.7-5.7 11.8-1.5 4.1-2.6 8.3-3.3 12.7-0.7 4.3-0.9 8.7-0.7 13.1 0 12.8 2.3 19.9 7 30.4 7 12.9 24.6 27 41 30.5q5.1 0.9 10.3 1.2 5.1 0.4 10.3 0.3 5.2-0.2 10.3-0.8 5.1-0.7 10.1-1.9c12.9-3.5 18.8-5.8 27-14l10.5-16.4c11.8-29.3 8.3-50.4-10.5-70.4q-14.1-14-31.6-21.1-4.4-1.6-8.9-2.5-4.6-0.9-9.2-1.1-4.6-0.1-9.2 0.5-4.6 0.6-9.1 2zm-96.1 75c14.1 1.1 17.6 2.3 21.1 5.8 2.4 2.4 2.4 7.1 0 7.1-3.5 2.3-44.5 1.1-49.2 0-10.5-3.5-8.2-14.1 2.4-15.3 4.6-1.1 7-1.1 25.7 2.4zm32.9 31.6c4.6 0 5.8 8.2 1.1 11.7l-14 9.4-21.1 7c-9.4 0-11.8-1.1-11.8-5.8 0-4.7 3.6-7 14.1-10.6l18.8-7zm148.2 29.4q4.4-0.2 8.8-0.1 4.5 0.2 8.9 0.7 4.4 0.6 8.7 1.6 4.7 2.1 9.3 4.6 4.5 2.5 8.8 5.5 4.3 2.9 8.3 6.3 3.9 3.3 7.6 7.1 2.8 2.5 5.4 5.4 2.5 2.8 4.7 5.9 2.2 3.1 4.1 6.4 1.9 3.4 3.3 6.9l8.2 18.7-4.7 11.8-5.8 9.3-2.4-7c-17.5-39.8-28.1-53.9-46.8-63.3-5.9-2.3-9.4-3.5-18.8-3.5-7.9-0.5-15.9 0.3-23.6 2.5-7.7 2.2-14.9 5.7-21.4 10.4-6.5 4.7-12.1 10.4-16.6 17-4.5 6.6-7.9 13.9-9.9 21.7q-1.5 10.2-2.1 20.4-0.7 10.3-0.6 20.6 0.2 10.3 1.1 20.6 1 10.3 2.8 20.4c3.5 28.1 4.7 38.7 10.6 59.8l4.6 18.7c0 2.4-5.8 4.7-10.5 4.7-1.2 0-10.6-30.5-15.2-52.7-4.7-25.8-5.9-38.7-5.9-71.5 0-34 0-41 7-58.6q15.9-38.7 63.3-49.2 4.4-0.8 8.8-1.1zm-126 4.6c3.5 1.2 3.5 7 0 10.5l-10.5 17.6c-8.2 16.4-10.6 19.9-16.4 17.6l-2.4-3.5c-3.5-7.1 11.7-35.2 21.1-41 4.7-2.4 5.9-2.4 8.2-1.2zm675 356.2c3.5-3.5 7.1-2.3 8.2 0l4.7 23.5c4.7 24.6 4.7 44.5 1.2 53.9-1.2 4.7-2.4 5.8-5.9 5.8-5.8 1.2-7-1.1-7-36.3l-2.3-38.7c0-4.6 0-7 2.3-8.2zm126.6 37.5c1.1 3.6 0 4.7-14.1 23.5q-2.9 3.7-5.7 7.5-2.8 3.8-5.6 7.6-2.8 3.8-5.5 7.6-2.8 3.9-5.5 7.7c-9.3 15.3-14 20-16.4 20-2.3 0-1.1-2.4 7.1-18.8q3.2-6.6 6.8-13 3.6-6.4 7.5-12.5 4-6.2 8.3-12.1 4.3-5.9 9-11.6c9.4-10.5 12.9-11.7 14.1-5.9zm-237.9 11.8l8.2 9.3c9.3 15.3 14 21.1 23.4 31.7 12.9 15.2 15.2 22.2 10.6 26.9-2.4 2.4-3.6 2.4-7.1 0-7-4.7-38.6-51.5-41-59.7l2.4-5.9zm-562.5 65.6l12.8 79.7c0 5.9-3.5 12.9-7 15.2-10.5 7.1-18.7 2.4-23.4-11.7-2.4-8.2-4.7-34-5.9-57.4 0-23.4 0-23.4 2.4-26.9q0.4-0.7 0.9-1.4 0.6-0.6 1.2-1.2 0.6-0.6 1.2-1.1 0.6-0.6 1.3-1c7.1-2.4 14.1 0 16.5 5.8zm82 15.3c4.7 0 5.8 3.5 9.4 18.7l4.6 15.2q1.1-0.6 2.2-1.3 1.1-0.7 2.1-1.4 1-0.7 2-1.5 1-0.8 2-1.6c18.7-16.4 22.2-17.6 28.1-12.9 4.7 4.7 3.5 8.2-10.6 25.8l-14 16.4q3.5 2.5 7.1 4.9 3.6 2.5 7.3 4.8 3.7 2.4 7.4 4.6 3.7 2.3 7.5 4.4c9.3 4.7 11.7 8.2 11.7 12.9 0 2.4-4.7 8.2-7 8.2l-31.7-15.2-5.8-3.5 1.1 12.9v16.4c-2.3 8.2-11.7 10.5-16.4 5.8-2.3-2.3-3.5-7-5.8-14l-3.6-11.7-9.3 5.8c-14.1 11.7-23.5 12.9-29.3 5.9-4.7-4.7-4.7-8.2-4.7-14.1 1.2-4.7 3.5-7 9.4-7q8.7-1.8 21.1-14.1c5.8-7 7-5.8-8.3-14-19.9-10.6-26.9-22.3-18.7-29.3 2.3-3.6 5.9-2.4 19.9 5.8l14.1 8.2v-15.2c0-14.1 1.2-15.3 3.5-17.6zm-207.4 10.6q5.2-1.4 10.6-1.8 5.4-0.4 10.8 0 5.3 0.5 10.6 1.8 5.2 1.3 10.2 3.5c25.7 12.9 39.8 49.2 31.6 80.8-9.4 31.7-36.3 44.6-48 23.5q-0.4-0.8-0.8-1.6-0.3-0.8-0.8-1.5-0.4-0.7-0.9-1.4-0.5-0.7-1.1-1.4l-2.3 3.5c-2.3 4.7-10.5 12.9-16.4 14.1h-8.2c-9.4-2.4-15.2-8.2-19.9-19.9-12.9-27 4.7-70.4 29.3-70.4q2.2 0 4.4 0.4 2.2 0.4 4.3 1.1 2.1 0.8 4 1.9 1.9 1.1 3.7 2.5c1.1 2.4 2.3 2.4 3.5-3.5 2.3-5.9 4.7-8.2 8.2-5.9 3.5 2.4 4.7 5.9 3.5 16.4-2.3 12.9-2.3 18.8-1.2 23.5 1.2 3.5 0 4.7-1.1 7-2.4 2.4-1.2 16.4 2.3 23.4 3.5 8.2 11.7 8.2 17.6-1.1 5.8-9.4 8.2-18.8 8.2-34 0-11.7 0-14.1-2.4-19.9-8.2-16.4-22.2-24.6-43.3-24.6-4.8-0.2-9.7 0.2-14.4 1-4.8 0.8-9.4 2.1-13.9 3.8-4.5 1.7-8.9 3.8-13 6.3-4.1 2.6-7.9 5.5-11.5 8.8-5.5 5.5-10 12.1-12.9 19.4-3 7.3-4.5 15.1-4.4 23 0.1 7.9 1.8 15.7 5 22.9 3.2 7.2 7.8 13.7 13.5 19.1 17.6 18.7 44.6 23.4 71.5 12.8 15.2-5.8 28.1-17.5 44.5-36.3 8.2-9.4 11.8-11.7 15.3-8.2 3.5 4.7-2.4 16.4-17.6 31.7q-3.8 4.2-8 8-4.3 3.8-8.8 7.2-4.6 3.4-9.5 6.4-4.9 2.9-10 5.3-4.4 2.3-8.9 4-4.6 1.7-9.3 2.9-4.8 1.2-9.6 1.8-4.9 0.6-9.7 0.7c-8.1 0.1-16.1-1.2-23.7-3.8-7.7-2.6-14.8-6.5-21.2-11.4-6.3-5-11.8-11-16.1-17.8-4.3-6.8-7.5-14.3-9.3-22.1q-1-5.2-1.5-10.5-0.4-5.3-0.2-10.7 0.1-5.3 0.8-10.5 0.8-5.3 2-10.5c8.2-32.8 30.5-52.7 64.5-60.9zm993.7 4.7c4.7 0 7.1 5.8 2.4 9.3-3.5 3.6-57.5 24.7-61 24.7-2.3 0-4.7-4.7-3.5-7.1 0-2.3 1.2-2.3 41-18.7zm-391.4 19.9l23.5 5.9q1.9 0.3 3.9 0.8 1.9 0.5 3.8 1.1 1.9 0.6 3.8 1.3 1.9 0.7 3.7 1.4v9.4c0 1.2-1.2 3.5-3.5 3.5-7.1 2.4-44.6-9.3-51.6-16.4-2.3-2.3-2.3-7 1.2-9.4 2.3-2.3 2.3-1.1 15.2 2.4zm-604.7 26.9c-8.2 4.7-11.7 14.1-11.7 28.2 0 15.2 3.5 22.2 10.6 22.2 11.7 0 19.9-15.2 23.4-41 0-7 0-7-3.5-9.4q-2-1.5-4.3-2.4-2.4-0.9-4.9-1.1-2.5-0.1-5 0.5-2.4 0.6-4.6 1.9zm146.5 56.2c4.7 12.9-2.3 27-15.2 28.1-12.9 1.2-19.9-14-14.1-28.1 2.4-4.7 7.1-8.2 12.9-9.4 8.2-1.1 12.9 1.2 16.4 9.4zm819.2 1.2l25.7 5.9 17.6 5.8c2.4 2.4 1.2 7-1.2 9.4-2.3 2.3-2.3 2.3-16.4 0l-39.8-11.7c-3.5-1.2-4.7-4.7-3.5-8.2 2.3-4.7 4.7-4.7 17.6-1.2zm-303.6 19.9c2.4 0 5.9 4.7 5.9 7l-1.2 3.6c-2.3 3.5-38.6 17.5-44.5 17.5-2.3 0-4.7-3.5-4.7-7 1.2-2.3 4.7-4.7 22.3-11.7zm59.7 52.7c2.4 4.7 2.4 3.5-18.7 31.7-22.3 29.3-29.3 36.3-34 35.1-3.5-1.1-4.7-5.8-4.7-9.4q1.4-2.2 2.9-4.3 1.5-2.1 3.1-4.2 1.6-2.1 3.4-4 1.7-2 3.5-3.9l24.6-28.1c14.1-16.4 16.4-17.6 19.9-12.9zm180.5 10.6l16.4 23.4 12.9 19.9v7.1l-4.7 3.5c-4.7 1.2-11.7-7.1-22.2-25.8-16.4-29.3-20-36.3-16.4-39.8 3.5-2.4 5.8-1.2 14 11.7zm-110.1 5.8c2.3 1.2 3.5 1.2 3.5 9.4q-0.6 9.6-1.5 19.2-1 9.6-2.3 19.1-1.3 9.5-3 19-1.7 9.5-3.8 18.9c-2.3 2.3-5.8 1.2-7-2.4-2.3-3.5-1.2-23.4 0-32.8l10.5-48c0-2.4 1.2-2.4 3.6-2.4zm-673.9 256.7c3.5 3.5 8.2 15.2 8.2 19.9 0 4.7 0 4.7 4.7 1.2l11.7-2.4c11.8 0 15.3 2.4 21.1 10.6q1.7 2.6 3 5.4 1.3 2.8 2.2 5.8 0.9 3 1.4 6 0.4 3.1 0.5 6.2v9.4h7c3 0.1 6.1 0.6 9 1.5 2.9 0.9 5.7 2.2 8.2 3.8 2.6 1.7 4.9 3.6 7 5.9 2 2.3 3.7 4.8 5.1 7.5 3.5 9.4 4.7 21.1 4.7 84.4-1.2 76.2-2.4 89.1-7.1 109-7 26.9-29.2 56.2-51.5 66.8q-4.3 2-8.8 3.8-4.4 1.8-9 3.2-4.5 1.5-9.2 2.7-4.6 1.1-9.3 2-5.9 0.3-11.8 0.2-5.9-0.1-11.8-0.5-5.9-0.5-11.7-1.3-5.8-0.8-11.6-1.9c-38.7-8.2-64.5-27-75-52.7-4.7-8.2-12.9-37.5-14.1-46.9q-0.7-14.9-1.1-29.9-0.4-14.9-0.4-29.9 0-14.9 0.4-29.9 0.4-14.9 1.1-29.8c4.7-20 16.4-30.5 31.7-29.3l8.2 1.1c2.3 1.2 2.3 0 2.3-22.2 0-30.5 1.2-37.5 2.4-43.4 4.6-16.4 24.6-24.6 37.5-15.2l4.6 2.3q0.3-0.7 0.5-1.4 0.2-0.8 0.3-1.5 0.1-0.7 0.2-1.5 0.2-0.7 0.2-1.4c0.3-2.9 1-5.7 2.1-8.4 1.2-2.6 2.7-5.1 4.6-7.3 1.8-2.2 4-4.1 6.5-5.6 2.4-1.5 5.1-2.7 7.9-3.4 9.4-2.3 22.3 0 28.1 7.1zm-28.1 9.3q-0.7 0.5-1.3 1.1-0.7 0.5-1.2 1.1-0.6 0.6-1.2 1.2-0.5 0.7-1 1.3c-2.3 3.6-3.5 5.9-3.5 29.3l-1.2 34-1.1 45.7-1.2 38.7 17.6 1.2h16.4q0.1-18.6-0.1-37.3-0.1-18.6-0.4-37.2-0.2-18.6-0.7-37.2-0.5-18.6-1.2-37.2l-5.8-4.7q-1.7-0.6-3.5-0.9-1.8-0.3-3.6-0.3-1.8 0-3.5 0.3-1.8 0.3-3.5 0.9zm-45.7 24.7c-4.7 2.3-5.9 8.2-8.2 30.4q-0.5 5.4-0.8 10.8-0.3 5.5-0.4 10.9-0.2 5.4-0.2 10.8 0 5.5 0.2 10.9l2.4 62.1v42.2h8.2c23.4 2.3 48 25.8 53.9 52.7 1.2 7 1.2 21.1-1.2 23.5-2.3 2.3-5.9 2.3-7 1.1l-3.5-14-5.9-18.8q-3.3-5.5-7.6-10.4-4.2-4.8-9.4-8.7-5.1-3.9-10.8-6.8-5.8-2.8-12-4.6c-3.6 0-4.7 0-7.1 2.4-3.5 3.5-7 3.5-10.5-1.2l-2.4-2.3v-49.2c0-52.8 0-52.8-5.8-57.5-4.7-4.7-14.1-2.3-17.6 4.7-4.7 10.6-7 38.7-5.9 69.2v35.1c0 8.2 0 14.1 2.4 25.8 7 31.6 12.9 44.5 22.2 55.1 11.8 11.7 28.2 19.9 50.4 26.9 9.4 2.4 12.9 2.4 25.8 2.4q2.5 0.2 5 0.3 2.5 0 5-0.1 2.5-0.2 5-0.5 2.5-0.4 4.9-0.9 0.9-0.3 1.7-0.6 0.9-0.2 1.8-0.3 0.9-0.2 1.8-0.3 0.9 0 1.8 0c4.7 0 22.2-7 31.6-12.9q3.7-2.2 7.1-4.8 3.4-2.6 6.5-5.5 3.1-3 5.9-6.3 2.7-3.2 5.1-6.8c14.1-21.1 17.6-31.6 18.8-76.2q-0.1-5.8-0.1-11.7 0.1-5.9 0.2-11.7 0.2-5.9 0.4-11.7 0.3-5.9 0.6-11.7l-1.1-45.7c0-34 0-36.4-2.4-41.1-4.7-9.3-17.5-12.9-21.1-4.7-2.3 4.7-4.7 32.9-4.7 61 0 24.6 0 25.8 2.4 25.8 3.5 2.3 4.7 4.7 1.2 8.2-2.4 2.3-7.1 2.3-24.6 0q-8.2-0.9-16.4-1.6-8.2-0.6-16.4-1-8.2-0.5-16.4-0.7-8.2-0.2-16.5-0.2c-22.2 0-24.6-1.2-25.8-4.7 0-2.4 1.2-2.4 4.7-4.7l5.9-2.4v-24.6q0.3-9.9 0.5-19.9 0.3-10 0.4-19.9 0.2-10 0.2-19.9 0.1-10 0.1-20c1.1-2.3-2.4-15.2-4.7-19.9-4.7-5.8-12.9-9.4-17.6-5.8zm91.4 1.1c-8.2 3.5-8.2 7.1-9.4 64.5q-0.1 7.9-0.3 15.8-0.3 7.9-0.7 15.9-0.5 7.9-1.1 15.8-0.6 7.9-1.4 15.8c0 1.1 27 3.5 28.1 2.3q0.8-10.2 1.5-20.5 0.6-10.2 1-20.5 0.5-10.2 0.7-20.5 0.3-10.3 0.4-20.5v-39.9l-3.6-7c-2.3-2.3-9.3-3.5-15.2-1.2zm780.5 75c4.7 1.2 7 3.5 8.2 7.1 1.2 3.5 1.2 4.6-10.6 28.1l-11.7 24.6 10.6 23.4q1.8 3.2 3.5 6.5 1.6 3.3 3.1 6.7 1.4 3.4 2.7 6.8 1.3 3.5 2.4 7c0 7-7.1 11.7-14.1 9.4-3.5-1.2-4.7-4.7-11.7-17.6l-8.2-16.4-8.2 15.2-10.6 17.6c-1.5 1-3.3 1.6-5.2 1.8-1.8 0.1-3.7-0.3-5.3-1.1-1.7-0.9-3.1-2.1-4.1-3.7-1.1-1.6-1.7-3.4-1.8-5.2q1.3-3.3 2.7-6.6 1.4-3.2 2.8-6.5 1.5-3.2 3.1-6.4 1.5-3.2 3.2-6.3l11.7-24.6-11.7-23.4-11.8-25.8c0.1-1.9 0.7-3.7 1.8-5.2 1-1.6 2.4-2.9 4.1-3.7 1.6-0.8 3.5-1.2 5.3-1.1 1.9 0.1 3.7 0.7 5.2 1.8l10.6 17.6 8.2 15.2 8.2-16.4c7-14.1 8.2-16.4 11.7-17.6 2.4-1.2 4.7-2.3 5.9-1.2zm-205.1 2.4l9.4 17.6 8.2 15.2 8.2-15.2c8.2-16.5 10.5-20 16.4-20 5.8 0 10.5 4.7 10.5 9.4 0 2.3-4.7 14.1-11.7 25.8l-10.5 24.6q1.2 3.1 2.4 6.2 1.3 3.1 2.6 6.2 1.3 3.1 2.7 6.1 1.4 3.1 2.8 6.1c7 12.9 11.7 24.6 11.7 27 0 4.6-4.7 9.3-10.5 9.3-5.9 0-8.2-3.5-16.4-18.7l-7.1-16.4q-1.3 1.9-2.6 3.9-1.3 2-2.4 4.1-1.2 2-2.3 4.1-1.1 2.1-2 4.3l-10.6 17.6c-7 3.5-15.2-1.2-15.2-8.2 0-3.6 3.5-12.9 11.7-28.2l10.6-23.4-11.8-23.4c-11.7-24.7-12.9-29.3-8.2-34 4.7-3.5 10.6-3.5 14.1 0zm80.9 1.1l9.3 17.6 8.2 14.1q1.2-1.8 2.3-3.7 1.1-1.9 2.1-3.8 1-1.9 2-3.8 0.9-2 1.8-3.9l9.4-17.6 7-2.4c3.6 0 4.7 1.2 7.1 3.5l3.5 5.9q-3 5.9-5.9 11.9-2.8 5.9-5.6 11.9-2.8 6.1-5.5 12.1-2.7 6.1-5.3 12.2c-1.1 3.5-1.1 3.5 10.6 26.9l11.7 25.8-3.5 7c-2.4 2.4-3.5 3.5-7.1 3.5q-0.9 0.1-1.8-0.1-1-0.1-1.9-0.4-0.9-0.3-1.7-0.8-0.8-0.4-1.6-1l-9.4-17.6-8.2-15.2-8.2 15.2-9.3 17.6c-7.1 5.8-18.8 0-17.6-9.4q1.4-3.3 2.9-6.6 1.5-3.2 3.1-6.5 1.6-3.2 3.4-6.4 1.7-3.1 3.5-6.3l10.5-22.2-11.7-23.5c-12.9-25.8-12.9-30.4-8.2-35.1 4.7-3.5 10.5-3.5 14.1 1.1z"/>
	<path id="Layer" fill-rule="evenodd" class="s4" d="m972-1594.4q4.3-0.6 8.6-0.7 4.2-0.2 8.5 0.1 4.3 0.3 8.5 1.1 4.3 0.7 8.4 1.9 6.6 2.7 12.6 6.4 6 3.7 11.4 8.3 5.4 4.7 10 10.1 4.5 5.4 8.2 11.5c22.3 37.5 3.5 86.7-38.7 101.9q-4.8 1.7-9.7 2.7-5 1-10 1.2-5.1 0.3-10.1 0-5.1-0.4-10-1.5c-23.5-5.9-39.9-23.5-49.2-48.1-2.4-7-2.4-10.5-2.4-23.4q-0.3-2.8-0.4-5.6 0-2.8 0.1-5.6 0.2-2.8 0.5-5.6 0.4-2.7 1-5.5c9.4-28.1 30.5-46.8 53.9-49.2m-712.5 3.5c1.2 2.4 4.7 18.8 4.7 25.8 0 5.9 1.1 7 9.4 9.4 14 3.5 31.6 9.4 41 15.2l19.9 11.7c25.8 15.3 48 49.3 57.4 90.3l2.4 14 16.4-1.1c15.2 0 15.2 0 16.4 2.3 3.5 3.5 3.5 10.6 0 14.1-3.5 2.3-7.1 3.5-20 3.5-11.7 0-11.7 0-11.7 8.2 0 17.6-16.4 62.1-28.1 76.2-5.9 7-24.6 22.2-38.7 32.8-15.2 10.5-32.8 18.7-51.5 22.2l-12.9 2.4c-2.4 0-2.4 0-2.4 11.7 0 14.1-1.1 17.6-9.3 19.9-4.7 1.2-9.4 0-11.8-4.7-2.3-3.5-2.3-5.8-2.3-17.5l1.2-14.1-11.8-1.2c-12.8-2.3-51.5-14-58.5-17.6-8.2-3.5-25.8-22.2-35.2-37.5-16.4-24.6-24.6-43.3-27-65.6l-1.1-11.7-7.1-1.2c-9.3 0-14-4.7-14-11.7 0-5.9 3.5-9.4 11.7-10.5 9.4-1.2 9.4-1.2 9.4-4.7q0.5-5.6 1.7-11.1 1.2-5.5 3-10.8 1.7-5.3 4.1-10.4 2.3-5.1 5.2-9.9l37.5-49.2c11.8-11.8 17.6-15.3 31.7-21.1l18.7-7.1c10.6-5.8 23.5-10.5 31.7-11.7 5.8 0 5.8 0 5.8-4.7q0-3 0.3-6 0.3-3 0.9-5.9 0.6-3 1.4-5.9 0.9-2.8 2.1-5.6c2.4-2.3 7-3.5 9.4-1.2zm699.6 12.9c-3.9 1.6-7.6 3.7-10.9 6.2-3.4 2.5-6.5 5.4-9.1 8.7-2.7 3.2-4.9 6.8-6.7 10.6-1.7 3.9-3 7.9-3.8 12q-1.1 5-1.5 10.1-0.3 5 0.1 10.1 0.5 5.1 1.7 10 1.2 5 3.2 9.7c8.2 22.2 23.5 36.3 43.4 38.6 4.8 0.6 9.7 0.7 14.5 0.2 4.8-0.6 9.5-1.6 14.1-3.3 4.6-1.6 8.9-3.7 13-6.4 4.1-2.6 7.8-5.7 11.1-9.2 3.2-3.1 6-6.5 8.3-10.2 2.3-3.7 4.2-7.7 5.7-11.9 1.4-4.1 2.3-8.5 2.7-12.8 0.5-4.4 0.4-8.8-0.3-13.2-1.2-5.3-3-10.5-5.5-15.4-2.4-4.9-5.5-9.5-9-13.6-3.6-4.2-7.7-7.9-12.1-11.1-4.5-3.2-9.3-5.9-14.4-7.9-5.8-2.4-9.3-3.5-22.2-3.5-14.1 0-17.6 0-22.3 2.3zm-732.4 44.5q-2.7 0.4-5.4 0.8-2.6 0.5-5.3 1.1-2.6 0.6-5.2 1.3-2.6 0.7-5.2 1.5-1.9 0.8-3.8 1.5-1.9 0.8-3.8 1.5-1.9 0.7-3.8 1.4-1.9 0.8-3.9 1.5c-7 2.3-16.4 9.4-22.2 16.4-14.1 16.4-31.7 39.8-36.3 50.4-4.7 8.2-9.4 29.3-8.3 30.5l16.5 1.1c14 0 15.2 1.2 17.5 3.5 3.5 3.6 3.5 11.8 0 15.3-2.3 1.2-4.7 2.3-18.7 2.3l-15.3 1.2v5.9c0 19.9 17.6 53.9 38.7 75 12.9 12.8 14.1 12.8 56.3 23.4 24.6 7 22.2 7 23.4 0 1.2-9.4 8.2-19.9 11.7-19.9 3.5 0 8.2 12.9 8.2 23.4l1.2 8.2q10.1-1.5 19.8-4.4 9.8-3 19-7.3 9.2-4.3 17.7-9.9 8.5-5.6 16.2-12.4c19.9-16.4 23.4-22.2 31.6-43.3 4.7-15.3 8.2-29.3 8.2-37.5v-4.7h-12.9c-9.4 0-12.9 0-14.1-2.4-2.3-1.1-2.3-7-1.1-9.3 1.1-1.2 11.7-4.7 21.1-5.9h7v-5.9q-2.1-8.9-5.2-17.6-3-8.6-7-16.9-4-8.3-8.9-16.1-4.9-7.8-10.5-15-1.8-1.9-3.6-3.8-1.8-1.8-3.7-3.6-1.9-1.8-3.9-3.4-2-1.7-4.1-3.2c-15.2-10.6-44.5-24.7-58.6-25.8l-4.7-1.2v9.4c1.2 10.5-1.1 18.7-4.6 21.1-3.6 2.3-8.2 1.1-11.8-2.4-2.3-2.3-2.3-3.5-3.5-15.2v-12.9h-3.5zm774.6 87.9c7.8 1 15.4 3 22.6 6 7.3 3 14 7 20.2 11.8 6.2 4.8 11.7 10.5 16.3 16.8 4.7 6.3 8.4 13.2 11.2 20.5 7.1 15.2 10.6 34 14.1 66.8 1.2 16.4 0 93.7-1.2 96.1h-8.2c-3.5-2.4-4.7-14.1-3.5-59.8 2.3-49.2-2.3-83.2-14.1-103.1q-3.1-5.5-7-10.5-3.9-4.9-8.6-9.3-4.6-4.3-9.8-7.9-5.2-3.5-10.9-6.3c-44.5-22.3-103.1-5.9-123 34-9.4 19.9-9.4 25.8-10.6 82 0 38.7 0 51.6-2.3 59.8l-1.2 17.5c1.2 5.9-1.2 8.3-4.7 8.3-5.8 0-5.8-1.2-4.7-30.5l1.2-49.2c0-70.3 11.7-105.5 42.2-126.6 12.9-7 31.6-14.1 46.9-16.4zm-15.3 407.8c2.4 2.4 2.4 3.5 2.4 10.6-1.2 11.7-5.9 22.2-19.9 51.5q-9 18.8-18.1 37.6-9 18.8-18.1 37.5-9.1 18.8-18.2 37.5-9.1 18.7-18.3 37.4-2.9 6.3-5.6 12.6-2.7 6.4-5.2 12.9-2.5 6.4-4.8 12.9-2.3 6.6-4.3 13.2c-4.7 14-8.2 29.3-7.1 30.4 1.2 2.4 29.3-33.9 52.8-66.7l87.9-131.3c24.6-38.7 37.5-49.2 45.7-41 2.3 3.5 2.3 4.7 2.3 10.5-1.2 8.2-4.7 17.6-16.4 35.2-18.7 29.3-38.7 69.1-51.6 100.8q-3.7 9.9-7.2 19.9-3.5 10.1-6.7 20.2-3.2 10.1-6.2 20.3-2.9 10.2-5.6 20.4c-2.4 11.7-1.2 23.5 2.3 28.2 3.5 4.6 8.2 4.6 15.2-1.2 10.6-10.6 18.8-24.6 43.4-71.5q6.9-14.5 14.6-28.6 7.8-14.2 16.3-27.8 8.5-13.7 17.8-26.8 9.3-13.2 19.3-25.8c10.5-10.5 19.9-11.7 24.6-3.5 2.3 5.9 1.1 22.3-3.5 41-21.1 86.7-22.3 106.7-11.8 133.6 3.6 9.4 3.6 12.9 0 17.6-3.5 2.3-8.2 3.5-10.5 0q-2-2.7-3.7-5.5-1.7-2.8-3.2-5.7-1.5-3-2.7-6-1.2-3.1-2.1-6.3c-3.5-11.7-4.7-33.9-2.4-50.3 1.2-15.3 5.9-32.9 12.9-61l4.7-22.2q-8.1 12.3-16 24.8-7.8 12.6-15.3 25.3-7.4 12.8-14.6 25.7-7.1 13-13.9 26.1c-31.6 60.9-53.9 84.4-72.6 76.2-16.4-7.1-23.4-32.8-17.6-61q1.9-8.4 4.1-16.8 2.1-8.4 4.4-16.8 2.4-8.3 4.9-16.6 2.6-8.3 5.4-16.6l7-19.9-21.1 29.3q-6.6 9.9-13.4 19.6-6.7 9.8-13.6 19.5-6.9 9.6-13.9 19.2-7 9.6-14.2 19.1c-14 16.4-24.6 21.1-35.1 16.4-7.1-3.5-10.6-9.4-9.4-21.1 0-9.4 1.2-14.1 10.5-42.2q4-10.7 8.2-21.2 4.3-10.5 8.8-20.9 4.6-10.4 9.4-20.7 4.8-10.3 10-20.4 7.8-16.1 15.5-32.2 7.8-16.1 15.6-32.2 7.7-16.2 15.5-32.3 7.7-16.1 15.5-32.2c5.8-12.9 5.8-12.9-16.4 14q-10 11.5-19.5 23.4-9.5 11.8-18.6 24-9.1 12.2-17.7 24.6-8.7 12.5-16.9 25.3l-43.3 65.6c-11.8 14.1-21.1 18.8-30.5 16.4-10.6-3.5-14.1-17.5-9.4-38.6 9.4-38.7 27-79.7 53.9-124.3l11.7-15.2c3.5 0 4.7 2.4 4.7 5.9q-0.8 2.1-1.7 4.2-0.9 2.2-1.9 4.2-1 2.1-2.2 4.1-1.1 2-2.4 3.9-5.3 9-10.1 18.4-4.9 9.3-9.3 18.8-4.4 9.6-8.3 19.3-4 9.7-7.4 19.7c-9.4 28.1-16.4 60.9-11.8 60.9 4.7 0 16.4-16.4 42.2-55.1q9.6-15.3 19.6-30.3 10.1-15 20.6-29.7 10.6-14.7 21.6-29 11.1-14.3 22.6-28.2c28.1-32.8 34-39.8 43.4-43.3 7-2.4 10.5-1.2 14 2.3zm-616.4 22.3q5 2.3 9.6 5.3 4.6 3 8.7 6.5 4.2 3.6 7.8 7.7 3.7 4.1 6.7 8.6c11.8 14.1 14.1 18.7 15.3 32.8q0.5 5.4 0.4 10.7-0.1 5.4-0.9 10.7-0.7 5.4-2.1 10.6-1.3 5.2-3.3 10.2c-1.2 3.9-2.9 7.8-4.9 11.4-2 3.6-4.4 7-7.1 10.1-2.7 3.1-5.7 5.9-9 8.4-3.3 2.5-6.9 4.7-10.6 6.4-12.9 7.1-24.6 9.4-41 8.2-5.4 0.2-10.7-0.3-15.9-1.2-5.3-1-10.4-2.5-15.3-4.5-4.9-2-9.6-4.5-14.1-7.5-4.4-3-8.5-6.4-12.2-10.2-15.2-16.4-21.1-30.5-19.9-57.4-0.2-5.3 0.3-10.6 1.3-15.8 1-5.2 2.5-10.3 4.7-15.1 2.1-4.9 4.7-9.5 7.9-13.7 3.1-4.3 6.7-8.2 10.7-11.7 15.3-15.2 19.9-17.6 34-18.7 23.4-1.2 30.5 0 49.2 8.2zm-41 5.8q-1.3 0.4-2.7 0.8-1.3 0.4-2.6 0.8-1.3 0.5-2.6 0.9-1.4 0.5-2.6 1c-5.9 2.4-8.2 2.4-9.4 1.2-4.7-2.3-22.3 14.1-28.1 27q-2.3 5.3-4 11-1.6 5.6-2.5 11.4-0.8 5.8-1 11.6-0.2 5.9 0.4 11.7c1.2 6 3.2 11.8 6 17.3 2.8 5.4 6.4 10.5 10.7 14.9 4.2 4.5 9 8.3 14.4 11.3 5.3 3.1 11 5.4 17 6.9q6.7 1.3 13.6 1.6 6.9 0.3 13.8-0.4 6.8-0.8 13.5-2.5 6.7-1.8 13-4.6c10.5-5.9 18.7-12.9 23.4-23.4 9.4-20 10.6-41 3.5-55.1q-2.6-4.7-5.7-9-3.1-4.4-6.6-8.3-3.6-4-7.5-7.6-4-3.6-8.3-6.7c-14.1-9.4-34-14.1-45.7-11.8zm-101.9 77.4c15.2 2.3 18.7 3.5 22.2 8.2 2.4 4.7-1.2 4.7-25.8 4.7-26.9 0-30.4 0-31.6-7.1q-0.1-0.8 0-1.6 0.2-0.8 0.5-1.6 0.3-0.7 0.8-1.4 0.4-0.7 1-1.2c3.6-3.5 11.8-3.5 32.9 0zm31.6 31.6c1.2 0 3.5 3.5 3.5 5.9 0 4.7-3.5 7-17.6 15.2q-2.4 1.4-4.9 2.6-2.6 1.2-5.2 2-2.7 0.9-5.4 1.5-2.8 0.6-5.6 0.9c-4.7 0-7 0-8.2-2.3-5.8-4.7-1.1-9.4 11.8-14.1l21-7zm143 30.5h21.1c10.6 1.1 21.1 5.8 32.8 14 15.3 10.6 22.3 21.1 32.8 44.6l4.7 10.5-1.2 3.5-5.8 9.4-3.5 4.7-2.4-5.9c-4.7-11.7-15.2-31.6-19.9-38.6q-3.4-5.2-7.8-9.6-4.3-4.4-9.5-7.9-5.1-3.4-10.8-5.8-5.7-2.4-11.7-3.7c-5.9-0.7-11.9-0.7-17.8 0-5.9 0.7-11.7 2-17.2 4.1-5.6 2-10.9 4.7-15.9 7.9-5 3.3-9.5 7.1-13.6 11.4q-2.7 3.6-5 7.3-2.3 3.8-4.2 7.8-2 4-3.5 8.1-1.5 4.2-2.5 8.5c-3.5 15.2-2.4 44.5 2.3 76.2q0.9 7.7 2.1 15.3 1.1 7.7 2.6 15.4 1.5 7.6 3.2 15.1 1.8 7.6 3.8 15.1l4.7 21.1c-2.3 1.2-9.3 3.5-10.5 2.3q-5.6-14.8-9.7-30.1-4.1-15.3-6.8-31-2.6-15.6-3.8-31.4-1.2-15.8-0.8-31.7c0-26.9 0-35.1 5.8-52.7 9.4-29.3 34-48.1 68-52.8zm-119.5 4.7c2.3 2.4 1.2 5.9-2.4 9.4q-1.4 1.9-2.6 3.9-1.3 2-2.5 4-1.2 2.1-2.2 4.2-1.1 2.1-2 4.3c-2.4 7-5.9 14.1-8.2 15.2-4.7 5.9-10.6 3.6-10.6-2.3 0-8.2 10.6-28.1 18.8-36.3 4.7-3.5 9.3-4.7 11.7-2.4zm683.2 355.1l3.5 19.9c3.5 25.8 4.7 50.4 1.2 57.5-3.5 5.8-8.2 8.2-10.6 3.5q0.1-8.4-0.1-16.8-0.2-8.3-0.7-16.7-0.4-8.3-1.1-16.7-0.7-8.3-1.6-16.6v-12.9c1.2-2.4 8.2-3.5 9.4-1.2zm117.2 39.9q-4.8 6-9.5 12.2-4.7 6.2-9.3 12.5-4.5 6.3-8.9 12.7-4.4 6.4-8.7 12.9c-9.3 15.3-14 21.1-16.4 21.1-2.3 0-1.1-3.5 3.6-11.7q4.3-8.8 9.3-17.3 5-8.4 10.6-16.5 5.6-8.1 11.7-15.8 6.2-7.6 12.9-14.8c2.3-2.4 4.7 0 4.7 4.7zm-229.7 19.9q2.6 4 5.4 8 2.7 3.9 5.7 7.7 2.9 3.8 6 7.5 3.1 3.7 6.3 7.2c8.2 9.4 12.9 17.6 12.9 21.1 0 3.6-4.7 8.2-8.2 7.1l-26.9-35.2c-14.1-22.3-16.4-28.1-12.9-31.6 3.5-2.4 5.8-1.2 11.7 8.2zm-574.2 51.5c3.5 2.4 3.5 3.6 9.3 38.7 7.1 41 8.2 49.2 4.7 55.1-3.5 4.7-11.7 8.2-16.4 7-4.7 0-8.2-5.8-10.5-12.9-3.5-9.3-5.9-34-7.1-59.7 0-20 0-22.3 2.4-24.6l5.8-5.9c4.7-2.3 8.3-1.2 11.8 2.3zm94.9 37.5l4.7 16.4 4.7-4.6c11.7-9.4 23.4-17.6 26.9-17.6 3.5 0 7 4.7 7 9.4l-5.8 10.5-21.1 24.6 26.9 17.6c11.8 5.8 14.1 8.2 14.1 14.1 0 4.6-4.7 8.2-8.2 7l-29.3-14.1-7-3.5v15.2l1.2 16.4-3.6 3.6-7 2.3c-5.9 0-8.2-3.5-10.5-16.4l-3.6-12.9-7 4.7c-9.4 7-14.1 10.5-19.9 11.7-9.4 2.4-15.2-2.3-17.6-11.7 0-5.9 2.4-11.7 5.9-12.9 10.5-1.2 11.7-2.3 21.1-11.7l9.3-9.4-9.3-4.7c-23.5-11.7-31.7-22.2-24.6-30.4l4.6-3.6 16.4 8.2 14.1 8.2v-12.8c0-14.1 1.2-18.8 4.7-21.1 7-3.6 9.4-1.2 12.9 17.5zm-196.9-10.5q5 0 10 1.1 4.9 1.1 9.4 3.2 4.6 2.1 8.6 5.2 3.9 3 7.2 6.9c14 14.1 21.1 29.3 21.1 50.4-1.2 23.4-10.6 43.3-24.6 50.4-11.8 7-20 3.5-27-10.6l-2.3-3.5-2.4 4.7c-4.7 8.2-11.7 14.1-19.9 14.1-16.4 0-30.5-21.1-28.1-43.4q0.1-3.5 0.6-7 0.5-3.5 1.4-6.9 0.8-3.4 2.1-6.7 1.3-3.2 2.9-6.3c9.4-18.8 24.6-25.8 38.7-16.5l5.8 4.7 2.4-5.8c2.3-7.1 4.7-8.2 8.2-4.7 2.3 2.3 2.3 3.5 2.3 14.1l-1.2 21-1.1 9.4c-1.2 1.2-1.2 14.1 1.1 21.1l3.6 7c3.5 3.6 9.3 3.6 12.9 0 3.5-3.5 8.2-15.2 10.5-25.7 5.9-27-5.9-48.1-28.1-55.1q-6.3-1.6-12.7-2.1-6.5-0.5-12.9 0-6.5 0.6-12.7 2.3-6.3 1.7-12.1 4.5c-14.1 7-23.5 15.2-29.3 26.9-3.1 5.6-5.2 11.7-6.4 18-1.1 6.2-1.2 12.7-0.2 19 0.9 6.3 2.9 12.4 5.8 18.1 2.9 5.6 6.8 10.8 11.3 15.2 2.9 3.3 6.2 6.3 9.7 8.8 3.6 2.6 7.4 4.7 11.5 6.3 4.1 1.6 8.3 2.8 12.6 3.4 4.4 0.6 8.8 0.7 13.1 0.3 25.8-2.4 39.9-10.6 65.6-37.5 7.1-8.2 14.1-14.1 15.3-14.1 2.3 0 4.7 3.5 4.7 5.9-3.8 7.3-8.2 14.2-13.3 20.7-5.2 6.4-11 12.2-17.3 17.5-6.3 5.2-13.2 9.8-20.5 13.6-7.2 3.8-14.9 6.9-22.8 9.1q-5.2 1.2-10.5 1.7-5.3 0.5-10.6 0.3-5.4-0.1-10.6-0.9-5.3-0.8-10.5-2.2c-5.1-2-10-4.5-14.6-7.5-4.6-3-8.9-6.5-12.7-10.4-3.9-4-7.3-8.3-10.1-13-2.9-4.7-5.3-9.7-7.1-14.9-3.5-11.7-4.7-33.9-1.2-46.8 1.9-8 4.9-15.7 9-22.7 4.1-7.1 9.3-13.5 15.3-19 6.1-5.5 12.9-10.1 20.3-13.6 7.4-3.4 15.3-5.7 23.4-6.8zm973.8 7l4.7 4.7c0 4.7-2.3 5.8-38.6 19.9-17.6 7-24.7 8.2-25.8 8.2-2.4-1.2-2.4-7-1.2-8.2q3.8-1.7 7.6-3.3 3.8-1.7 7.6-3.3 3.8-1.6 7.6-3.2 3.8-1.5 7.7-3.1zm-406.7 17.6q6.7 2.1 13.4 4.1 6.7 2 13.5 3.9 6.7 1.9 13.5 3.7 6.7 1.8 13.5 3.5v7.1c-1.1 2.3-2.3 2.3-9.3 2.3q-4.9-0.5-9.7-1.4-4.8-0.9-9.6-2.2-4.7-1.3-9.3-3.1-4.5-1.7-8.9-3.8c-8.2-3.6-8.2-4.7-9.4-8.2l2.3-4.7zm-585.9 26.9c-10.6 4.7-15.2 15.2-15.2 31.7 0 10.5 2.3 18.7 7 21 3.5 1.2 3.5 1.2 8.2-1.1 3.5-1.2 7-3.5 8.2-5.9q2-3.8 3.7-7.7 1.6-4 2.8-8.2 1.2-4.1 1.9-8.4 0.7-4.2 1-8.5c1.1-7 1.1-8.2-1.2-10.5-2.3-2.4-8.2-4.7-10.6-4.7zm129 49.2c5.8 0 7 1.2 10.5 3.5 9.4 10.6 3.5 31.6-9.4 34-10.5 1.2-18.7-5.9-17.6-18.8 0-7 2.4-12.9 8.3-16.4zm831.8 12.5q7.5 1.7 15 3.4 7.4 1.8 14.9 3.7 7.4 1.9 14.8 3.9c2.4 4.7 0 9.3-4.7 9.3-5.8 0-51.5-11.7-55.1-14v-9.4q7.6 1.5 15.1 3.1zm-297.5 22.7c2.4 5.8-3.5 9.4-31.6 18.7-12.9 4.7-15.2 4.7-16.4 1.2-2.4-4.7 1.2-7 21.1-15.2 19.9-8.2 25.8-9.4 26.9-4.7zm52.8 46.9c4.6 2.3 2.3 7-14.1 28.1-19.9 26.9-24.6 32.8-30.5 36.3-5.8 4.7-8.2 3.5-9.3-2.3-1.2-3.5 2.3-9.4 12.8-19.9q2.7-3.1 5.4-6.1 2.7-3.1 5.3-6.1 2.7-3.1 5.3-6.2 2.6-3.1 5.1-6.3l15.3-17.5zm180.4 8.2q3.8 6.3 7.6 12.5 3.8 6.2 7.8 12.4 3.9 6.1 8 12.2 4.1 6.1 8.3 12.1c0 4.7-2.4 8.2-7 8.2-3.6 0-9.4-8.2-20-25.8-17.5-31.6-19.9-36.3-16.4-39.8 3.5-2.4 5.9-1.2 11.7 8.2zm-105.4 11.7q-0.2 9.6-0.7 19.1-0.6 9.6-1.4 19.1-0.9 9.5-2.2 19-1.2 9.5-2.8 19c-1.1 5.8-2.3 7-4.6 7-2.4 0-3.6 0-4.7-2.4-2.4-3.5-1.2-26.9 2.3-43.3l5.9-25.8 2.3-12.9c1.2-1.2 4.7-1.2 5.9 1.2zm-700.8 247.2q3-0.4 6-0.2 2.9 0.1 5.9 0.8 2.9 0.7 5.7 1.8c3.5 1.2 7 4.7 8.2 7 3.5 4.7 7 14.1 7 18.8 0 2.3 0 2.3 5.9 0 9.3-3.5 21.1-2.4 26.9 3.5 5.9 5.9 9.4 14.1 10.6 26.9l1.1 11.8 5.9-1.2c12.9 0 26.9 9.4 31.6 22.3l1.2 84.3-1.2 89.1c-0.7 6.3-2 12.5-3.8 18.5-1.9 6.1-4.2 12-6.9 17.7-2.8 5.6-6.1 11.1-9.8 16.2-3.7 5.1-7.8 9.9-12.3 14.4q-4.2 4.6-9 8.5-4.8 3.9-10.2 7-5.4 3.1-11.1 5.4-5.8 2.3-11.9 3.7-4.6 1.5-9.4 2.5-4.8 1-9.7 1.5-4.9 0.4-9.8 0.3-4.9-0.1-9.7-0.8c-17.6-1.2-28.2-3.5-42.2-8.2q-5.8-1.5-11.3-3.8-5.6-2.3-10.7-5.2-5.2-3-10-6.6-4.8-3.6-9-7.8c-12.9-12.9-16.4-19.9-23.5-44.6-7-23.4-7-26.9-7-44.5l-1.2-43.3c-2.3-56.3 2.4-77.4 19.9-85.6 4.7-2.3 7.1-2.3 12.9-2.3l8.2 2.3c1.2 0 2.4-2.3 2.4-29.3 1.2-31.6 2.3-39.8 5.8-45.7 8.2-10.5 25.8-14.1 35.2-7l3.5 2.3 2.4-7c0.3-2.5 1-4.9 1.9-7.1 1-2.3 2.3-4.5 3.8-6.4 1.6-2 3.4-3.7 5.4-5.2 1.9-1.5 4.1-2.7 6.4-3.6q2.9-0.8 5.9-1.2zm0 15.3l-5.9 3.5c-4.7 3.5-5.8 8.2-5.8 31.6l-1.2 29.3q-1 11.1-1.4 22.3-0.5 11.1-0.5 22.3 0 11.1 0.5 22.3 0.4 11.1 1.4 22.2l17.6 1.2 15.2 1.1-1.2-69.1-1.1-73.8c-1.2-8.2-3.5-11.7-12.9-12.9zm-51.6 26.9c-3.5 4.7-4.7 8.2-5.8 31.7q-0.4 6.1-0.6 12.3-0.1 6.1-0.1 12.3 0 6.1 0.1 12.3 0.2 6.2 0.6 12.3 0.5 9.5 0.9 19 0.3 9.5 0.5 19.1 0.1 9.5 0.1 19-0.1 9.5-0.4 19.1v19.9l9.4 1.2c19.9 2.3 37.5 16.4 46.9 37.5 7 14 8.2 32.8 3.5 38.6-3.5 3.6-5.9 1.2-9.4-15.2-4.7-19.9-9.4-27-24.6-38.7q-2.3-1.7-4.8-3.2-2.6-1.4-5.2-2.6-2.7-1.2-5.5-2.1-2.7-0.9-5.6-1.4c-4.7-1.2-4.7-1.2-7 1.1-1.2 2.4-7 3.5-9.4 1.2-2.3-2.3-3.5-35.2-3.5-75 0-27 0-28.1-2.3-31.6-5.9-9.4-16.5-8.2-21.1 1.1-5.9 12.9-7.1 22.3-5.9 71.5 0 45.7 0 46.9 2.3 61 5.9 25.7 10.6 37.5 17.6 46.8 11.7 16.4 29.3 25.8 56.3 32.8q6.2 1.5 12.5 2.2 6.3 0.8 12.7 0.8 6.3 0 12.6-0.8 6.4-0.7 12.6-2.2c5.7-1 11.3-2.6 16.7-4.7 5.4-2.2 10.6-4.8 15.5-7.9 4.9-3.1 9.5-6.7 13.7-10.6 4.2-4 8.1-8.4 11.5-13.1 14-18.7 17.6-31.6 18.7-77.3q0.5-16.4 0.7-32.8 0.2-16.5 0.1-32.9-0.2-16.4-0.7-32.8-0.4-16.4-1.2-32.8c-3.6-5.8-9.4-10.5-15.3-10.5-5.8 0-9.3 3.5-9.3 11.7q-0.8 7.7-1.3 15.5-0.5 7.7-0.8 15.5-0.3 7.8-0.4 15.6-0.1 7.7 0.1 15.5c0 15.2 0 17.6 2.4 18.7 2.3 0 3.5 4.7 0 7.1-2.4 2.3-8.3 2.3-28.2 0q-10.5-1.3-21-2.2-10.5-0.9-21.1-1.5-10.5-0.6-21.1-0.8-10.6-0.3-21.1-0.2c-3.6-2.4-2.4-4.7 2.3-8.2 5.9-2.4 5.9-2.4 5.9-7l1.1-53.9c1.2-56.3 1.2-59.8-7-68-3.5-3.5-4.7-4.7-9.4-4.7-4.7 0-5.8 1.2-8.2 2.3zm98.5-1.1c-7.1 1.1-10.6 4.7-11.8 9.3-1.1 2.4-2.3 22.3-2.3 48.1q-0.2 9.1-0.5 18.2-0.3 9.1-0.8 18.1-0.4 9.1-1 18.2-0.5 9.1-1.2 18.1l28.1 2.4 1.2-22.3q-0.2-11-0.1-22 0.1-11 0.6-22 0.4-11 1.2-21.9 0.7-11 1.8-22c-1.2-12.9-1.2-15.2-3.5-18.7-2.4-3.5-5.9-4.7-11.7-3.5zm569.5 78.5c2.3 1.2 7 9.4 11.7 18.7l7 16.4 8.2-16.4 10.6-18.7c3.5-3.5 9.4-2.4 12.9 1.2l3.5 5.8q-0.7 2.2-1.4 4.3-0.8 2.1-1.7 4.1-0.8 2.1-1.8 4.1-1 2-2.1 3.9l-11.8 24.6-4.6 10.6 11.7 23.4 11.7 25.8c0 3.5-2.4 7-4.7 9.4-2.3 2.3-9.4 1.1-11.7-1.2q-1.5-2.1-3-4.2-1.4-2.1-2.7-4.3-1.3-2.2-2.6-4.5-1.2-2.3-2.3-4.6l-8.2-16.4-7 15.2-10.5 18.8c-5.9 5.9-16.4 1.2-16.4-7 0-3.5 3.5-11.8 10.5-27l11.7-23.4-11.7-24.6c-11.7-24.6-12.9-28.2-8.2-32.8 3.5-4.7 9.4-4.7 12.9-1.2zm73-2q1.3-0.2 2.7 0 1.4 0.1 2.7 0.6 1.3 0.6 2.4 1.4l10.6 17.6 8.2 15.2 8.2-15.2 10.5-17.6c3.6-2.4 8.2-2.4 12.9 0 4.7 4.7 3.6 8.2-8.2 35.1l-11.7 23.5 11.7 23.4c11.8 25.8 12.9 29.3 8.2 34-4.7 3.5-9.3 3.5-12.9 0l-10.5-17.6-8.2-15.2-8.2 15.2-10.6 17.6c-5.8 4.7-16.4 1.2-15.2-7q1-3.5 2.2-7 1.1-3.4 2.4-6.8 1.4-3.3 2.8-6.6 1.5-3.4 3.2-6.6l11.7-23.4-9.4-18.8c-15.2-32.8-14.1-30.4-12.9-35.1q0.4-0.9 0.8-1.7 0.5-0.9 1.1-1.6 0.6-0.8 1.3-1.4 0.7-0.6 1.5-1.2 1.3-0.6 2.7-0.8zm88.7 2l10.6 18.7 8.2 16.4 7-16.4 10.5-18.7c3.5-3.5 10.6-3.5 14.1 0 4.7 5.8 4.7 7-8.2 32.8l-11.7 24.6 3.5 8.2 10.5 22.3 8.2 19.9c0 4.7-3.5 9.4-9.3 10.5-4.7 1.2-8.2-3.5-17.6-21.1l-7-15.2-8.2 16.4c-8.3 16.4-10.6 19.9-16.5 19.9-4.6 0-10.5-5.8-10.5-9.3q1.2-3.5 2.6-6.9 1.3-3.5 2.8-6.8 1.4-3.4 3-6.7 1.6-3.3 3.3-6.6c11.7-23.4 11.7-23.4 9.4-26.9l-11.7-24.6q-1.4-2.9-2.7-5.8-1.3-2.8-2.5-5.8-1.2-2.9-2.2-5.9-1.1-3-2-6l3.5-5.8c3.5-3.6 8.2-4.7 12.9-1.2z"/>
</svg>